<svg xmlns="http://www.w3.org/2000/svg" viewBox="0 0 313 313" width="313" height="313">
<path fill="#E0BC7D" fill-rule="evenodd" d="M177.50,259.17 L177.17,259.50 L177.00,259.50 L176.67,259.83 L176.50,259.83 L176.33,260.00 L176.17,260.00 L174.33,261.83 L174.33,262.00 L174.17,262.17 L174.17,262.33 L174.00,262.50 L174.00,262.83 L173.83,263.00 L173.83,263.50 L173.67,263.67 L173.67,266.17 L173.83,266.33 L173.83,266.83 L174.00,267.00 L174.00,267.50 L174.17,267.67 L174.17,268.17 L174.83,268.83 L174.83,269.00 L175.17,269.33 L175.17,269.50 L175.50,269.83 L175.67,269.83 L176.33,270.50 L176.50,270.50 L176.83,270.83 L177.17,270.83 L177.33,271.00 L177.50,271.00 L177.67,271.17 L177.83,271.17 L178.00,271.33 L178.17,271.33 L178.33,271.50 L178.50,271.50 L178.67,271.67 L182.33,271.67 L182.83,271.17 L183.00,271.17 L183.33,270.83 L183.50,270.83 L184.33,270.00 L184.50,270.00 L185.50,269.00 L185.50,268.83 L185.83,268.50 L185.83,268.33 L186.00,268.17 L186.00,268.00 L186.17,267.83 L186.17,267.67 L186.33,267.50 L186.33,267.33 L186.50,267.17 L186.50,266.67 L186.67,266.50 L186.67,265.50 L186.83,265.33 L186.83,264.00 L186.67,263.83 L186.67,263.33 L186.50,263.17 L186.50,262.83 L186.33,262.67 L186.33,262.50 L186.00,262.17 L186.00,261.83 L185.83,261.67 L185.83,261.50 L185.67,261.33 L185.67,261.17 L184.67,260.17 L184.50,260.17 L184.33,260.00 L184.17,260.00 L184.00,259.83 L183.67,259.83 L183.33,259.50 L183.17,259.50 L183.00,259.33 L182.83,259.33 L182.67,259.17 L182.50,259.17 L182.33,259.00 L181.33,259.00 L181.17,258.83 L179.33,258.83 L179.17,259.00 L178.00,259.00 L177.83,259.17 Z M130.83,258.83 L130.67,259.00 L130.17,259.00 L130.00,259.17 L129.67,259.17 L129.50,259.33 L129.33,259.33 L129.00,259.67 L128.83,259.67 L128.67,259.83 L128.50,259.83 L128.33,260.00 L128.17,260.00 L126.83,261.33 L126.83,261.50 L126.50,261.83 L126.50,262.00 L126.17,262.33 L126.17,262.50 L126.00,262.67 L126.00,263.17 L125.83,263.33 L125.83,264.17 L125.67,264.33 L125.67,265.83 L125.83,266.00 L125.83,267.17 L126.00,267.33 L126.00,268.00 L126.17,268.17 L126.17,268.33 L126.83,269.00 L126.83,269.17 L127.83,270.17 L128.00,270.17 L128.67,270.83 L129.17,270.83 L129.33,271.00 L129.50,271.00 L129.67,271.17 L130.00,271.17 L130.17,271.33 L130.50,271.33 L130.67,271.50 L131.00,271.50 L131.17,271.67 L131.67,271.67 L131.83,271.83 L133.00,271.83 L133.17,271.67 L133.67,271.67 L133.83,271.50 L134.17,271.50 L134.33,271.33 L134.50,271.33 L134.83,271.00 L135.17,271.00 L135.33,270.83 L135.50,270.83 L135.67,270.67 L135.83,270.67 L137.00,269.50 L137.00,269.33 L137.67,268.67 L137.67,268.50 L137.83,268.33 L137.83,268.17 L138.00,268.00 L138.00,267.67 L138.33,267.33 L138.33,267.00 L138.50,266.83 L138.50,266.50 L138.67,266.33 L138.67,263.33 L138.50,263.17 L138.50,263.00 L138.33,262.83 L138.33,262.67 L138.17,262.50 L138.17,262.33 L138.00,262.17 L138.00,261.83 L137.83,261.67 L137.83,261.50 L137.67,261.33 L137.67,261.17 L136.33,259.83 L136.17,259.83 L135.83,259.50 L135.67,259.50 L135.33,259.17 L135.17,259.17 L135.00,259.00 L134.33,259.00 L134.17,258.83 Z M106.83,97.83 L106.83,105.50 L107.00,106.17 L107.67,106.83 L108.17,107.00 L206.67,106.83 L207.17,106.67 L207.50,106.17 L207.50,97.50 L206.50,96.50 L108.17,96.50 L107.33,96.83 Z M78.50,4.17 L61.00,17.17 L48.00,32.67 L40.17,48.67 L37.67,64.00 L40.00,81.33 L48.00,97.33 L60.50,110.67 L76.17,122.33 L41.33,119.17 L12.50,127.50 L10.33,131.33 L19.50,146.83 L36.83,161.50 L53.00,166.83 L76.83,165.50 L78.17,189.17 L95.83,229.50 L99.00,244.33 L100.17,277.17 L108.17,292.83 L122.50,302.67 L136.67,306.83 L167.50,307.83 L185.67,304.67 L202.17,294.83 L210.67,282.17 L214.00,240.33 L233.67,191.17 L235.83,165.33 L260.33,166.83 L274.33,162.67 L293.67,146.00 L302.33,129.50 L296.17,125.17 L269.50,119.17 L237.33,122.00 L253.83,108.67 L266.67,93.33 L273.83,75.67 L274.83,58.83 L271.67,44.67 L262.67,28.83 L247.17,13.00 L232.67,4.00 L242.83,25.33 L244.00,46.33 L235.83,66.00 L219.83,81.50 L218.67,89.67 L230.00,83.83 L242.67,70.33 L249.67,55.00 L253.83,32.83 L263.83,47.67 L266.50,70.67 L262.83,83.50 L252.17,98.83 L237.33,110.83 L219.50,119.17 L218.00,123.17 L223.83,128.67 L232.33,131.83 L262.83,127.33 L280.67,129.83 L291.00,134.00 L282.33,145.83 L264.67,157.00 L245.33,158.00 L226.67,153.67 L225.00,188.50 L211.17,219.67 L204.50,243.00 L194.17,235.67 L189.00,228.17 L186.17,208.17 L194.00,178.50 L212.50,160.50 L210.50,158.50 L199.83,160.00 L187.17,172.83 L179.00,195.67 L178.00,220.33 L183.00,235.50 L199.83,252.17 L203.83,259.83 L203.83,275.67 L197.00,287.17 L182.83,295.83 L167.83,299.00 L143.50,298.67 L122.67,292.83 L110.17,280.33 L107.83,263.50 L112.00,252.50 L129.50,235.00 L133.67,222.33 L132.83,194.50 L125.67,173.67 L111.50,159.33 L100.67,159.50 L101.50,164.17 L111.83,170.33 L117.83,177.67 L125.67,204.17 L124.00,226.33 L119.00,234.50 L108.50,243.17 L103.67,224.67 L86.83,188.17 L85.67,153.50 L63.67,158.50 L47.83,157.00 L33.50,149.00 L22.00,134.50 L28.50,130.33 L42.33,127.83 L82.00,131.67 L94.67,123.17 L93.50,119.17 L73.83,109.83 L60.67,99.33 L52.00,88.33 L46.00,70.50 L48.00,50.33 L54.17,37.50 L59.50,32.33 L62.17,53.00 L69.00,69.17 L82.67,83.67 L95.83,90.33 L94.67,82.17 L82.83,73.00 L75.00,63.00 L69.00,46.83 L69.17,28.50 L80.83,5.00 Z M93.33,26.67 L92.67,29.33 L93.17,32.50 L95.00,34.83 L98.17,36.17 L99.50,38.50 L106.00,88.33 L107.50,89.83 L207.17,89.83 L207.83,89.33 L208.67,86.17 L215.50,37.83 L216.33,36.50 L218.50,35.67 L220.67,33.83 L221.83,31.00 L221.83,28.00 L220.83,26.00 L219.33,24.33 L217.33,23.17 L212.67,23.00 L210.00,24.83 L208.17,27.83 L208.17,31.33 L210.00,35.00 L209.83,35.83 L186.83,56.17 L183.50,58.50 L182.33,58.17 L181.00,56.83 L169.00,35.33 L165.67,27.50 L161.00,18.50 L160.33,15.83 L160.50,14.50 L163.67,10.83 L164.00,6.67 L163.33,4.83 L160.50,2.00 L155.50,1.17 L152.50,3.00 L151.00,4.67 L150.17,7.33 L150.33,9.50 L151.50,12.33 L154.17,14.67 L154.00,16.67 L143.83,38.17 L132.83,57.83 L132.00,58.50 L130.50,58.33 L128.33,57.00 L104.50,35.83 L104.33,35.17 L106.33,31.17 L106.50,28.67 L105.83,26.50 L103.50,24.00 L101.50,23.00 L97.33,23.00 L95.33,24.17 Z"/>
</svg>