<svg xmlns="http://www.w3.org/2000/svg" viewBox="0 0 313 313" width="313" height="313">
<path fill="#E0BC7D" fill-rule="evenodd" d="M177.17,258.00 L176.33,258.83 L176.17,258.83 L175.00,260.00 L175.00,260.17 L174.33,260.83 L174.33,261.00 L174.17,261.17 L174.17,261.33 L174.00,261.50 L174.00,262.17 L173.83,262.33 L173.83,263.00 L173.67,263.17 L173.67,264.67 L173.83,264.83 L173.83,265.50 L174.00,265.67 L174.00,266.50 L174.17,266.67 L174.17,267.00 L174.67,267.50 L174.67,267.67 L175.00,268.00 L175.00,268.17 L175.17,268.33 L175.17,268.50 L175.50,268.83 L175.67,268.83 L176.50,269.67 L176.67,269.67 L176.83,269.83 L177.17,269.83 L177.50,270.17 L177.67,270.17 L177.83,270.33 L178.00,270.33 L178.17,270.50 L178.33,270.50 L178.50,270.67 L180.50,270.67 L180.67,270.50 L181.33,270.50 L181.50,270.33 L182.17,270.33 L182.33,270.17 L182.83,270.17 L183.00,270.00 L183.50,270.00 L183.67,269.83 L184.00,269.83 L184.17,269.67 L184.33,269.67 L184.83,269.17 L185.00,269.17 L186.00,268.17 L186.00,268.00 L186.50,267.50 L186.50,267.33 L186.67,267.17 L186.67,266.83 L186.83,266.67 L186.83,266.00 L187.00,265.83 L187.00,265.33 L187.17,265.17 L187.17,264.50 L187.33,264.33 L187.33,262.83 L187.17,262.67 L187.17,262.33 L187.00,262.17 L187.00,261.50 L186.83,261.33 L186.83,261.17 L186.67,261.00 L186.67,260.83 L186.00,260.17 L185.83,260.17 L185.67,260.00 L185.50,260.00 L184.83,259.33 L184.83,259.00 L184.67,258.83 L184.67,258.67 L184.17,258.17 L184.00,258.17 L183.83,258.00 L183.50,258.00 L183.33,257.83 L183.17,257.83 L183.00,257.67 L182.67,257.67 L182.33,257.33 L181.83,257.33 L181.67,257.17 L179.00,257.17 L178.83,257.33 L178.50,257.33 L178.33,257.50 L178.17,257.50 L178.00,257.67 L177.83,257.67 L177.67,257.83 L177.50,257.83 L177.33,258.00 Z M131.50,257.17 L131.33,257.33 L131.00,257.33 L130.83,257.50 L130.50,257.50 L130.17,257.83 L129.83,257.83 L129.67,258.00 L129.33,258.00 L129.00,258.33 L128.83,258.33 L127.67,259.50 L127.50,259.50 L127.50,259.67 L127.00,260.17 L127.00,260.33 L126.83,260.50 L126.83,260.67 L126.67,260.83 L126.67,261.00 L126.33,261.33 L126.33,261.50 L126.17,261.67 L126.17,262.00 L126.00,262.17 L126.00,265.33 L126.17,265.50 L126.17,266.00 L126.33,266.17 L126.33,266.33 L126.50,266.50 L126.50,266.67 L126.67,266.83 L126.67,267.17 L126.83,267.33 L126.83,267.50 L127.00,267.67 L127.00,267.83 L127.33,268.17 L127.33,268.33 L127.67,268.67 L127.83,268.67 L128.17,269.00 L128.33,269.00 L129.00,269.67 L129.17,269.67 L129.33,269.83 L129.50,269.83 L129.67,270.00 L129.83,270.00 L130.00,270.17 L130.17,270.17 L130.50,270.50 L131.00,270.50 L131.17,270.67 L134.33,270.67 L134.50,270.50 L134.83,270.50 L135.00,270.33 L135.17,270.33 L135.50,270.00 L135.67,270.00 L135.83,269.83 L136.33,269.83 L137.17,269.00 L137.33,269.00 L138.33,268.00 L138.33,267.83 L138.67,267.50 L138.67,267.33 L138.83,267.17 L138.83,266.50 L139.00,266.33 L139.00,266.00 L139.17,265.83 L139.17,265.67 L139.33,265.50 L139.33,265.17 L139.50,265.00 L139.50,264.33 L139.67,264.17 L139.67,262.50 L139.50,262.33 L139.50,262.17 L139.33,262.00 L139.33,261.83 L139.17,261.67 L139.17,261.50 L139.00,261.33 L139.00,261.17 L138.83,261.00 L138.83,260.67 L138.17,260.00 L137.83,260.00 L137.67,259.83 L137.50,259.83 L137.00,259.33 L137.00,259.17 L136.83,259.00 L136.83,258.67 L136.67,258.50 L136.67,258.33 L136.50,258.17 L136.33,258.17 L136.17,258.00 L136.00,258.00 L135.83,257.83 L135.67,257.83 L135.33,257.50 L135.17,257.50 L135.00,257.33 L134.67,257.33 L134.50,257.17 Z M85.17,35.50 L86.00,41.33 L89.00,47.33 L92.83,50.67 L101.83,54.33 L105.00,63.67 L104.33,64.83 L96.33,59.17 L86.67,57.50 L85.83,59.83 L88.17,65.17 L92.17,69.67 L96.00,71.67 L109.50,74.00 L118.83,84.83 L106.50,80.17 L97.50,81.17 L97.17,83.67 L103.50,89.67 L107.33,91.67 L116.67,92.83 L125.17,90.67 L133.50,96.33 L123.33,96.00 L115.33,99.17 L115.00,101.33 L121.17,105.67 L124.67,106.83 L132.50,107.00 L137.17,105.67 L141.83,102.67 L150.17,105.17 L150.33,106.83 L143.00,109.17 L136.50,113.33 L136.67,114.83 L140.33,116.83 L151.67,110.00 L157.00,108.33 L163.33,111.00 L171.50,116.67 L174.00,116.83 L176.83,115.67 L177.67,113.50 L171.17,109.17 L163.33,106.83 L163.67,105.33 L171.33,102.83 L175.67,105.67 L184.17,107.33 L189.17,106.67 L196.33,102.83 L198.83,99.50 L194.33,97.17 L188.67,95.83 L180.83,97.00 L179.50,96.33 L188.50,90.67 L196.00,92.67 L202.17,92.83 L211.00,88.83 L215.67,84.00 L216.33,82.00 L215.50,81.00 L207.33,80.17 L196.17,85.00 L194.83,84.50 L203.50,74.00 L215.33,72.67 L221.00,69.67 L225.67,64.50 L227.83,59.17 L226.33,57.50 L218.17,59.00 L208.17,64.83 L211.33,54.83 L219.33,51.67 L224.83,46.67 L227.67,40.50 L228.33,35.33 L223.67,35.17 L219.50,37.17 L213.17,43.83 L213.83,25.17 L210.83,18.83 L206.00,14.67 L204.17,18.83 L204.00,27.17 L210.00,39.17 L208.83,50.00 L207.83,49.67 L205.83,43.67 L199.33,36.00 L197.17,37.17 L196.33,41.00 L196.50,46.33 L198.17,51.33 L201.00,55.50 L206.00,59.33 L201.83,71.00 L198.33,76.33 L199.50,70.00 L198.83,62.50 L195.00,56.00 L192.00,54.67 L189.33,59.67 L189.00,67.00 L191.33,73.17 L195.00,78.00 L194.67,80.17 L183.17,90.17 L185.67,83.17 L185.83,77.83 L183.67,71.50 L181.17,70.33 L178.17,73.33 L175.33,79.67 L175.00,85.33 L176.67,94.50 L169.67,99.00 L155.83,104.17 L136.83,94.33 L137.67,80.50 L135.67,74.83 L132.17,70.67 L130.67,70.33 L129.17,72.17 L127.33,78.00 L128.00,84.00 L130.67,90.67 L125.17,86.83 L119.00,80.33 L118.50,78.17 L122.67,71.33 L123.83,67.17 L123.67,60.50 L121.17,55.00 L118.00,56.33 L114.17,63.67 L114.00,70.33 L115.67,75.33 L113.83,75.33 L108.83,65.17 L107.50,59.33 L112.50,54.83 L115.67,48.83 L116.50,40.00 L114.83,36.00 L113.33,36.17 L109.17,40.67 L104.83,50.67 L103.83,49.00 L103.83,37.50 L108.83,28.17 L108.83,19.17 L107.50,15.17 L106.17,14.50 L104.83,15.33 L99.17,24.67 L98.83,31.50 L100.50,44.00 L93.50,37.17 L88.83,35.17 Z M179.17,97.17 L179.17,97.50 L178.83,97.83 L178.50,97.83 L178.33,98.00 L177.50,98.00 L177.50,98.17 L177.33,98.33 L177.33,98.50 L177.00,98.83 L176.83,98.83 L176.67,99.00 L176.00,99.00 L175.83,99.17 L175.50,99.17 L175.33,99.00 L175.33,98.83 L175.17,98.67 L175.17,98.50 L175.83,97.83 L176.83,97.83 L177.00,97.67 L177.33,97.67 L177.33,97.50 L177.83,97.00 L178.33,97.00 L178.50,96.83 L178.83,96.83 Z M86.50,1.83 L69.00,15.00 L57.00,28.50 L48.17,43.50 L44.00,59.83 L45.00,80.00 L51.00,96.17 L61.00,110.50 L77.67,124.17 L38.33,120.17 L18.50,125.00 L10.83,129.00 L10.17,132.83 L21.00,150.50 L35.83,162.67 L52.00,168.50 L76.33,167.00 L78.17,193.33 L96.83,240.50 L99.17,278.17 L108.33,294.67 L121.67,303.83 L137.17,308.33 L168.83,309.00 L186.00,305.83 L201.00,297.83 L212.67,281.83 L217.00,237.33 L235.67,191.00 L237.17,167.00 L257.00,168.67 L279.33,161.50 L295.83,145.50 L303.50,130.50 L294.00,125.00 L275.33,120.17 L256.67,120.17 L236.50,124.00 L250.67,112.33 L263.67,94.00 L268.83,77.83 L269.83,60.67 L265.50,43.83 L255.83,27.50 L236.67,8.17 L224.33,2.00 L237.67,30.83 L238.00,56.00 L226.83,79.33 L206.17,97.83 L216.00,97.83 L223.50,94.67 L239.50,78.17 L247.83,54.17 L247.17,31.67 L257.67,49.67 L260.17,70.50 L256.83,85.00 L248.00,100.17 L233.17,114.00 L217.83,122.00 L217.17,126.67 L224.50,132.50 L232.00,134.50 L268.50,129.83 L291.50,135.50 L279.00,149.83 L263.17,157.83 L250.00,159.00 L231.50,153.17 L227.17,154.50 L226.83,186.33 L211.17,223.00 L205.67,244.17 L191.00,229.83 L188.00,219.33 L188.00,202.00 L195.00,178.67 L201.50,171.00 L211.83,165.00 L212.67,160.17 L200.83,160.17 L187.17,173.50 L180.00,192.00 L178.33,216.17 L184.17,236.83 L201.83,254.17 L204.83,260.33 L203.83,277.83 L196.33,288.67 L182.17,297.00 L162.50,299.83 L136.00,298.00 L121.83,292.83 L110.83,282.00 L107.67,265.83 L109.83,256.50 L128.83,237.17 L133.67,224.67 L133.67,194.83 L124.67,171.83 L112.00,160.17 L102.83,158.50 L100.00,160.33 L101.00,165.00 L111.17,170.83 L117.83,178.67 L125.00,201.33 L124.00,225.17 L118.67,234.17 L107.00,243.67 L101.83,222.83 L86.83,189.00 L85.83,154.50 L81.83,153.33 L63.50,158.83 L47.50,157.83 L31.83,148.00 L21.67,135.50 L46.50,130.00 L81.83,134.67 L91.83,130.67 L96.67,125.50 L95.50,122.17 L74.33,109.83 L64.00,98.33 L57.00,86.17 L53.33,68.67 L56.00,48.67 L66.50,32.17 L67.00,58.83 L75.00,78.67 L92.67,95.67 L108.00,97.67 L98.50,92.83 L86.00,77.67 L76.00,56.00 L75.83,30.17 L81.00,16.50 L89.67,4.17 Z"/>
</svg>