<svg xmlns="http://www.w3.org/2000/svg" viewBox="0 0 313 313" width="313" height="313">
<path fill="#E0BC7D" fill-rule="evenodd" d="M263.33,231.83 L263.33,232.83 L263.17,233.00 L263.17,234.00 L263.33,234.17 L263.33,235.33 L263.50,235.50 L263.50,235.83 L263.67,236.00 L263.67,236.17 L263.83,236.33 L263.83,236.50 L264.00,236.67 L264.00,236.83 L264.17,237.00 L264.17,237.17 L264.50,237.50 L264.50,237.67 L265.67,238.83 L265.67,239.00 L266.00,239.33 L266.17,239.33 L267.00,240.17 L267.17,240.17 L267.50,240.50 L267.67,240.50 L267.83,240.67 L268.00,240.67 L268.17,240.83 L268.33,240.83 L268.50,241.00 L268.67,241.00 L268.83,241.17 L269.00,241.17 L269.17,241.33 L269.50,241.33 L269.67,241.50 L270.00,241.50 L270.17,241.67 L270.33,241.67 L270.50,241.83 L270.67,241.83 L270.83,242.00 L271.33,242.00 L271.50,242.17 L271.83,242.17 L272.00,242.33 L272.83,242.33 L273.00,242.50 L274.83,242.50 L275.00,242.67 L279.00,242.67 L279.17,242.50 L280.00,242.50 L280.17,242.33 L280.83,242.33 L281.00,242.17 L281.50,242.17 L281.67,242.00 L282.17,242.00 L282.33,241.83 L282.50,241.83 L282.67,241.67 L282.83,241.67 L283.00,241.50 L283.33,241.50 L283.50,241.33 L283.83,241.33 L284.00,241.17 L284.33,241.17 L284.67,240.83 L285.00,240.83 L285.17,240.67 L285.33,240.67 L285.50,240.50 L285.83,240.50 L286.00,240.33 L286.17,240.33 L286.33,240.17 L286.50,240.17 L286.83,239.83 L287.00,239.83 L287.33,239.50 L287.50,239.50 L287.83,239.17 L288.00,239.17 L288.83,238.33 L289.00,238.33 L289.33,238.00 L289.33,237.83 L290.00,237.17 L290.00,237.00 L290.17,236.83 L290.17,236.67 L290.50,236.33 L290.50,236.17 L290.67,236.00 L290.67,235.67 L290.83,235.50 L290.83,234.50 L291.00,234.33 L291.00,232.50 L290.83,232.33 L290.83,231.67 L290.50,231.33 L290.50,231.17 L290.17,230.83 L290.17,230.67 L289.67,230.17 L289.67,230.00 L287.83,228.17 L287.67,228.17 L287.17,227.67 L287.00,227.67 L286.67,227.33 L286.50,227.33 L286.00,226.83 L285.67,226.83 L285.50,226.67 L285.33,226.67 L285.17,226.50 L284.83,226.50 L284.67,226.33 L284.50,226.33 L284.33,226.17 L284.00,226.17 L283.83,226.00 L283.33,226.00 L283.17,225.83 L282.33,225.83 L282.17,225.67 L281.50,225.67 L281.33,225.50 L280.50,225.50 L280.33,225.33 L274.50,225.33 L274.33,225.50 L273.50,225.50 L273.33,225.67 L272.67,225.67 L272.50,225.83 L272.00,225.83 L271.83,226.00 L271.33,226.00 L271.17,226.17 L270.67,226.17 L270.50,226.33 L270.33,226.33 L270.17,226.50 L269.67,226.50 L269.50,226.67 L269.33,226.67 L269.17,226.83 L268.83,226.83 L268.67,227.00 L268.50,227.00 L267.83,227.67 L267.67,227.67 L267.33,228.00 L267.17,228.00 L267.00,228.17 L266.83,228.17 L266.67,228.33 L266.50,228.33 L266.00,228.83 L265.83,228.83 L265.33,229.33 L265.17,229.33 L264.50,230.00 L264.50,230.17 L264.00,230.67 L264.00,230.83 L263.67,231.17 L263.67,231.33 L263.50,231.50 L263.50,231.67 Z M159.83,142.50 L159.67,142.67 L159.17,142.67 L159.00,142.83 L158.67,142.83 L158.50,143.00 L158.33,143.00 L158.17,143.17 L158.00,143.17 L157.17,143.67 L156.83,143.67 L156.67,143.83 L156.50,143.83 L156.00,144.33 L155.50,144.50 L154.33,145.50 L154.17,145.50 L153.83,145.83 L153.67,145.83 L153.50,146.00 L153.50,146.17 L153.17,146.50 L153.00,146.50 L152.67,146.83 L152.67,147.00 L151.67,148.00 L151.67,148.17 L151.17,148.67 L151.17,148.83 L150.67,149.33 L150.67,149.50 L150.33,149.83 L150.17,150.33 L149.67,150.83 L149.67,151.00 L149.33,151.50 L149.33,151.83 L148.83,152.67 L148.83,153.17 L148.67,153.33 L148.67,154.00 L148.50,154.17 L148.50,155.50 L148.33,155.67 L148.33,160.00 L148.50,160.17 L148.50,161.17 L148.67,161.33 L148.67,162.17 L148.83,162.33 L148.83,162.50 L149.00,162.67 L149.00,163.00 L149.50,163.83 L149.50,164.17 L149.83,164.50 L150.00,165.00 L150.33,165.33 L150.33,165.50 L150.50,165.67 L150.67,166.17 L152.50,168.00 L152.50,168.17 L153.33,168.83 L153.33,169.00 L153.67,169.33 L153.83,169.33 L154.50,170.00 L155.00,170.17 L155.50,170.67 L156.00,170.83 L156.33,171.17 L156.50,171.17 L156.67,171.33 L156.83,171.33 L157.67,171.83 L158.00,171.83 L158.17,172.00 L158.83,172.00 L159.00,172.17 L160.33,172.17 L160.50,172.33 L163.83,172.33 L164.00,172.17 L165.67,172.17 L165.83,172.00 L166.83,172.00 L167.00,171.83 L167.50,171.83 L168.00,171.50 L168.33,171.50 L168.83,171.17 L169.17,171.17 L169.33,171.00 L169.50,171.00 L169.83,170.67 L170.00,170.67 L170.17,170.50 L170.33,170.50 L170.50,170.33 L170.67,170.33 L170.83,170.17 L171.33,170.00 L171.67,169.67 L171.83,169.67 L172.17,169.33 L172.33,169.33 L173.67,168.00 L173.83,168.00 L174.17,167.67 L174.17,167.50 L175.17,166.50 L175.33,166.00 L175.67,165.67 L175.67,165.50 L176.00,165.00 L176.00,164.67 L176.17,164.50 L176.17,164.17 L176.33,164.00 L176.33,163.67 L176.50,163.50 L176.50,163.33 L176.67,163.17 L176.67,162.83 L176.83,162.67 L176.83,161.83 L177.00,161.67 L177.00,161.17 L177.17,161.00 L177.17,160.83 L177.33,160.67 L177.33,160.50 L177.83,159.67 L177.83,159.33 L178.00,159.17 L178.00,155.83 L177.83,155.67 L177.83,154.67 L177.67,154.50 L177.67,154.17 L177.50,154.00 L177.50,153.50 L177.33,153.33 L177.33,153.00 L177.17,152.83 L177.17,152.50 L177.00,152.33 L177.00,152.00 L176.83,151.83 L176.67,151.33 L176.33,151.00 L176.17,150.50 L175.83,150.17 L175.83,150.00 L175.33,149.50 L175.33,149.33 L174.83,148.83 L174.83,148.67 L173.17,147.00 L173.17,146.83 L173.00,146.67 L172.83,146.67 L171.67,145.50 L171.50,145.50 L170.83,144.83 L170.67,144.83 L170.33,144.50 L169.83,144.33 L169.33,143.83 L169.00,143.83 L168.83,143.67 L168.50,143.67 L168.00,143.33 L167.67,143.33 L167.33,143.00 L167.17,143.00 L167.00,142.83 L166.67,142.83 L166.50,142.67 L166.17,142.67 L166.00,142.50 L164.83,142.50 L164.67,142.33 L163.67,142.33 L163.50,142.17 L161.83,142.17 L161.67,142.33 L161.00,142.33 L160.83,142.50 Z M159.83,150.33 L160.33,150.33 L160.50,150.17 L161.17,150.17 L161.33,150.00 L162.17,150.00 L162.33,149.83 L162.50,149.83 L162.67,150.00 L163.50,150.00 L163.67,150.17 L164.33,150.17 L164.50,150.33 L165.17,150.33 L165.33,150.50 L165.50,150.50 L165.67,150.67 L166.00,150.67 L166.33,151.00 L166.50,151.00 L166.83,151.33 L167.00,151.33 L168.50,152.83 L168.50,153.00 L169.00,153.50 L169.00,153.67 L169.17,153.83 L169.17,154.00 L169.33,154.17 L169.33,154.33 L169.50,154.50 L169.50,154.83 L169.67,155.00 L169.67,155.17 L169.83,155.33 L169.83,155.67 L170.00,155.83 L170.00,156.50 L170.17,156.67 L170.17,158.33 L170.00,158.50 L170.00,159.17 L169.83,159.33 L169.83,159.50 L169.67,159.67 L169.67,159.83 L169.50,160.00 L169.50,160.33 L169.33,160.50 L169.33,160.67 L169.17,160.83 L169.17,161.17 L169.00,161.33 L169.00,161.50 L168.67,161.83 L168.67,162.00 L168.17,162.50 L168.17,162.67 L167.17,163.67 L167.00,163.67 L166.33,164.33 L166.17,164.33 L166.00,164.50 L165.83,164.50 L165.67,164.67 L165.50,164.67 L165.17,165.00 L164.67,165.00 L164.50,165.17 L163.67,165.17 L163.50,165.00 L162.83,165.00 L162.67,164.83 L162.50,164.83 L162.33,164.67 L161.83,164.67 L161.67,164.50 L161.17,164.50 L161.00,164.33 L160.67,164.33 L160.50,164.17 L160.33,164.17 L160.17,164.00 L159.83,164.00 L159.33,163.50 L159.17,163.50 L159.00,163.33 L158.83,163.33 L157.50,162.00 L157.50,161.83 L157.17,161.50 L157.17,161.33 L156.83,161.00 L156.83,160.83 L156.50,160.50 L156.50,160.33 L156.33,160.17 L156.33,159.83 L156.17,159.67 L156.17,159.33 L156.00,159.17 L156.00,158.67 L155.83,158.50 L155.83,157.17 L156.00,157.00 L156.00,156.17 L156.17,156.00 L156.17,155.33 L156.33,155.17 L156.33,154.67 L156.50,154.50 L156.50,154.17 L156.67,154.00 L156.67,153.83 L156.83,153.67 L156.83,153.50 L157.00,153.33 L157.00,153.17 L157.17,153.00 L157.17,152.67 L157.67,152.17 L157.67,152.00 L158.67,151.00 L158.83,151.00 L159.17,150.67 L159.33,150.67 L159.50,150.50 L159.67,150.50 Z M124.00,132.00 L123.83,132.17 L123.00,132.17 L122.83,132.33 L122.33,132.33 L122.17,132.50 L121.83,132.50 L121.67,132.67 L121.17,132.67 L121.00,132.83 L120.50,132.83 L120.33,133.00 L120.17,133.00 L120.00,133.17 L119.83,133.17 L119.67,133.33 L119.50,133.33 L119.00,133.67 L118.67,133.67 L118.50,133.83 L118.33,133.83 L118.17,134.00 L117.67,134.17 L117.33,134.50 L116.83,134.67 L116.00,135.50 L115.83,135.50 L114.50,136.83 L114.50,137.00 L113.67,137.83 L113.67,138.00 L113.00,138.83 L112.83,139.33 L112.50,139.67 L112.33,140.17 L112.00,140.50 L112.00,140.83 L111.83,141.00 L111.83,141.33 L111.67,141.50 L111.67,141.83 L111.50,142.00 L111.50,142.33 L111.33,142.50 L111.33,142.83 L111.17,143.00 L111.17,143.67 L111.00,143.83 L111.00,148.00 L111.17,148.17 L111.17,149.17 L111.33,149.33 L111.33,149.83 L111.50,150.00 L111.50,150.33 L111.67,150.50 L111.67,151.00 L111.83,151.17 L111.83,151.50 L112.00,151.67 L112.00,152.17 L112.17,152.33 L112.17,152.50 L112.50,152.83 L112.50,153.00 L112.67,153.17 L112.67,153.33 L112.83,153.50 L112.83,153.67 L113.00,153.83 L113.17,154.33 L113.67,154.83 L113.67,155.00 L114.50,155.83 L114.50,156.00 L114.83,156.33 L115.00,156.33 L115.67,157.17 L115.83,157.17 L116.17,157.50 L116.33,157.50 L116.83,158.00 L117.00,158.00 L117.33,158.33 L117.50,158.33 L117.83,158.67 L118.00,158.67 L118.50,159.17 L118.67,159.17 L118.83,159.33 L119.17,159.33 L119.50,159.67 L119.67,159.67 L119.83,159.83 L120.00,159.83 L120.50,160.17 L121.33,160.17 L121.50,160.33 L122.50,160.33 L122.67,160.50 L123.50,160.50 L123.67,160.67 L126.17,160.67 L126.33,160.50 L127.33,160.50 L127.50,160.33 L128.50,160.33 L128.67,160.17 L129.33,160.17 L129.50,160.00 L129.83,160.00 L130.00,159.83 L130.17,159.83 L130.67,159.50 L131.00,159.50 L131.50,159.17 L131.83,159.17 L132.00,159.00 L132.17,159.00 L132.67,158.50 L133.17,158.33 L133.50,158.00 L133.67,158.00 L134.00,157.67 L134.17,157.67 L134.67,157.17 L134.83,157.17 L135.50,156.50 L135.50,156.33 L136.00,155.83 L136.00,155.67 L136.50,155.17 L136.50,155.00 L137.17,154.33 L137.17,154.17 L137.33,154.00 L137.33,153.83 L137.67,153.33 L137.67,153.00 L137.83,152.83 L137.83,152.50 L138.17,152.17 L138.17,151.83 L138.50,151.33 L138.50,150.83 L138.67,150.67 L138.67,150.17 L138.83,150.00 L138.83,149.50 L139.00,149.33 L139.00,148.33 L139.17,148.17 L139.17,145.67 L139.00,145.50 L139.00,144.17 L138.83,144.00 L138.83,143.33 L138.67,143.17 L138.67,142.50 L138.50,142.33 L138.50,141.83 L138.17,141.33 L138.17,141.00 L138.00,140.83 L138.00,140.67 L137.83,140.50 L137.83,140.33 L137.67,140.17 L137.67,140.00 L137.50,139.83 L137.50,139.67 L137.33,139.50 L137.17,139.00 L136.83,138.67 L136.83,138.50 L136.33,138.00 L136.17,137.50 L135.00,136.33 L134.83,136.33 L133.83,135.33 L133.67,135.33 L133.33,135.00 L133.33,134.83 L133.17,134.83 L132.33,134.17 L132.17,134.17 L132.00,134.00 L131.50,133.83 L131.17,133.50 L130.67,133.33 L130.33,133.00 L130.17,133.00 L130.00,132.83 L129.67,132.83 L129.17,132.50 L128.83,132.50 L128.33,132.17 L128.00,132.17 L127.83,132.00 Z M123.67,139.50 L125.67,139.50 L125.83,139.67 L126.33,139.67 L126.67,140.00 L127.00,140.00 L127.17,140.17 L127.33,140.17 L127.67,140.50 L128.00,140.50 L128.17,140.67 L128.33,140.67 L128.67,141.00 L128.83,141.00 L129.17,141.33 L129.33,141.33 L129.50,141.50 L129.50,141.67 L130.33,142.50 L130.33,142.67 L130.50,142.83 L130.50,143.00 L130.67,143.17 L130.67,143.33 L130.83,143.50 L130.83,144.00 L131.00,144.17 L131.00,144.50 L131.17,144.67 L131.17,145.17 L131.33,145.33 L131.33,147.33 L131.17,147.50 L131.17,148.00 L131.00,148.17 L131.00,148.67 L130.83,148.83 L130.83,149.17 L130.67,149.33 L130.67,149.50 L130.50,149.67 L130.50,150.00 L130.00,150.50 L130.00,150.67 L129.50,151.17 L129.50,151.33 L127.67,153.17 L127.50,153.17 L127.33,153.33 L127.17,153.33 L127.00,153.50 L125.00,153.50 L124.83,153.33 L124.17,153.33 L124.00,153.17 L123.67,153.17 L123.50,153.00 L123.33,153.00 L123.17,152.83 L122.83,152.83 L122.67,152.67 L122.50,152.67 L122.33,152.50 L122.17,152.50 L122.00,152.33 L121.83,152.33 L119.83,150.33 L119.83,150.17 L119.67,150.00 L119.67,149.83 L119.50,149.67 L119.50,149.50 L119.33,149.33 L119.33,149.17 L119.17,149.00 L119.17,148.67 L119.00,148.50 L119.00,148.33 L118.83,148.17 L118.83,147.00 L118.67,146.83 L118.67,145.50 L118.83,145.33 L118.83,144.33 L119.00,144.17 L119.00,143.83 L119.33,143.50 L119.33,143.33 L119.50,143.17 L119.50,143.00 L119.67,142.83 L119.67,142.50 L120.17,142.00 L120.17,141.83 L121.00,141.00 L121.17,141.00 L121.67,140.50 L121.83,140.50 L122.00,140.33 L122.17,140.33 L122.50,140.00 L122.67,140.00 L122.83,139.83 L123.00,139.83 L123.17,139.67 L123.50,139.67 Z M101.17,120.83 L100.83,120.83 L100.67,120.67 L100.50,120.67 L100.33,120.50 L100.00,120.50 L99.83,120.33 L97.33,120.33 L97.17,120.50 L96.83,120.50 L96.67,120.67 L96.33,120.67 L96.17,120.83 L95.83,120.83 L95.67,121.00 L95.50,121.00 L95.33,121.17 L95.17,121.17 L94.67,121.67 L94.50,121.67 L93.83,122.33 L93.67,122.33 L91.50,124.50 L91.50,124.67 L91.17,125.00 L91.17,125.17 L91.00,125.33 L91.00,125.50 L90.83,125.67 L90.83,125.83 L90.67,126.00 L90.67,126.17 L90.33,126.50 L90.33,126.67 L90.17,126.83 L90.17,127.17 L90.00,127.33 L90.00,127.83 L89.83,128.00 L89.83,128.67 L89.67,128.83 L89.67,129.50 L89.50,129.67 L89.50,130.17 L89.33,130.33 L89.33,130.50 L89.17,130.67 L89.17,130.83 L89.00,131.00 L89.00,131.33 L88.83,131.50 L88.83,132.17 L89.00,132.33 L89.00,134.17 L89.17,134.33 L89.17,134.83 L89.33,135.00 L89.33,135.17 L89.67,135.50 L89.67,135.67 L90.00,136.00 L90.00,136.17 L91.17,137.33 L91.33,137.33 L91.67,137.67 L92.17,137.67 L92.33,137.83 L92.67,137.83 L92.83,138.00 L93.33,138.00 L93.50,138.17 L95.17,138.17 L95.33,138.00 L95.50,138.00 L95.67,137.83 L96.17,137.83 L96.33,137.67 L96.50,137.67 L96.83,137.33 L97.00,137.33 L97.17,137.17 L97.33,137.17 L97.33,137.00 L98.00,136.33 L98.17,136.33 L98.33,136.17 L98.33,136.00 L99.00,135.33 L99.00,135.17 L99.83,134.33 L99.83,134.17 L100.33,133.67 L100.33,133.50 L100.67,133.17 L100.67,133.00 L100.83,132.83 L100.83,132.67 L101.33,132.17 L101.33,132.00 L101.50,131.83 L101.50,131.67 L101.67,131.50 L101.67,131.17 L101.83,131.00 L101.83,130.50 L102.00,130.33 L102.00,130.17 L102.17,130.00 L102.17,129.83 L102.50,129.50 L102.50,129.33 L102.67,129.17 L102.67,129.00 L102.83,128.83 L102.83,128.67 L103.00,128.50 L103.00,128.33 L103.17,128.17 L103.17,127.50 L103.33,127.33 L103.33,123.67 L103.17,123.50 L103.17,123.33 L103.00,123.17 L103.00,123.00 L102.83,122.83 L102.83,122.67 L102.50,122.33 L102.50,122.17 Z M149.83,108.17 L149.67,108.33 L149.33,108.33 L149.17,108.50 L149.00,108.50 L148.83,108.67 L148.50,108.67 L148.33,108.83 L147.67,108.83 L147.50,109.00 L146.50,109.00 L146.33,109.17 L145.83,109.33 L145.33,109.83 L145.00,109.83 L144.83,110.00 L144.50,110.00 L144.33,110.17 L144.17,110.17 L144.00,110.33 L143.50,110.50 L143.17,110.83 L142.67,111.00 L141.50,112.17 L141.50,112.33 L140.67,113.17 L140.67,113.33 L139.67,114.50 L139.50,115.00 L139.17,115.33 L139.17,115.50 L138.83,116.00 L138.83,116.33 L138.67,116.50 L138.67,116.83 L138.50,117.00 L138.50,117.33 L138.17,117.83 L138.17,118.17 L138.00,118.33 L138.00,118.67 L137.83,118.83 L137.83,119.50 L137.67,119.67 L137.67,122.50 L137.50,122.67 L137.50,123.50 L137.67,123.67 L137.67,126.00 L137.83,126.17 L137.83,126.67 L138.00,126.83 L138.00,127.17 L138.17,127.33 L138.17,127.50 L138.33,127.67 L138.33,127.83 L138.50,128.00 L138.50,128.17 L138.67,128.33 L138.67,128.50 L138.83,128.67 L139.00,129.17 L139.50,129.67 L139.50,129.83 L139.83,130.17 L139.83,130.33 L140.50,131.00 L140.50,131.17 L140.67,131.33 L140.83,131.33 L141.17,131.67 L141.17,131.83 L142.67,133.33 L142.83,133.33 L143.67,134.17 L143.83,134.17 L144.17,134.50 L144.33,134.50 L144.67,134.83 L144.83,134.83 L145.67,135.50 L146.00,135.50 L146.50,135.83 L146.83,135.83 L147.00,136.00 L147.33,136.00 L147.50,136.17 L149.67,136.17 L149.83,136.00 L150.33,136.00 L150.50,136.17 L153.00,136.17 L153.17,136.00 L154.67,136.00 L154.83,135.83 L155.33,135.83 L155.50,135.67 L155.83,135.67 L156.00,135.50 L156.17,135.50 L156.33,135.33 L156.50,135.33 L156.67,135.17 L157.17,135.00 L157.50,134.67 L157.67,134.67 L157.83,134.50 L158.17,134.50 L158.67,134.00 L158.83,134.00 L159.17,133.67 L159.33,133.67 L159.67,133.33 L159.83,133.33 L161.00,132.17 L161.00,132.00 L161.33,131.67 L161.33,131.50 L162.00,130.83 L162.00,130.67 L162.17,130.50 L162.17,130.33 L162.33,130.17 L162.50,129.67 L162.83,129.33 L162.83,129.17 L163.00,129.00 L163.00,128.67 L163.17,128.50 L163.17,128.17 L163.33,128.00 L163.33,127.50 L163.50,127.33 L163.50,126.67 L163.83,126.17 L163.83,125.67 L164.00,125.50 L164.00,125.17 L164.17,125.00 L164.17,124.50 L164.33,124.33 L164.33,123.50 L164.50,123.33 L164.50,122.17 L164.33,122.00 L164.33,120.17 L164.17,120.00 L164.17,118.83 L164.00,118.67 L164.00,118.33 L163.83,118.17 L163.83,117.67 L163.50,117.33 L163.50,117.17 L163.33,117.00 L163.33,116.67 L163.00,116.33 L163.00,116.17 L162.50,115.67 L162.50,115.50 L162.17,115.17 L162.00,114.67 L161.50,114.17 L161.33,113.67 L160.67,113.00 L160.67,112.83 L160.17,112.33 L160.00,112.33 L159.33,111.67 L159.17,111.67 L158.33,111.00 L157.83,110.83 L157.33,110.33 L157.17,110.33 L157.00,110.17 L156.83,110.17 L156.67,110.00 L156.50,110.00 L156.33,109.83 L156.17,109.83 L156.00,109.67 L155.83,109.67 L155.67,109.50 L155.50,109.50 L155.00,109.17 L154.67,109.17 L154.50,109.00 L154.17,109.00 L154.00,108.83 L153.33,108.83 L153.17,108.67 L152.67,108.67 L152.50,108.50 L152.17,108.50 L152.00,108.33 L151.50,108.33 L151.33,108.17 Z M148.83,116.33 L149.33,116.33 L149.50,116.17 L151.17,116.17 L151.33,116.33 L152.50,116.33 L152.67,116.50 L153.17,116.50 L153.33,116.67 L153.50,116.67 L153.67,116.83 L153.83,116.83 L154.00,117.00 L154.17,117.00 L154.83,117.67 L154.83,117.83 L155.33,118.33 L155.33,118.50 L155.50,118.67 L155.50,119.00 L155.67,119.17 L155.67,119.33 L156.00,119.67 L156.00,120.00 L156.17,120.17 L156.17,120.33 L156.33,120.50 L156.33,121.00 L156.50,121.17 L156.50,124.17 L156.33,124.33 L156.33,124.83 L156.17,125.00 L156.17,125.33 L155.83,125.67 L155.83,125.83 L155.50,126.17 L155.50,126.33 L155.17,126.67 L155.17,126.83 L154.00,128.00 L153.83,128.00 L153.67,128.17 L153.50,128.17 L153.33,128.33 L153.17,128.33 L153.00,128.50 L152.33,128.50 L152.17,128.67 L150.83,128.67 L150.67,128.50 L150.00,128.50 L149.83,128.33 L149.50,128.33 L149.33,128.17 L149.17,128.17 L149.00,128.00 L148.83,128.00 L148.67,127.83 L148.50,127.83 L148.33,127.67 L148.17,127.67 L148.00,127.50 L147.83,127.50 L146.33,126.00 L146.33,125.83 L145.83,125.33 L145.83,125.17 L145.67,125.00 L145.67,124.67 L145.50,124.50 L145.50,123.83 L145.33,123.67 L145.33,120.33 L145.50,120.17 L145.50,119.67 L145.67,119.50 L145.67,119.33 L146.67,118.33 L146.83,118.33 L147.33,117.83 L147.33,117.67 L147.83,117.17 L148.00,117.17 L148.17,117.00 L148.17,116.83 L148.50,116.50 L148.67,116.50 Z M31.00,58.67 L28.83,66.67 L28.83,74.67 L32.00,85.33 L26.83,89.67 L24.00,94.17 L22.83,99.67 L23.50,105.33 L18.67,108.17 L14.67,112.17 L12.17,117.33 L12.17,123.83 L13.33,127.17 L21.33,135.00 L20.50,141.83 L18.50,145.33 L12.83,147.67 L9.33,150.67 L6.33,156.33 L7.00,183.33 L9.00,187.50 L12.67,191.33 L33.50,203.67 L89.33,231.50 L108.50,239.50 L128.00,245.17 L154.83,248.83 L190.50,249.67 L209.33,253.50 L218.33,257.33 L244.67,271.83 L255.50,275.83 L269.67,278.50 L276.17,278.50 L290.00,276.00 L301.17,270.17 L305.83,265.17 L308.83,254.00 L308.67,232.83 L305.83,227.83 L306.67,205.50 L299.33,197.00 L288.67,191.17 L290.00,187.33 L288.83,164.67 L281.50,151.67 L274.00,144.50 L266.33,139.83 L258.17,136.67 L246.67,134.33 L246.33,126.50 L252.33,122.33 L254.67,115.83 L254.33,109.50 L250.17,104.33 L245.50,102.00 L238.50,102.17 L233.83,105.33 L230.83,109.67 L230.17,114.00 L231.83,120.17 L233.83,123.00 L238.67,126.33 L238.83,133.33 L238.00,134.50 L228.50,136.00 L216.33,140.83 L209.00,145.67 L200.67,153.50 L195.33,150.33 L148.33,52.50 L144.33,46.00 L127.67,41.67 L119.17,40.67 L96.83,84.33 L94.17,87.33 L87.00,83.00 L84.67,73.67 L81.17,69.67 L76.17,66.50 L66.50,66.33 L59.50,70.67 L58.00,70.17 L58.33,65.83 L61.83,59.67 L66.00,55.17 L71.83,51.17 L72.00,47.67 L70.17,45.83 L66.33,45.67 L59.33,50.50 L54.00,56.67 L50.50,63.50 L37.17,57.33 L32.50,57.33 Z M203.67,197.50 L203.83,197.33 L203.83,196.67 L204.50,196.17 L205.67,197.50 L210.17,201.67 L211.00,202.00 L211.83,202.67 L212.67,202.83 L213.50,203.33 L214.00,203.33 L214.17,203.50 L216.50,203.67 L216.67,203.83 L219.83,203.83 L220.00,203.67 L220.83,203.67 L223.00,202.83 L224.17,202.67 L224.50,202.33 L225.50,201.83 L226.33,201.67 L227.00,201.17 L228.17,201.00 L232.00,203.17 L234.00,204.83 L235.67,205.83 L236.50,205.83 L237.83,206.33 L240.17,206.33 L241.33,206.67 L244.00,206.50 L244.17,206.33 L245.00,206.33 L245.83,206.00 L247.33,205.83 L248.67,205.00 L250.17,204.50 L252.50,202.83 L253.17,202.67 L254.00,202.00 L255.50,201.50 L257.17,201.50 L257.33,201.67 L259.17,201.83 L260.67,202.83 L261.00,202.83 L261.83,203.33 L263.33,203.83 L268.83,203.83 L269.00,203.67 L269.83,203.67 L271.67,202.83 L272.17,202.83 L273.33,202.00 L274.17,201.67 L279.50,197.00 L280.17,197.00 L280.83,197.50 L280.83,199.33 L280.67,199.50 L280.67,201.00 L280.50,201.50 L279.67,202.50 L279.17,204.33 L277.50,207.17 L275.33,209.67 L271.17,213.00 L268.67,214.33 L268.33,214.67 L267.17,215.00 L266.17,215.67 L265.00,216.00 L264.33,216.00 L262.33,216.83 L260.50,217.00 L258.83,217.83 L256.50,217.83 L256.33,218.00 L255.33,218.00 L254.33,218.33 L231.50,218.33 L230.00,217.67 L227.50,217.67 L225.67,217.00 L224.50,216.83 L223.00,216.17 L221.50,216.00 L221.33,215.83 L220.67,215.83 L219.67,215.50 L218.83,215.00 L218.00,214.83 L217.00,214.17 L215.83,213.83 L215.17,213.33 L214.00,212.83 L213.17,212.17 L212.33,211.83 L211.50,211.00 L208.83,209.00 L206.83,207.00 L205.33,204.67 L204.83,204.17 L204.50,203.00 L204.00,202.17 L204.00,201.33 L203.83,201.17 L203.83,198.17 L203.67,198.00 Z M282.33,183.50 L282.33,185.50 L281.17,186.83 L279.67,187.50 L279.17,188.00 L278.50,188.17 L275.67,190.50 L271.83,194.33 L270.17,195.67 L269.17,196.17 L268.50,196.17 L268.00,196.50 L264.50,196.33 L264.33,196.17 L263.50,196.17 L263.33,196.00 L262.67,196.00 L261.67,195.67 L261.33,195.33 L260.67,195.17 L259.00,194.17 L256.50,194.00 L256.33,193.83 L255.83,194.00 L254.33,194.00 L252.33,195.00 L251.17,195.33 L247.17,197.83 L246.00,198.17 L245.00,198.83 L243.83,199.00 L243.67,199.17 L241.33,199.17 L241.17,199.00 L239.67,199.00 L239.17,198.83 L237.00,197.50 L236.17,196.50 L234.50,195.17 L232.33,194.00 L231.67,194.00 L231.50,193.83 L230.00,193.67 L229.83,193.50 L228.33,193.50 L228.17,193.67 L227.33,193.67 L227.17,193.83 L224.50,194.17 L224.17,194.50 L223.17,195.00 L221.50,195.50 L221.17,195.83 L219.83,196.00 L219.67,196.17 L218.67,196.17 L217.83,196.50 L217.00,196.50 L216.33,196.17 L215.83,196.17 L215.17,195.83 L211.83,193.17 L208.17,189.33 L207.50,189.00 L206.67,188.17 L206.17,188.00 L205.17,187.17 L202.67,185.83 L202.33,185.50 L202.00,184.67 L202.00,183.67 L202.17,183.33 L203.00,182.67 L203.83,182.67 L204.50,183.00 L205.17,183.00 L206.67,183.83 L207.33,183.83 L207.50,184.00 L209.00,184.33 L209.83,184.83 L211.17,185.00 L211.33,185.17 L212.67,185.33 L212.83,185.50 L213.50,185.50 L213.67,185.67 L216.33,185.83 L217.33,186.17 L219.67,186.33 L219.83,186.50 L222.67,186.50 L222.83,186.67 L224.33,186.83 L224.50,187.00 L226.33,187.00 L226.50,187.17 L228.33,187.17 L228.50,187.33 L231.33,187.33 L231.50,187.17 L259.50,187.17 L259.67,187.00 L260.33,187.00 L260.50,186.83 L261.83,186.67 L262.00,186.50 L263.33,186.33 L263.50,186.17 L266.67,186.17 L266.83,186.00 L267.67,186.00 L267.83,185.83 L269.83,185.67 L271.50,185.00 L273.33,184.83 L275.17,184.00 L278.50,183.50 L281.00,182.50 L281.50,182.50 Z M115.50,173.83 L119.67,173.83 L119.83,174.00 L120.50,174.00 L120.67,174.17 L120.83,174.17 L121.00,174.33 L121.17,174.33 L122.17,175.33 L122.33,175.33 L122.50,175.50 L122.50,175.67 L122.83,176.00 L122.83,176.17 L123.33,176.67 L123.33,176.83 L123.50,177.00 L123.50,177.17 L123.83,177.50 L123.83,177.83 L124.00,178.00 L124.00,178.33 L124.17,178.50 L124.17,178.83 L124.33,179.00 L124.33,179.33 L124.50,179.50 L124.50,183.33 L124.33,183.50 L124.33,184.17 L124.17,184.33 L124.17,184.67 L124.00,184.83 L124.00,185.33 L123.83,185.50 L123.83,185.67 L123.67,185.83 L123.67,186.00 L123.50,186.17 L123.50,186.33 L123.00,186.83 L123.00,187.00 L122.50,187.50 L122.50,187.67 L121.17,189.00 L121.00,189.00 L120.83,189.17 L118.50,189.17 L118.33,189.00 L117.67,189.00 L117.50,188.83 L117.33,188.83 L117.00,188.50 L116.83,188.50 L116.67,188.33 L116.50,188.33 L116.33,188.17 L116.17,188.17 L116.00,188.00 L115.83,188.00 L115.67,187.83 L115.50,187.83 L114.00,186.33 L113.83,186.33 L112.83,185.33 L112.83,184.83 L112.67,184.67 L112.67,184.50 L112.50,184.33 L112.50,184.17 L112.33,184.00 L112.33,183.83 L112.00,183.50 L112.00,183.17 L111.83,183.00 L111.83,178.67 L112.00,178.50 L112.00,178.33 L112.17,178.17 L112.17,177.83 L112.33,177.67 L112.33,177.50 L112.50,177.33 L112.50,177.17 L112.67,177.00 L112.67,176.83 L112.83,176.67 L112.83,176.50 L113.33,176.00 L113.33,175.83 L113.83,175.33 L113.83,175.17 L114.83,174.17 L115.00,174.17 L115.17,174.00 L115.33,174.00 Z M14.00,171.83 L15.50,171.33 L38.50,184.67 L84.50,207.83 L99.50,214.33 L120.00,221.67 L134.67,225.50 L148.17,227.83 L157.00,227.83 L164.67,228.67 L188.00,228.83 L201.33,230.67 L203.00,231.67 L208.50,232.67 L213.83,234.67 L230.33,242.67 L243.67,250.17 L257.00,255.17 L267.67,257.17 L279.00,257.17 L290.00,255.00 L294.17,253.67 L300.17,250.67 L301.00,251.50 L300.83,257.67 L299.17,261.17 L296.33,264.33 L287.17,269.00 L279.50,270.33 L267.67,270.33 L256.67,268.17 L248.67,265.33 L241.83,262.17 L222.67,250.83 L210.17,245.17 L195.00,242.33 L181.33,242.00 L178.50,241.33 L154.67,241.17 L133.50,238.50 L120.33,235.17 L118.33,234.00 L112.83,232.67 L110.33,231.17 L102.83,228.83 L95.00,225.00 L88.83,222.83 L62.00,209.67 L23.67,189.17 L16.67,184.67 L14.83,182.67 L14.00,179.33 Z M14.17,158.00 L16.83,154.50 L22.83,151.83 L24.50,152.33 L30.67,157.00 L40.17,157.33 L46.17,154.33 L49.50,150.33 L50.67,150.00 L53.67,152.17 L61.00,154.67 L60.17,157.17 L55.50,164.67 L54.17,170.00 L57.50,174.17 L68.67,182.33 L80.17,188.83 L91.50,192.67 L100.83,194.83 L119.67,196.67 L138.50,195.83 L157.17,192.00 L175.17,184.83 L194.83,172.50 L195.50,173.50 L194.83,187.00 L196.17,190.83 L196.33,200.17 L197.33,205.33 L199.17,209.00 L203.33,214.17 L211.67,220.50 L229.67,225.67 L246.83,226.17 L255.83,225.83 L262.83,224.50 L272.33,221.00 L280.33,215.33 L285.83,208.17 L288.17,200.83 L289.67,200.50 L295.50,203.83 L300.00,209.67 L299.50,213.17 L292.17,220.00 L291.17,221.83 L291.17,224.17 L292.17,226.50 L300.50,233.83 L301.00,238.67 L297.17,243.50 L288.00,248.17 L278.67,249.67 L263.50,248.83 L254.67,246.67 L241.00,240.33 L224.33,230.83 L209.17,224.83 L186.17,221.33 L153.67,220.67 L144.67,219.67 L123.50,215.00 L94.00,203.83 L55.67,185.00 L26.50,169.33 L18.83,164.50 L15.00,160.67 Z M202.67,169.33 L202.83,169.17 L203.00,167.50 L203.83,166.00 L203.83,165.50 L204.67,164.00 L204.67,163.67 L206.17,160.83 L209.00,156.67 L213.83,151.83 L215.67,150.33 L216.17,150.17 L218.67,148.33 L219.00,148.33 L220.67,147.33 L221.17,147.33 L222.50,146.50 L223.33,146.33 L224.33,145.67 L226.17,145.33 L227.83,144.50 L228.33,144.50 L230.50,143.67 L233.00,143.33 L234.83,142.50 L236.33,142.33 L237.67,142.67 L238.50,143.67 L238.83,147.50 L239.67,150.00 L240.17,150.83 L241.00,151.33 L243.67,151.33 L244.50,151.00 L245.33,150.00 L245.67,147.83 L246.33,146.17 L246.50,143.50 L247.33,142.67 L251.00,142.67 L254.17,143.50 L256.00,144.33 L257.17,144.50 L258.83,145.33 L259.83,145.50 L260.83,146.17 L264.17,147.50 L267.17,149.17 L271.17,152.17 L275.00,156.00 L277.17,158.83 L278.33,161.00 L279.00,161.83 L279.00,162.17 L281.00,165.50 L281.33,167.00 L281.67,167.50 L282.00,168.83 L282.17,171.50 L281.83,172.50 L281.00,173.33 L278.17,175.17 L273.67,177.00 L271.50,177.33 L270.00,178.00 L268.50,178.17 L266.00,179.00 L256.33,179.33 L256.17,179.50 L255.00,179.50 L254.83,179.67 L252.33,179.83 L252.17,180.00 L233.67,180.17 L233.50,180.00 L229.33,179.83 L227.50,179.17 L223.67,179.17 L223.50,179.00 L220.50,179.00 L220.33,178.83 L217.83,178.67 L215.83,178.17 L213.67,178.00 L212.00,177.33 L210.00,176.83 L209.17,176.33 L207.67,176.00 L206.33,175.17 L205.50,175.00 L203.67,173.50 L202.83,172.33 Z M33.67,133.67 L34.17,133.67 L34.33,133.50 L35.17,133.50 L35.33,133.33 L37.83,133.33 L38.00,133.50 L38.67,133.50 L38.83,133.67 L39.33,133.67 L39.67,134.00 L39.83,134.00 L40.17,134.33 L40.33,134.33 L40.67,134.67 L40.83,134.67 L41.50,135.33 L41.67,135.33 L43.33,137.00 L43.33,137.17 L43.50,137.33 L43.50,137.50 L43.67,137.67 L43.67,138.17 L43.83,138.33 L43.83,138.67 L44.00,138.83 L44.00,139.33 L44.17,139.50 L44.17,140.33 L44.33,140.50 L44.33,144.33 L44.17,144.50 L44.17,144.83 L44.00,145.00 L44.00,145.33 L43.67,145.67 L43.67,146.00 L43.50,146.17 L43.50,146.33 L43.17,146.67 L43.17,146.83 L42.33,147.67 L42.33,147.83 L42.00,148.17 L41.83,148.17 L40.50,149.50 L40.33,149.50 L40.17,149.67 L40.00,149.67 L39.83,149.83 L39.50,149.83 L39.33,150.00 L38.83,150.00 L38.67,150.17 L35.67,150.17 L35.50,150.00 L34.67,150.00 L34.50,149.83 L33.67,149.83 L33.50,149.67 L33.17,149.67 L33.00,149.50 L32.83,149.50 L32.67,149.33 L32.50,149.33 L32.00,148.83 L31.83,148.83 L31.50,148.50 L31.33,148.50 L31.00,148.17 L30.83,148.17 L30.33,147.67 L30.17,147.67 L29.17,146.67 L29.17,146.50 L28.83,146.17 L28.83,146.00 L28.67,145.83 L28.67,145.50 L28.50,145.33 L28.50,144.83 L28.33,144.67 L28.33,144.00 L28.17,143.83 L28.17,141.00 L28.33,140.83 L28.33,139.83 L28.50,139.67 L28.50,139.17 L28.67,139.00 L28.67,138.67 L28.83,138.50 L28.83,138.33 L29.00,138.17 L29.00,138.00 L29.17,137.83 L29.17,137.67 L29.67,137.17 L29.67,137.00 L30.50,136.17 L30.50,136.00 L31.17,135.33 L31.33,135.33 L32.00,134.67 L32.17,134.67 L32.50,134.33 L32.67,134.33 L33.00,134.00 L33.17,134.00 L33.33,133.83 L33.50,133.83 Z M61.50,130.50 L63.00,130.50 L63.17,130.67 L63.50,130.67 L63.67,130.83 L64.17,130.83 L64.33,131.00 L64.50,131.00 L64.67,131.17 L64.83,131.17 L65.00,131.33 L65.17,131.33 L65.83,132.00 L66.00,132.00 L66.67,132.67 L66.83,132.67 L67.67,133.50 L67.67,133.67 L68.33,134.33 L68.33,134.50 L68.67,134.83 L68.67,135.00 L69.00,135.33 L69.00,135.50 L69.17,135.67 L69.17,136.83 L69.33,137.00 L69.33,140.00 L69.17,140.17 L69.17,141.00 L69.00,141.17 L69.00,141.33 L68.83,141.50 L68.83,141.67 L68.67,141.83 L68.67,142.00 L68.50,142.17 L68.50,142.33 L68.17,142.67 L68.17,142.83 L68.00,143.00 L68.00,143.17 L66.33,144.83 L66.17,144.83 L65.83,145.17 L65.67,145.17 L65.33,145.50 L65.00,145.50 L64.83,145.67 L64.50,145.67 L64.33,145.83 L64.17,145.83 L64.00,146.00 L63.67,146.00 L63.33,146.33 L63.00,146.33 L62.83,146.50 L60.50,146.50 L60.33,146.33 L59.67,146.33 L59.50,146.17 L59.33,146.17 L59.17,146.00 L58.83,146.00 L58.67,145.83 L58.33,145.83 L58.17,145.67 L57.83,145.67 L57.67,145.50 L57.33,145.50 L57.17,145.33 L57.00,145.33 L56.83,145.17 L56.67,145.17 L56.00,144.50 L55.83,144.50 L54.50,143.17 L54.50,142.83 L54.33,142.67 L54.33,142.50 L54.17,142.33 L54.17,142.00 L54.00,141.83 L54.00,141.50 L53.83,141.33 L53.83,141.00 L53.67,140.83 L53.67,140.00 L53.50,139.83 L53.50,138.83 L53.67,138.67 L53.67,138.17 L53.83,138.00 L53.83,137.67 L54.00,137.50 L54.00,137.17 L54.17,137.00 L54.17,136.67 L54.33,136.50 L54.33,136.33 L54.50,136.17 L54.50,136.00 L54.67,135.83 L54.67,135.67 L55.00,135.33 L55.00,135.17 L55.17,135.00 L55.17,134.83 L55.33,134.67 L55.33,134.50 L55.67,134.17 L55.67,134.00 L56.00,133.67 L56.00,133.50 L57.17,132.33 L57.33,132.33 L57.83,131.83 L58.00,131.83 L58.33,131.50 L58.50,131.50 L58.67,131.33 L59.17,131.33 L59.33,131.17 L60.00,131.17 L60.17,131.00 L60.50,131.00 L60.67,130.83 L61.00,130.83 L61.17,130.67 L61.33,130.67 Z M30.50,112.83 L30.67,113.00 L30.83,113.00 L31.17,113.33 L31.33,113.33 L31.83,113.83 L32.00,113.83 L33.83,115.67 L33.83,115.83 L34.67,116.67 L34.67,116.83 L34.83,117.00 L34.83,117.17 L35.00,117.33 L35.00,117.50 L35.17,117.67 L35.17,118.00 L35.33,118.17 L35.33,119.67 L35.50,119.83 L35.50,120.17 L35.33,120.33 L35.33,121.50 L35.17,121.67 L35.17,122.33 L35.00,122.50 L35.00,122.83 L34.83,123.00 L34.83,123.33 L34.67,123.50 L34.67,123.67 L34.50,123.83 L34.50,124.00 L33.67,124.83 L33.67,125.00 L33.50,125.17 L33.50,125.33 L33.33,125.50 L33.17,125.50 L32.17,126.50 L32.00,126.50 L31.83,126.67 L31.67,126.67 L31.33,127.00 L31.17,127.00 L30.83,127.33 L30.67,127.33 L30.50,127.50 L30.33,127.50 L30.17,127.67 L29.83,127.67 L29.67,127.83 L29.33,127.83 L29.17,128.00 L28.50,128.00 L28.33,128.17 L26.83,128.17 L26.67,128.00 L26.00,128.00 L25.83,127.83 L25.50,127.83 L25.33,127.67 L25.00,127.67 L24.83,127.50 L24.67,127.50 L24.17,127.00 L23.83,127.00 L23.67,126.83 L23.50,126.83 L23.17,126.50 L23.00,126.50 L22.50,126.00 L22.33,126.00 L21.17,124.83 L21.17,124.67 L20.67,124.17 L20.67,123.83 L20.50,123.67 L20.50,123.50 L20.17,123.17 L20.17,123.00 L20.00,122.83 L20.00,122.50 L19.83,122.33 L19.83,120.83 L19.67,120.67 L19.67,119.83 L19.83,119.67 L19.83,118.17 L20.00,118.00 L20.00,117.67 L20.33,117.33 L20.33,117.17 L20.50,117.00 L20.50,116.83 L21.17,116.17 L21.17,116.00 L22.67,114.50 L22.83,114.50 L23.50,113.83 L23.67,113.83 L23.83,113.67 L24.00,113.67 L24.17,113.50 L24.33,113.50 L24.50,113.33 L24.67,113.33 L25.00,113.00 L25.33,113.00 L25.50,112.83 L28.83,112.83 L29.00,112.67 L29.17,112.83 Z M51.50,112.67 L51.67,112.83 L52.17,112.83 L52.33,113.00 L52.50,113.00 L52.83,113.33 L53.00,113.33 L53.17,113.50 L53.33,113.50 L53.67,113.83 L53.83,113.83 L54.33,114.33 L54.50,114.33 L55.50,115.33 L55.50,115.50 L55.83,115.83 L55.83,116.00 L56.00,116.17 L56.00,116.33 L56.33,116.67 L56.33,117.17 L56.50,117.33 L56.50,118.00 L56.67,118.17 L56.67,121.33 L56.50,121.50 L56.50,122.33 L56.33,122.50 L56.33,122.67 L56.17,122.83 L56.17,123.17 L55.50,123.83 L55.50,124.00 L54.00,125.50 L53.83,125.50 L53.00,126.33 L52.83,126.33 L51.83,127.33 L51.67,127.33 L50.83,128.17 L50.67,128.17 L49.50,129.33 L49.33,129.33 L49.17,129.50 L48.50,129.50 L48.33,129.67 L47.83,129.67 L47.67,129.50 L47.33,129.50 L47.17,129.33 L47.00,129.33 L46.83,129.17 L46.67,129.17 L46.50,129.00 L46.33,129.00 L46.00,128.67 L45.83,128.67 L45.50,128.33 L45.33,128.33 L44.67,127.67 L44.50,127.67 L43.33,126.50 L43.33,126.33 L43.17,126.17 L43.17,126.00 L43.00,125.83 L43.00,125.50 L42.83,125.33 L42.83,124.67 L42.67,124.50 L42.67,116.67 L42.83,116.50 L42.83,116.33 L43.00,116.17 L43.00,116.00 L43.17,115.83 L43.17,115.67 L43.33,115.50 L43.33,115.33 L44.83,113.83 L45.00,113.83 L45.50,113.33 L45.67,113.33 L46.00,113.00 L46.17,113.00 L46.33,112.83 L46.67,112.83 L46.83,112.67 L48.00,112.67 L48.17,112.50 L50.17,112.50 L50.33,112.67 Z M70.83,109.67 L74.00,109.67 L74.17,109.83 L74.67,109.83 L74.83,110.00 L75.17,110.00 L75.50,110.33 L75.67,110.33 L76.00,110.67 L76.17,110.67 L76.33,110.83 L76.50,110.83 L76.83,111.17 L77.00,111.17 L77.50,111.67 L77.67,111.67 L79.00,113.00 L79.00,113.17 L79.17,113.33 L79.17,113.50 L79.33,113.67 L79.33,114.33 L79.67,114.67 L79.67,114.83 L79.83,115.00 L79.83,115.17 L80.00,115.33 L80.00,119.50 L79.83,119.67 L79.83,120.33 L79.67,120.50 L79.67,120.83 L79.50,121.00 L79.50,121.33 L79.17,121.67 L79.17,121.83 L79.00,122.00 L79.00,122.17 L78.17,123.00 L78.17,123.17 L77.83,123.50 L77.67,123.50 L76.83,124.33 L76.67,124.33 L76.17,124.83 L75.83,124.83 L75.67,125.00 L75.33,125.00 L75.17,125.17 L75.00,125.17 L74.83,125.33 L74.50,125.33 L74.33,125.50 L73.50,125.50 L73.33,125.67 L72.50,125.67 L72.33,125.50 L71.17,125.50 L71.00,125.33 L70.67,125.33 L70.50,125.17 L70.17,125.17 L70.00,125.00 L69.50,125.00 L69.33,124.83 L69.17,124.83 L69.00,124.67 L68.83,124.67 L68.67,124.50 L68.50,124.50 L67.83,123.83 L67.67,123.83 L67.00,123.17 L67.00,123.00 L66.17,122.17 L66.17,122.00 L65.67,121.50 L65.67,121.33 L65.33,121.00 L65.33,120.67 L65.17,120.50 L65.17,120.17 L65.00,120.00 L65.00,119.33 L64.83,119.17 L64.83,118.50 L64.67,118.33 L64.67,117.00 L64.50,116.83 L64.50,116.17 L64.67,116.00 L64.67,115.50 L64.83,115.33 L64.83,115.00 L65.00,114.83 L65.00,114.50 L65.33,114.17 L65.33,114.00 L66.17,113.17 L66.17,113.00 L68.00,111.17 L68.17,111.17 L68.50,110.83 L68.67,110.83 L68.83,110.67 L69.00,110.67 L69.33,110.33 L69.50,110.33 L69.83,110.00 L70.17,110.00 L70.33,109.83 L70.67,109.83 Z M241.33,109.00 L242.50,109.00 L242.67,109.17 L243.00,109.17 L243.17,109.33 L243.33,109.33 L243.50,109.50 L243.67,109.50 L243.83,109.67 L244.17,109.67 L244.33,109.83 L244.50,109.83 L244.67,110.00 L244.83,110.00 L245.00,110.17 L245.17,110.17 L246.00,111.00 L246.17,111.00 L246.50,111.33 L246.50,111.50 L246.83,111.83 L246.83,112.00 L247.00,112.17 L247.00,112.33 L247.17,112.50 L247.17,112.67 L247.33,112.83 L247.33,115.17 L247.17,115.33 L247.17,115.83 L247.00,116.00 L247.00,116.33 L246.67,116.67 L246.67,116.83 L246.50,117.00 L246.50,117.17 L246.00,117.67 L245.83,117.67 L245.50,118.00 L245.33,118.00 L245.17,118.17 L245.00,118.17 L244.83,118.33 L244.67,118.33 L244.50,118.50 L244.33,118.50 L244.17,118.67 L243.83,118.67 L243.67,118.83 L241.67,118.83 L241.50,118.67 L241.33,118.67 L241.17,118.50 L241.00,118.50 L240.83,118.33 L240.67,118.33 L240.50,118.17 L240.33,118.17 L239.83,117.67 L239.67,117.67 L239.33,117.33 L239.33,117.17 L238.83,116.67 L238.83,116.50 L238.50,116.17 L238.50,115.83 L238.33,115.67 L238.33,115.33 L238.17,115.17 L238.17,112.33 L238.33,112.17 L238.33,111.50 L238.67,111.17 L238.67,111.00 L239.50,110.17 L239.67,110.17 L240.00,109.83 L240.17,109.83 L240.67,109.33 L240.83,109.33 L241.00,109.17 L241.17,109.17 Z M34.67,93.00 L35.00,93.00 L35.17,92.83 L35.50,92.83 L35.67,92.67 L36.17,92.67 L36.33,92.50 L37.50,92.50 L37.67,92.33 L38.00,92.33 L38.17,92.50 L38.50,92.50 L38.67,92.33 L39.33,92.33 L39.50,92.50 L40.50,92.50 L40.67,92.67 L41.17,92.67 L41.33,92.83 L41.50,92.83 L41.67,93.00 L41.83,93.00 L42.00,93.17 L42.17,93.17 L42.83,93.83 L42.83,94.00 L43.67,94.83 L43.67,95.00 L44.67,96.00 L44.67,96.17 L45.33,96.83 L45.33,97.00 L45.50,97.17 L45.50,97.33 L45.67,97.50 L45.67,98.17 L45.83,98.33 L45.83,99.33 L46.00,99.50 L46.00,100.33 L45.83,100.50 L45.83,102.00 L45.67,102.17 L45.67,102.67 L45.50,102.83 L45.50,103.17 L45.33,103.33 L45.33,103.50 L45.17,103.67 L45.17,103.83 L45.00,104.00 L45.00,104.17 L44.50,104.67 L44.50,104.83 L43.00,106.33 L42.83,106.33 L42.33,106.83 L42.00,106.83 L41.83,107.00 L41.33,107.00 L41.17,107.17 L39.17,107.17 L39.00,107.33 L37.83,107.33 L37.67,107.50 L35.50,107.50 L35.33,107.33 L34.83,107.33 L34.67,107.17 L34.33,107.17 L34.17,107.00 L33.83,107.00 L33.67,106.83 L33.50,106.83 L32.83,106.17 L32.67,106.17 L31.50,105.00 L31.50,104.83 L31.00,104.33 L31.00,104.17 L30.83,104.00 L30.83,103.67 L30.67,103.50 L30.67,102.67 L30.50,102.50 L30.50,98.67 L30.67,98.50 L30.67,97.67 L30.83,97.50 L30.83,97.17 L31.00,97.00 L31.00,96.83 L31.17,96.67 L31.17,96.50 L31.50,96.17 L31.50,96.00 L31.67,95.83 L31.67,95.67 L32.17,95.17 L32.17,95.00 L33.17,94.00 L33.33,94.00 L33.67,93.67 L33.83,93.67 L34.00,93.50 L34.17,93.50 Z M78.83,91.00 L79.33,91.00 L79.50,90.83 L80.17,90.83 L80.33,90.67 L80.67,90.67 L80.83,90.50 L82.67,90.50 L82.83,90.33 L83.00,90.33 L83.17,90.50 L84.00,90.50 L84.17,90.67 L84.67,90.67 L84.83,90.83 L85.33,90.83 L85.50,91.00 L86.00,91.00 L86.17,91.17 L86.33,91.17 L86.83,91.67 L87.00,91.67 L87.50,92.17 L87.67,92.17 L89.33,93.83 L89.33,94.00 L89.67,94.33 L89.67,94.50 L89.83,94.67 L89.83,95.00 L90.00,95.17 L90.00,98.33 L89.83,98.50 L89.83,98.67 L89.67,98.83 L89.67,99.00 L89.50,99.17 L89.50,99.33 L89.33,99.50 L89.33,99.67 L89.17,99.83 L89.17,100.17 L89.00,100.33 L89.00,100.67 L88.83,100.83 L88.83,101.17 L88.50,101.50 L88.50,101.67 L88.33,101.83 L88.33,102.00 L88.17,102.17 L88.17,102.50 L88.00,102.67 L88.00,103.00 L87.83,103.17 L87.83,103.33 L87.50,103.67 L87.50,103.83 L87.17,104.17 L87.17,104.33 L87.00,104.50 L87.00,104.83 L86.83,105.00 L86.83,105.17 L86.50,105.50 L86.50,105.67 L86.33,105.83 L86.33,106.00 L86.17,106.17 L86.17,106.33 L85.50,107.00 L85.33,107.00 L85.17,107.17 L84.17,107.17 L84.00,107.00 L83.67,107.00 L83.17,106.50 L83.00,106.50 L82.33,105.83 L82.17,105.83 L81.67,105.33 L81.50,105.33 L81.17,105.00 L80.83,105.00 L80.67,104.83 L80.50,104.83 L80.33,104.67 L80.17,104.67 L80.00,104.50 L79.83,104.50 L79.67,104.33 L79.50,104.33 L79.33,104.17 L79.17,104.17 L79.00,104.00 L78.50,104.00 L78.33,103.83 L78.17,103.83 L78.00,103.67 L77.83,103.67 L77.50,103.33 L77.33,103.33 L77.17,103.17 L76.83,103.17 L76.67,103.00 L76.50,103.00 L76.33,102.83 L76.17,102.83 L75.33,102.00 L75.33,101.83 L75.17,101.67 L75.17,101.50 L75.00,101.33 L75.00,100.50 L74.83,100.33 L74.83,97.67 L75.00,97.50 L75.00,96.17 L75.17,96.00 L75.17,95.50 L75.33,95.33 L75.33,95.17 L75.50,95.00 L75.50,94.83 L75.67,94.67 L75.67,94.50 L76.00,94.17 L76.00,93.83 L76.17,93.67 L76.17,93.50 L78.50,91.17 L78.67,91.17 Z M55.67,89.50 L58.17,89.50 L58.33,89.67 L59.50,89.67 L59.67,89.83 L61.00,89.83 L61.17,90.00 L61.50,90.00 L61.67,90.17 L61.83,90.17 L62.00,90.33 L62.17,90.33 L62.50,90.67 L62.67,90.67 L62.83,90.83 L63.00,90.83 L63.50,91.33 L63.67,91.33 L65.17,92.83 L65.17,93.00 L65.50,93.33 L65.50,93.50 L65.67,93.67 L65.67,93.83 L65.83,94.00 L65.83,94.17 L66.17,94.50 L66.17,94.83 L66.33,95.00 L66.33,95.50 L66.50,95.67 L66.50,96.17 L66.67,96.33 L66.67,97.83 L66.83,98.00 L66.67,98.17 L66.67,99.17 L66.50,99.33 L66.50,100.00 L66.33,100.17 L66.33,100.50 L66.00,100.83 L66.00,101.00 L65.33,101.67 L65.33,101.83 L64.50,102.67 L64.50,102.83 L62.83,104.50 L62.67,104.50 L62.17,105.00 L61.83,105.00 L61.67,105.17 L61.33,105.17 L61.17,105.33 L60.50,105.33 L60.33,105.50 L56.50,105.50 L56.33,105.33 L55.83,105.33 L55.67,105.17 L55.33,105.17 L55.17,105.00 L55.00,105.00 L54.83,104.83 L54.67,104.83 L54.33,104.50 L54.17,104.50 L53.67,104.00 L53.67,103.83 L53.33,103.50 L53.33,102.33 L53.17,102.17 L53.17,97.83 L53.00,97.67 L53.00,96.67 L52.83,96.50 L52.83,95.83 L52.67,95.67 L52.67,95.33 L52.50,95.17 L52.50,94.67 L52.33,94.50 L52.33,94.17 L52.17,94.00 L52.17,92.67 L52.33,92.50 L52.33,92.33 L52.50,92.17 L52.50,92.00 L53.67,90.83 L53.83,90.83 L54.33,90.33 L54.50,90.33 L54.83,90.00 L55.00,90.00 L55.33,89.67 L55.50,89.67 Z M131.00,83.00 L131.17,83.17 L131.33,83.17 L131.50,83.33 L131.67,83.33 L132.00,83.67 L132.17,83.67 L133.67,85.17 L133.67,85.33 L134.00,85.67 L134.00,85.83 L134.17,86.00 L134.17,86.17 L134.50,86.50 L134.50,86.67 L134.67,86.83 L134.67,87.17 L134.83,87.33 L134.83,87.67 L135.00,87.83 L135.00,92.00 L134.83,92.17 L134.83,93.17 L134.67,93.33 L134.67,94.17 L134.50,94.33 L134.50,94.83 L134.33,95.00 L134.33,95.17 L134.17,95.33 L134.17,95.50 L134.00,95.67 L134.00,96.00 L133.83,96.17 L133.83,96.67 L133.67,96.83 L133.67,97.33 L133.33,97.67 L133.33,97.83 L133.17,98.00 L133.17,98.17 L132.83,98.50 L132.83,98.83 L132.67,99.00 L132.67,99.17 L132.50,99.33 L132.50,99.50 L132.00,100.00 L132.00,100.17 L131.83,100.33 L131.83,100.50 L131.67,100.67 L131.67,100.83 L131.50,101.00 L131.50,101.17 L131.00,101.67 L131.00,101.83 L130.67,102.17 L130.67,102.33 L130.00,103.00 L130.00,103.17 L128.17,105.00 L128.00,105.00 L127.67,105.33 L127.50,105.33 L127.17,105.67 L127.00,105.67 L126.83,105.83 L126.67,105.83 L126.33,106.17 L126.00,106.17 L125.83,106.33 L125.33,106.33 L125.17,106.50 L121.17,106.50 L121.00,106.33 L120.50,106.33 L120.17,106.00 L120.00,106.00 L118.67,104.67 L118.67,104.50 L118.33,104.17 L118.33,104.00 L118.17,103.83 L118.17,103.67 L117.83,103.33 L117.83,102.50 L117.67,102.33 L117.67,101.50 L117.50,101.33 L117.50,99.33 L117.33,99.17 L117.33,98.33 L117.50,98.17 L117.50,96.33 L117.67,96.17 L117.67,95.17 L117.83,95.00 L117.83,94.17 L118.00,94.00 L118.00,93.67 L118.17,93.50 L118.17,93.33 L118.33,93.17 L118.33,93.00 L118.50,92.83 L118.50,92.67 L118.67,92.50 L118.67,92.17 L118.83,92.00 L118.83,91.67 L119.33,91.17 L119.33,91.00 L119.50,90.83 L119.50,90.67 L119.67,90.50 L119.67,90.33 L119.83,90.17 L119.83,90.00 L120.00,89.83 L120.00,89.67 L120.50,89.17 L120.50,89.00 L120.67,88.83 L120.67,88.67 L121.00,88.33 L121.00,88.17 L121.67,87.50 L121.67,87.33 L125.00,84.00 L125.17,84.00 L125.83,83.33 L126.00,83.33 L126.17,83.17 L126.33,83.17 L126.50,83.00 L126.67,83.00 L126.83,82.83 L127.33,82.83 L127.50,82.67 L128.17,82.67 L128.33,82.50 L129.33,82.50 L129.50,82.67 L130.00,82.67 L130.17,82.83 L130.33,82.83 L130.50,83.00 Z M69.83,73.17 L72.17,73.17 L72.33,73.33 L72.50,73.33 L72.67,73.50 L72.83,73.50 L73.00,73.67 L73.33,73.67 L73.50,73.83 L73.67,73.83 L73.83,74.00 L74.17,74.00 L74.50,74.33 L74.67,74.33 L75.00,74.67 L75.17,74.67 L75.83,75.33 L76.00,75.33 L77.17,76.50 L77.17,76.67 L77.50,77.00 L77.50,77.17 L77.83,77.50 L77.83,77.67 L78.00,77.83 L78.00,78.00 L78.17,78.17 L78.17,78.50 L78.33,78.67 L78.33,78.83 L78.50,79.00 L78.50,79.33 L78.67,79.50 L78.67,79.67 L78.83,79.83 L78.83,80.17 L79.00,80.33 L79.00,82.50 L78.50,83.00 L78.50,83.17 L78.00,83.67 L77.83,83.67 L77.33,84.17 L77.17,84.17 L77.00,84.33 L76.83,84.33 L76.67,84.50 L76.50,84.50 L76.33,84.67 L76.17,84.67 L76.00,84.83 L75.67,84.83 L75.50,85.00 L75.17,85.00 L75.00,85.17 L74.50,85.17 L74.33,85.33 L74.17,85.33 L74.00,85.50 L73.83,85.50 L73.33,86.00 L73.17,86.00 L73.00,86.17 L72.83,86.17 L72.67,86.33 L72.50,86.33 L71.83,87.00 L71.67,87.00 L71.50,87.17 L70.67,87.17 L70.50,87.00 L70.33,87.00 L70.00,86.67 L69.83,86.67 L69.17,86.00 L69.00,86.00 L68.33,85.33 L68.17,85.33 L67.83,85.00 L67.67,85.00 L67.17,84.50 L67.00,84.50 L66.83,84.33 L66.67,84.33 L66.33,84.00 L66.17,84.00 L66.00,83.83 L65.83,83.83 L65.67,83.67 L65.50,83.67 L65.17,83.33 L64.83,83.33 L64.67,83.17 L64.50,83.17 L64.33,83.00 L64.17,83.00 L64.00,82.83 L63.83,82.83 L63.67,82.67 L63.50,82.67 L63.17,82.33 L63.00,82.33 L62.83,82.17 L62.67,82.17 L62.33,81.83 L62.33,81.67 L62.17,81.50 L62.17,80.67 L62.33,80.50 L62.33,80.17 L62.50,80.00 L62.50,79.83 L62.67,79.67 L62.67,79.50 L62.83,79.33 L62.83,79.17 L63.00,79.00 L63.00,78.67 L63.17,78.50 L63.17,78.33 L63.33,78.17 L63.33,78.00 L63.50,77.83 L63.50,77.67 L64.17,77.00 L64.17,76.83 L64.33,76.67 L64.33,76.50 L65.67,75.17 L65.83,75.17 L66.67,74.33 L66.83,74.33 L67.00,74.17 L67.17,74.17 L67.33,74.00 L67.67,74.00 L67.83,73.83 L68.17,73.83 L68.33,73.67 L68.50,73.67 L68.67,73.50 L69.00,73.50 L69.17,73.33 L69.67,73.33 Z M37.00,65.50 L38.00,65.50 L38.17,65.67 L38.33,65.67 L38.50,65.83 L38.67,65.83 L38.83,66.00 L39.17,66.00 L39.33,66.17 L39.50,66.17 L39.67,66.33 L40.00,66.33 L40.33,66.67 L40.50,66.67 L40.83,67.00 L41.17,67.00 L41.50,67.33 L41.67,67.33 L41.83,67.50 L42.00,67.50 L42.17,67.67 L42.33,67.67 L42.83,68.17 L43.00,68.17 L43.17,68.33 L43.33,68.33 L44.00,69.00 L44.17,69.00 L44.67,69.50 L44.83,69.50 L45.67,70.33 L45.83,70.33 L47.00,71.50 L47.17,71.50 L48.00,72.33 L48.17,72.33 L50.17,74.33 L50.33,74.33 L50.50,74.50 L50.50,74.67 L51.50,75.67 L51.50,75.83 L52.17,76.50 L52.17,76.67 L52.33,76.83 L52.33,77.00 L52.50,77.17 L52.50,77.33 L52.83,77.67 L52.83,77.83 L53.00,78.00 L53.00,78.17 L53.33,78.50 L53.33,78.83 L53.50,79.00 L53.50,79.50 L53.67,79.67 L53.67,80.17 L53.83,80.33 L53.83,80.67 L54.00,80.83 L54.00,81.67 L53.83,81.83 L53.83,82.00 L53.00,82.83 L52.83,82.83 L52.67,83.00 L52.50,83.00 L52.17,83.33 L52.00,83.33 L51.83,83.50 L51.67,83.50 L51.33,83.83 L51.17,83.83 L51.00,84.00 L50.83,84.00 L50.67,84.17 L50.50,84.17 L50.17,84.50 L50.00,84.50 L49.83,84.67 L49.67,84.67 L49.33,85.00 L49.17,85.00 L49.00,85.17 L48.67,85.17 L48.33,85.50 L48.17,85.50 L48.00,85.67 L47.83,85.67 L47.67,85.83 L47.50,85.83 L47.33,86.00 L46.50,86.00 L46.33,86.17 L44.33,86.17 L44.17,86.00 L43.67,86.00 L43.33,85.67 L43.17,85.67 L42.83,85.33 L42.67,85.33 L42.17,84.83 L42.00,84.83 L40.17,83.00 L40.17,82.83 L39.33,82.00 L39.33,81.83 L38.83,81.33 L38.83,81.17 L38.67,81.00 L38.67,80.83 L38.50,80.67 L38.50,80.50 L38.33,80.33 L38.33,80.00 L38.00,79.67 L38.00,79.50 L37.83,79.33 L37.83,79.17 L37.67,79.00 L37.67,78.67 L37.50,78.50 L37.50,78.17 L37.33,78.00 L37.33,77.50 L37.17,77.33 L37.17,77.17 L37.00,77.00 L37.00,76.67 L36.83,76.50 L36.83,76.00 L36.67,75.83 L36.67,74.67 L36.50,74.50 L36.50,72.83 L36.33,72.67 L36.33,66.50 L36.50,66.33 L36.50,66.17 L36.67,66.00 L36.67,65.83 Z M143.17,60.83 L144.50,62.50 L149.67,74.00 L153.33,81.00 L155.50,86.33 L158.67,92.50 L159.17,94.33 L160.33,95.83 L163.50,103.67 L165.00,105.67 L174.33,125.50 L185.17,146.67 L187.33,151.83 L189.17,154.50 L193.00,162.00 L193.00,163.50 L190.83,166.17 L183.67,171.17 L174.00,177.00 L165.50,181.17 L152.00,186.00 L144.50,187.00 L141.83,188.00 L133.33,188.83 L131.67,188.67 L131.17,188.00 L131.67,186.00 L131.67,178.50 L131.33,176.67 L129.50,172.67 L128.17,171.17 L123.50,167.67 L121.17,166.83 L118.33,166.50 L114.83,166.83 L112.33,167.67 L109.67,169.67 L106.00,173.67 L105.00,175.50 L104.67,177.33 L104.67,183.33 L105.17,187.00 L104.50,187.83 L99.00,186.83 L97.33,186.00 L95.67,186.00 L91.00,185.00 L90.00,184.17 L89.67,183.33 L89.83,181.67 L91.00,178.67 L92.83,175.17 L102.00,153.33 L102.83,152.17 L105.83,144.50 L108.50,139.17 L108.83,137.67 L111.67,132.17 L114.67,124.50 L116.67,121.00 L119.00,115.50 L120.67,114.17 L124.00,114.50 L125.50,113.67 L126.83,113.67 L129.67,112.67 L132.17,111.33 L136.17,108.00 L140.50,101.17 L142.33,94.67 L142.33,87.33 L141.33,83.50 L139.00,80.00 L136.17,77.17 L135.83,75.67 L137.50,72.67 L138.67,68.00 L140.67,62.67 L141.67,61.33 Z M135.17,51.50 L136.50,52.67 L136.67,53.50 L131.83,64.17 L130.83,67.17 L130.50,70.17 L129.67,72.17 L127.17,74.83 L121.50,77.33 L118.50,79.67 L114.83,83.67 L111.50,89.50 L110.17,95.00 L110.17,102.33 L111.00,105.33 L112.83,108.83 L112.83,111.83 L110.17,116.50 L106.83,124.33 L104.17,129.17 L104.00,130.17 L101.00,136.83 L99.83,140.33 L91.17,159.17 L83.17,178.50 L82.17,180.17 L81.50,180.67 L79.50,180.00 L74.67,177.17 L64.00,169.67 L62.83,168.33 L63.17,166.83 L65.83,161.83 L67.83,159.17 L69.50,155.50 L71.00,153.33 L74.33,146.50 L77.83,140.33 L80.00,135.50 L85.00,126.00 L85.33,124.67 L92.83,110.00 L95.83,102.83 L98.83,97.33 L100.00,94.33 L104.50,86.00 L105.00,84.50 L108.67,78.17 L112.00,71.00 L112.67,70.17 L120.83,54.17 L122.00,51.33 L123.50,49.67 L124.17,49.33 L125.83,49.33 L130.67,50.33 L132.50,51.33 Z"/>
</svg>