<svg xmlns="http://www.w3.org/2000/svg" viewBox="0 0 313 313" width="313" height="313">
<path fill="#E0BC7D" fill-rule="evenodd" d="M137.50,217.33 L137.17,217.67 L137.00,217.67 L136.83,217.83 L136.67,217.83 L136.50,218.00 L136.33,218.00 L135.17,219.17 L135.17,219.33 L135.00,219.50 L135.00,220.17 L134.83,220.33 L134.83,221.50 L134.67,221.67 L134.67,222.67 L134.83,222.83 L134.83,223.67 L135.00,223.83 L135.00,224.33 L135.17,224.50 L135.17,224.67 L135.67,225.17 L135.67,225.33 L136.50,226.17 L136.67,226.17 L137.00,226.50 L137.17,226.50 L137.33,226.67 L137.50,226.67 L137.67,226.83 L138.83,226.83 L139.00,227.00 L140.50,227.00 L140.67,226.83 L141.17,226.83 L141.50,226.50 L141.67,226.50 L142.17,226.00 L142.33,226.00 L143.33,225.00 L143.33,224.83 L143.67,224.50 L143.67,224.33 L143.83,224.17 L143.83,223.50 L144.00,223.33 L144.00,222.50 L144.17,222.33 L144.17,221.00 L144.00,220.83 L144.00,220.50 L143.83,220.33 L143.83,220.00 L143.67,219.83 L143.67,219.67 L143.50,219.50 L143.50,219.33 L142.17,218.00 L141.83,218.00 L141.67,217.83 L141.50,217.83 L141.17,217.50 L141.00,217.50 L140.83,217.33 L140.67,217.33 L140.50,217.17 L138.00,217.17 L137.83,217.33 Z M172.33,217.00 L172.17,217.17 L171.83,217.17 L171.67,217.33 L171.50,217.33 L171.00,217.83 L170.67,217.83 L170.50,218.00 L170.33,218.00 L169.17,219.17 L169.17,219.33 L169.00,219.50 L169.00,220.00 L168.83,220.17 L168.83,220.50 L168.67,220.67 L168.67,221.00 L168.50,221.17 L168.50,222.17 L168.67,222.33 L168.67,223.00 L168.83,223.17 L168.83,223.67 L169.00,223.83 L169.00,224.33 L169.17,224.50 L169.17,224.67 L170.50,226.00 L170.67,226.00 L171.00,226.33 L171.17,226.33 L171.33,226.50 L171.50,226.50 L171.67,226.67 L172.83,226.67 L173.00,226.83 L174.00,226.83 L174.17,226.67 L174.67,226.67 L174.83,226.50 L175.33,226.50 L175.83,226.00 L176.00,226.00 L176.17,225.83 L176.33,225.83 L177.83,224.33 L177.83,224.00 L178.00,223.83 L178.00,223.50 L178.17,223.33 L178.17,223.17 L178.33,223.00 L178.33,222.33 L178.50,222.17 L178.50,221.50 L178.33,221.33 L178.33,220.50 L178.17,220.33 L178.17,220.17 L178.00,220.00 L178.00,219.83 L177.83,219.67 L177.83,219.50 L177.67,219.33 L177.67,219.17 L177.50,219.00 L177.33,219.00 L176.33,218.00 L176.17,218.00 L176.00,217.83 L175.83,217.83 L175.33,217.33 L175.17,217.33 L175.00,217.17 L174.50,217.17 L174.33,217.00 Z M107.00,211.33 L106.00,211.17 L105.50,211.67 L104.50,212.17 L98.17,218.00 L96.67,219.00 L94.33,221.17 L92.67,222.17 L88.17,226.50 L81.83,232.17 L78.17,235.17 L76.33,237.00 L57.67,252.83 L53.17,257.00 L51.50,258.00 L49.17,260.33 L49.00,260.83 L48.17,261.83 L47.00,264.33 L46.83,267.00 L46.67,267.17 L47.00,270.67 L48.00,272.50 L48.00,273.00 L48.67,273.83 L48.83,274.33 L52.17,277.67 L55.83,279.83 L56.83,279.83 L57.00,280.00 L59.83,280.33 L61.00,280.00 L63.17,279.83 L64.33,279.00 L65.17,278.83 L67.50,277.17 L68.33,276.83 L71.33,274.00 L74.67,270.00 L85.83,259.00 L86.67,258.00 L87.17,257.00 L88.17,256.33 L107.00,237.33 L107.83,236.17 L107.83,235.67 L108.33,234.50 L108.00,232.33 L107.83,232.17 L107.83,230.50 L107.00,228.33 L107.00,227.33 L106.83,227.17 L106.83,224.33 L106.67,224.17 L106.83,219.67 L107.00,219.50 L107.00,218.50 L107.67,216.00 L107.67,212.67 Z M62.50,259.00 L63.17,259.00 L63.33,258.83 L65.67,258.83 L65.83,259.00 L66.17,259.00 L66.50,259.33 L66.67,259.33 L67.00,259.67 L67.17,259.67 L67.33,259.83 L67.50,259.83 L68.33,260.67 L68.33,260.83 L69.00,261.50 L69.00,262.00 L69.17,262.17 L69.17,262.50 L69.33,262.67 L69.33,262.83 L69.50,263.00 L69.50,263.33 L69.67,263.50 L69.67,263.83 L69.83,264.00 L69.83,264.83 L69.67,265.00 L69.67,265.33 L69.50,265.50 L69.50,265.67 L69.33,265.83 L69.33,266.17 L69.17,266.33 L69.17,266.50 L69.00,266.67 L69.00,267.00 L68.83,267.17 L68.83,267.33 L68.33,267.83 L68.17,267.83 L67.17,268.83 L67.00,268.83 L66.83,269.00 L66.67,269.00 L66.50,269.17 L66.33,269.17 L66.17,269.33 L65.67,269.33 L65.50,269.50 L65.33,269.50 L65.17,269.67 L63.17,269.67 L63.00,269.50 L62.50,269.50 L62.33,269.33 L62.17,269.33 L62.00,269.17 L61.67,269.17 L61.50,269.00 L61.33,269.00 L60.33,268.00 L60.17,268.00 L60.00,267.83 L60.00,267.67 L59.17,266.83 L59.17,266.67 L58.83,266.33 L58.83,265.33 L58.67,265.17 L58.67,263.33 L58.83,263.17 L58.83,262.67 L59.00,262.50 L59.00,262.33 L59.17,262.17 L59.17,262.00 L59.50,261.67 L59.50,261.50 L60.00,261.00 L60.00,260.83 L60.83,260.00 L61.00,260.00 L61.17,259.83 L61.33,259.83 L61.67,259.50 L61.83,259.50 L62.17,259.17 L62.33,259.17 Z M207.17,208.50 L206.83,209.17 L206.67,221.17 L206.50,221.33 L206.50,222.83 L206.33,223.00 L206.17,225.67 L206.00,225.83 L206.00,227.33 L205.83,227.50 L205.83,228.33 L205.33,229.67 L205.17,231.50 L205.00,231.67 L205.00,232.33 L205.33,233.00 L206.00,233.67 L206.00,234.00 L206.67,234.67 L207.00,235.33 L214.17,242.50 L216.17,244.83 L224.17,252.67 L228.00,256.83 L229.00,258.17 L231.17,260.00 L234.17,263.00 L238.00,267.33 L242.83,272.33 L247.50,276.83 L249.67,278.67 L250.83,279.00 L251.17,279.33 L252.00,279.67 L256.33,279.83 L260.00,278.83 L261.83,277.67 L265.00,274.50 L267.67,270.50 L267.67,269.33 L267.83,269.17 L267.83,264.50 L267.67,264.33 L267.67,263.50 L267.33,262.50 L266.83,261.83 L266.83,261.50 L265.33,259.50 L259.17,254.00 L256.17,251.00 L255.50,250.67 L253.17,248.33 L251.17,246.83 L249.33,245.00 L244.33,240.83 L241.50,238.00 L236.17,233.67 L233.17,230.83 L231.17,229.33 L227.33,225.50 L223.00,221.83 L220.33,219.17 L219.50,218.67 L215.50,215.33 L213.17,213.00 L208.67,209.17 L207.67,208.50 Z M40.00,74.17 L36.67,76.00 L5.33,106.50 L3.33,109.33 L2.00,112.83 L2.00,117.50 L3.17,121.33 L5.33,124.33 L13.00,131.50 L22.00,141.17 L46.00,165.00 L48.00,167.50 L72.67,191.83 L79.33,197.83 L86.17,205.00 L87.83,205.33 L89.50,204.83 L96.00,200.00 L97.00,199.67 L102.67,195.67 L103.67,194.33 L94.83,177.83 L91.00,168.17 L89.50,163.17 L88.00,162.17 L81.50,162.00 L72.83,159.83 L65.17,155.83 L59.67,152.00 L53.83,146.50 L49.00,140.50 L44.17,132.50 L41.17,125.83 L40.67,123.67 L41.00,122.50 L47.50,118.17 L53.67,114.83 L58.17,113.00 L60.33,112.67 L64.83,111.00 L71.33,109.67 L71.50,109.00 L66.83,99.83 L62.67,89.83 L59.83,85.67 L52.50,78.00 L48.83,75.17 L46.00,74.00 L41.50,73.83 Z M43.00,87.00 L43.67,87.00 L43.83,87.17 L44.50,87.17 L44.67,87.33 L45.33,87.33 L45.50,87.50 L46.17,87.50 L46.33,87.67 L46.67,87.67 L46.83,87.83 L47.17,87.83 L48.00,88.67 L48.17,88.67 L49.00,89.50 L49.00,89.67 L49.83,90.50 L49.83,90.67 L50.00,90.83 L50.00,91.17 L50.17,91.33 L50.17,91.50 L50.33,91.67 L50.33,92.00 L50.50,92.17 L50.50,92.33 L50.67,92.50 L50.67,92.67 L50.83,92.83 L50.83,94.33 L51.00,94.50 L50.83,94.67 L50.83,95.83 L50.67,96.00 L50.67,96.33 L50.50,96.50 L50.50,96.67 L50.33,96.83 L50.33,97.00 L50.17,97.17 L50.17,97.50 L50.00,97.67 L50.00,98.17 L49.50,98.67 L49.50,98.83 L49.00,99.33 L49.00,99.50 L48.33,100.17 L48.17,100.17 L47.50,100.83 L47.33,100.83 L47.17,101.00 L46.67,101.00 L46.50,101.17 L46.17,101.17 L46.00,101.33 L45.50,101.33 L45.33,101.50 L42.50,101.50 L42.33,101.33 L41.83,101.33 L41.67,101.17 L41.33,101.17 L41.17,101.00 L40.83,101.00 L40.67,100.83 L40.50,100.83 L40.00,100.33 L39.83,100.33 L39.50,100.00 L39.33,100.00 L37.67,98.33 L37.67,98.17 L37.33,97.83 L37.33,97.67 L37.00,97.33 L37.00,97.17 L36.83,97.00 L36.83,96.67 L36.67,96.50 L36.67,95.50 L36.50,95.33 L36.50,93.67 L36.67,93.50 L36.67,92.67 L36.83,92.50 L36.83,91.67 L37.00,91.50 L37.00,91.33 L37.83,90.50 L37.83,90.17 L38.00,90.00 L38.00,89.83 L38.17,89.67 L38.17,89.50 L38.67,89.00 L38.83,89.00 L39.83,88.00 L40.00,88.00 L40.17,87.83 L40.33,87.83 L40.50,87.67 L40.83,87.67 L41.00,87.50 L41.33,87.50 L41.50,87.33 L42.00,87.33 L42.17,87.17 L42.83,87.17 Z M101.67,39.00 L90.83,45.83 L80.17,56.33 L74.00,67.67 L71.67,78.83 L73.17,91.33 L79.17,103.17 L88.00,112.50 L99.33,120.50 L84.83,118.83 L71.33,119.17 L62.67,121.17 L53.33,125.33 L52.50,126.67 L56.17,135.00 L60.00,140.17 L67.33,146.83 L71.83,149.67 L77.50,152.17 L86.50,153.67 L97.83,152.17 L98.83,152.67 L99.17,162.33 L101.17,171.33 L110.83,191.83 L114.00,201.33 L115.33,210.83 L116.17,231.17 L119.17,238.00 L123.83,243.50 L127.67,246.50 L134.00,249.67 L147.33,252.67 L155.83,253.33 L165.67,252.83 L176.33,250.67 L185.50,246.83 L190.83,242.17 L195.67,235.33 L197.33,227.17 L197.33,212.33 L198.83,201.33 L202.17,190.67 L211.67,170.00 L213.67,160.33 L214.00,152.67 L214.83,152.17 L221.17,153.67 L230.00,153.50 L236.67,151.83 L241.50,149.50 L248.50,144.67 L254.00,139.17 L259.67,131.00 L261.00,126.33 L260.17,125.17 L253.67,122.17 L242.67,119.17 L231.50,118.50 L214.33,120.33 L223.67,113.67 L234.67,102.00 L240.67,88.50 L241.50,78.83 L239.67,68.67 L233.50,56.67 L222.50,46.00 L211.83,39.00 L210.00,39.33 L216.00,49.67 L217.83,55.33 L218.17,64.50 L217.00,71.67 L211.33,82.00 L207.50,85.83 L201.17,89.83 L197.17,91.00 L190.33,90.83 L173.00,86.17 L154.83,84.83 L144.17,85.50 L131.50,88.17 L123.67,90.83 L118.67,91.00 L113.00,89.83 L105.67,86.00 L99.00,78.83 L95.83,72.17 L94.50,63.33 L94.83,55.67 L98.17,46.67 L102.83,39.83 Z M226.67,59.00 L229.83,63.50 L234.00,74.17 L234.33,83.33 L232.83,91.17 L228.00,100.00 L221.67,106.83 L213.50,112.83 L201.67,118.17 L200.33,121.17 L203.00,124.83 L208.50,127.83 L215.17,128.33 L228.83,125.33 L239.33,125.83 L250.50,129.17 L251.50,130.17 L251.00,132.17 L242.17,141.00 L231.00,146.00 L221.17,146.83 L209.17,142.83 L206.00,143.33 L207.00,156.83 L205.83,165.17 L195.00,191.00 L190.33,206.83 L182.83,200.50 L180.00,195.83 L178.50,186.00 L178.83,177.67 L183.17,162.50 L188.83,154.83 L194.83,151.67 L195.67,147.83 L193.33,146.17 L188.83,147.00 L183.50,150.33 L179.33,155.50 L176.17,161.67 L173.17,172.00 L172.17,189.17 L175.33,201.17 L188.00,213.67 L190.83,220.00 L190.00,231.17 L185.17,238.17 L180.00,241.83 L172.83,244.83 L160.67,246.83 L143.50,245.83 L132.67,242.00 L126.50,236.83 L124.00,233.00 L122.17,227.33 L122.00,221.50 L123.83,215.67 L135.67,203.83 L139.83,195.17 L140.83,188.33 L139.83,172.50 L136.50,160.83 L133.50,155.50 L129.83,151.00 L124.33,147.00 L119.17,146.17 L117.17,147.50 L117.33,151.00 L124.17,155.00 L130.00,163.17 L133.00,171.83 L134.50,182.50 L134.00,192.17 L132.67,196.33 L127.50,203.00 L122.17,206.67 L118.50,191.67 L106.83,167.00 L105.67,160.00 L106.67,143.33 L103.83,142.67 L91.33,146.50 L80.50,145.83 L71.67,142.00 L61.83,131.17 L61.83,129.33 L64.67,127.83 L76.00,125.17 L82.83,125.00 L101.83,128.33 L107.33,126.50 L112.83,122.33 L112.00,118.17 L103.50,114.83 L94.00,108.83 L82.83,96.50 L79.83,89.83 L78.67,82.83 L79.00,75.00 L82.83,64.67 L86.83,60.00 L89.00,73.17 L93.17,82.67 L102.50,92.67 L111.00,96.83 L123.83,97.83 L142.50,93.00 L159.17,91.67 L171.67,93.00 L185.17,96.83 L195.50,97.83 L202.00,96.83 L210.33,92.67 L217.67,85.33 L222.83,76.00 L225.67,59.33 Z M312.83,38.17 L310.00,40.33 L307.83,43.33 L292.00,60.50 L249.00,109.67 L249.00,111.00 L252.00,112.67 L254.83,113.50 L256.17,113.00 L298.67,63.83 L300.50,62.83 L298.83,70.33 L295.00,83.17 L287.00,103.33 L278.83,119.83 L271.83,132.00 L263.83,144.17 L249.00,163.17 L227.33,187.17 L225.83,187.17 L218.67,181.50 L217.50,181.83 L215.17,185.00 L214.17,187.00 L214.83,188.33 L226.67,196.00 L228.33,196.33 L231.33,193.83 L259.67,161.33 L271.67,145.33 L277.67,136.33 L282.83,127.33 L296.83,99.00 L301.83,85.00 L307.83,64.17 L311.83,44.33 L312.83,43.17 Z"/>
</svg>