<svg xmlns="http://www.w3.org/2000/svg" viewBox="0 0 313 313" width="313" height="313">
<path fill="#E0BC7C" fill-rule="evenodd" d="M147.33,152.33 L147.17,152.33 L147.00,152.17 L146.83,152.17 L146.67,152.00 L146.17,152.00 L146.00,151.83 L143.83,151.83 L143.67,152.00 L143.00,152.00 L142.83,152.17 L142.50,152.17 L142.17,152.50 L142.00,152.50 L141.83,152.67 L141.67,152.67 L141.50,152.83 L141.33,152.83 L141.17,153.00 L141.00,153.00 L140.00,154.00 L139.83,154.00 L139.17,154.67 L139.00,154.67 L138.67,155.00 L138.50,155.00 L138.00,155.50 L137.83,155.50 L137.67,155.67 L137.67,155.83 L137.33,156.17 L137.33,156.33 L137.17,156.50 L137.00,156.50 L136.67,156.83 L136.67,157.00 L136.00,157.67 L136.00,157.83 L135.50,158.33 L135.50,158.50 L135.33,158.67 L135.33,158.83 L135.17,159.00 L135.17,159.33 L135.00,159.50 L135.00,159.67 L134.83,159.83 L134.83,161.17 L135.00,161.33 L135.00,162.17 L135.17,162.33 L135.17,163.17 L135.33,163.33 L135.33,163.67 L135.50,163.83 L135.50,164.00 L136.00,164.50 L136.17,164.50 L136.33,164.67 L136.33,164.83 L136.83,165.33 L137.17,165.33 L137.33,165.50 L137.50,165.50 L137.67,165.67 L141.00,165.67 L141.17,165.50 L141.33,165.50 L141.50,165.33 L141.67,165.33 L142.83,164.17 L143.00,164.17 L143.67,163.50 L143.83,163.50 L144.00,163.33 L144.17,163.33 L146.33,161.17 L146.33,161.00 L146.50,160.83 L146.50,160.67 L146.83,160.33 L146.83,160.17 L147.00,160.00 L147.00,159.83 L147.50,159.33 L147.50,159.17 L147.67,159.00 L147.67,158.67 L147.83,158.50 L147.83,158.17 L148.00,158.00 L148.00,157.00 L148.17,156.83 L148.17,155.17 L148.00,155.00 L148.00,154.33 L147.83,154.17 L147.83,153.50 L147.67,153.33 L147.67,152.83 L147.50,152.67 L147.50,152.50 Z M192.83,151.50 L192.50,151.83 L192.50,152.00 L192.33,152.17 L192.33,152.33 L192.17,152.50 L192.17,154.17 L192.00,154.33 L192.00,156.00 L192.17,156.17 L192.17,156.67 L192.33,156.83 L192.33,157.33 L192.50,157.50 L192.50,157.67 L192.67,157.83 L192.67,158.00 L192.83,158.17 L192.83,158.33 L193.33,158.83 L193.33,159.00 L193.50,159.17 L193.50,159.33 L194.17,160.00 L194.17,160.17 L194.67,160.67 L194.67,160.83 L195.50,161.67 L195.50,161.83 L195.67,162.00 L195.67,162.17 L197.00,163.50 L197.17,163.50 L197.83,164.17 L198.00,164.17 L198.17,164.33 L198.33,164.33 L199.33,165.33 L199.50,165.33 L199.67,165.50 L200.17,165.50 L200.33,165.67 L203.17,165.67 L203.33,165.50 L203.50,165.50 L203.67,165.33 L203.83,165.33 L204.17,165.00 L204.17,164.83 L204.50,164.50 L204.50,164.33 L204.67,164.17 L204.67,164.00 L204.83,163.83 L204.83,163.33 L205.00,163.17 L205.00,162.33 L205.17,162.17 L205.17,160.00 L205.00,159.83 L205.00,159.33 L204.83,159.17 L204.83,158.50 L204.67,158.33 L204.67,157.83 L204.50,157.67 L204.50,157.33 L204.33,157.17 L204.33,157.00 L204.17,156.83 L204.17,156.67 L202.00,154.50 L201.83,154.50 L201.67,154.33 L201.50,154.33 L200.83,153.67 L200.67,153.67 L200.33,153.33 L200.33,153.17 L200.00,152.83 L199.83,152.83 L198.83,151.83 L198.67,151.83 L198.00,151.17 L197.83,151.17 L197.50,150.83 L197.17,150.83 L197.00,150.67 L194.33,150.67 L194.17,150.83 L193.83,150.83 L193.33,151.33 L193.17,151.33 L193.00,151.50 Z M124.83,139.00 L124.67,139.00 L124.33,138.67 L124.17,138.67 L124.00,138.50 L123.83,138.50 L123.67,138.33 L123.50,138.33 L123.33,138.17 L122.83,138.17 L122.67,138.00 L120.83,138.00 L120.67,138.17 L119.67,138.17 L119.50,138.33 L119.33,138.33 L119.00,138.67 L118.83,138.67 L118.17,139.33 L118.00,139.33 L117.50,139.83 L117.33,139.83 L117.00,140.17 L116.83,140.17 L116.67,140.33 L116.50,140.33 L116.17,140.67 L116.00,140.67 L115.17,141.50 L115.00,141.50 L114.50,142.00 L114.50,142.17 L114.17,142.50 L114.00,142.50 L113.50,143.00 L113.50,143.17 L113.17,143.50 L113.17,143.67 L113.00,143.83 L113.00,144.17 L112.83,144.33 L112.83,144.50 L112.67,144.67 L112.67,144.83 L112.50,145.00 L112.50,145.17 L112.17,145.50 L112.17,145.83 L112.00,146.00 L112.00,147.67 L112.17,147.83 L112.17,148.17 L112.33,148.33 L112.33,148.50 L112.50,148.67 L112.50,149.00 L112.67,149.17 L112.67,149.33 L112.83,149.50 L112.83,150.00 L113.00,150.17 L113.00,150.50 L113.17,150.67 L113.17,151.17 L113.50,151.50 L113.83,151.50 L114.00,151.67 L114.83,151.67 L115.00,151.83 L116.83,151.83 L117.00,151.67 L117.83,151.67 L118.00,151.50 L118.50,151.50 L118.67,151.33 L119.17,151.33 L119.33,151.17 L119.50,151.17 L119.50,151.00 L120.17,150.33 L120.33,150.33 L120.33,150.17 L121.67,148.83 L121.83,148.83 L123.50,147.17 L123.50,147.00 L124.17,146.33 L124.17,146.17 L124.33,146.00 L124.33,145.83 L124.50,145.67 L124.50,145.50 L124.67,145.33 L124.67,145.00 L124.83,144.83 L124.83,144.67 L125.17,144.33 L125.17,144.17 L125.33,144.00 L125.33,143.67 L125.50,143.50 L125.50,142.67 L125.67,142.50 L125.67,141.50 L125.50,141.33 L125.50,140.17 L125.33,140.00 L125.33,139.50 Z M182.50,133.33 L181.50,133.33 L181.33,133.17 L180.83,133.17 L180.67,133.33 L179.83,133.33 L179.67,133.50 L179.33,133.50 L179.17,133.67 L179.00,133.67 L178.67,134.00 L178.50,134.00 L178.33,134.17 L178.17,134.17 L178.00,134.33 L177.83,134.33 L177.67,134.50 L177.50,134.50 L177.33,134.67 L177.33,134.83 L176.17,136.00 L176.17,136.17 L176.00,136.33 L176.00,136.50 L175.83,136.67 L175.83,136.83 L175.67,137.00 L175.67,137.17 L175.50,137.33 L175.50,137.50 L175.17,137.83 L175.17,138.00 L175.00,138.17 L175.00,138.33 L174.83,138.50 L174.83,138.83 L174.67,139.00 L174.67,139.83 L174.50,140.00 L174.50,141.50 L174.67,141.67 L174.67,143.00 L174.83,143.17 L174.83,143.83 L175.00,144.00 L175.00,144.33 L175.17,144.50 L175.17,144.67 L175.33,144.83 L175.33,145.00 L175.50,145.17 L175.50,145.33 L175.83,145.67 L175.83,146.00 L176.00,146.17 L176.00,146.33 L176.50,146.83 L176.67,146.83 L176.83,147.00 L177.00,147.00 L177.17,147.17 L177.33,147.17 L177.50,147.33 L178.00,147.33 L178.17,147.50 L179.00,147.50 L179.17,147.33 L179.67,147.33 L179.83,147.17 L180.00,147.17 L180.17,147.00 L180.33,147.00 L180.67,146.67 L180.83,146.67 L181.00,146.50 L181.17,146.50 L182.17,145.50 L182.33,145.50 L182.50,145.33 L182.50,145.17 L182.67,145.00 L182.67,144.83 L182.83,144.67 L182.83,144.50 L183.33,144.00 L183.33,143.83 L183.67,143.50 L183.67,143.33 L183.83,143.17 L183.83,143.00 L184.00,142.83 L184.00,142.67 L184.17,142.50 L184.17,142.33 L184.33,142.17 L184.33,142.00 L184.50,141.83 L184.50,141.67 L184.83,141.33 L184.83,141.17 L185.00,141.00 L185.00,140.67 L185.17,140.50 L185.17,140.33 L185.33,140.17 L185.33,139.67 L185.50,139.50 L185.50,139.17 L185.67,139.00 L185.67,138.33 L185.83,138.17 L185.83,136.67 L185.67,136.50 L185.67,136.33 L185.50,136.17 L185.50,135.83 L184.00,134.33 L183.83,134.33 L183.00,133.50 L182.67,133.50 Z M151.17,129.83 L151.00,130.00 L150.83,130.00 L150.50,130.33 L150.33,130.33 L150.00,130.67 L149.83,130.67 L149.33,131.17 L149.33,131.33 L149.00,131.67 L149.00,131.83 L148.67,132.17 L148.67,132.33 L148.33,132.67 L148.33,132.83 L148.17,133.00 L148.17,133.33 L148.00,133.50 L148.00,134.00 L147.83,134.17 L147.83,134.50 L147.67,134.67 L147.67,136.17 L147.83,136.33 L147.83,136.50 L148.17,136.83 L148.17,137.00 L148.67,137.50 L148.67,137.67 L149.00,138.00 L149.00,138.17 L149.17,138.33 L149.17,138.50 L149.33,138.67 L149.33,138.83 L149.67,139.17 L149.67,139.33 L150.00,139.67 L150.00,139.83 L150.17,140.00 L150.17,140.17 L150.50,140.50 L150.50,140.67 L150.83,141.00 L151.00,141.00 L152.17,142.17 L152.33,142.17 L152.50,142.33 L153.33,142.33 L153.50,142.50 L154.17,142.50 L154.33,142.67 L154.50,142.67 L154.67,142.83 L154.83,142.83 L155.17,143.17 L155.50,143.17 L155.67,143.33 L156.17,143.33 L156.33,143.17 L156.50,143.17 L156.67,143.00 L156.83,143.00 L157.50,142.33 L157.67,142.33 L158.17,141.83 L158.17,141.67 L158.50,141.33 L158.50,141.17 L159.00,140.67 L159.00,140.50 L159.17,140.33 L159.17,140.17 L159.33,140.00 L159.33,136.50 L159.17,136.33 L159.17,135.67 L159.00,135.50 L159.00,135.33 L158.83,135.17 L158.83,134.83 L158.67,134.67 L158.67,134.50 L158.50,134.33 L158.50,134.00 L158.33,133.83 L158.33,133.50 L158.17,133.33 L158.17,133.17 L158.00,133.00 L158.00,132.83 L156.67,131.50 L156.50,131.50 L155.83,130.83 L155.67,130.83 L155.33,130.50 L155.00,130.50 L154.83,130.33 L154.67,130.33 L154.33,130.00 L154.00,130.00 L153.83,129.83 L153.33,129.83 L153.17,129.67 L151.67,129.67 L151.50,129.83 Z M87.50,137.50 L79.50,146.50 L73.50,156.50 L70.00,165.67 L67.83,177.33 L68.17,189.33 L70.50,192.33 L80.83,192.50 L85.00,194.00 L84.17,196.00 L78.50,199.67 L73.50,204.50 L70.17,209.83 L68.83,214.33 L68.83,223.50 L71.50,229.83 L75.17,234.00 L75.33,235.33 L69.00,241.67 L68.17,246.67 L68.67,256.50 L70.00,261.33 L72.50,266.33 L78.50,273.33 L82.50,276.33 L90.83,280.83 L100.17,283.17 L111.67,284.33 L208.83,284.17 L221.17,282.00 L230.17,278.33 L237.33,273.17 L244.33,263.17 L246.83,254.00 L246.67,243.67 L244.33,238.17 L241.50,234.67 L245.50,227.33 L246.67,223.33 L246.67,217.83 L243.17,208.33 L239.33,204.67 L235.17,202.00 L224.17,198.50 L208.00,197.50 L180.33,198.33 L177.17,197.67 L182.50,193.67 L186.67,193.00 L204.00,192.33 L243.67,192.17 L246.33,189.67 L246.50,175.67 L243.17,161.50 L237.17,148.67 L228.00,137.50 L223.33,133.33 L213.00,126.50 L203.33,121.83 L193.33,118.17 L177.00,114.50 L167.83,113.50 L155.00,113.33 L132.00,115.83 L115.83,120.50 L102.17,126.50 Z M236.67,253.00 L235.50,256.00 L235.17,257.83 L231.67,264.00 L228.17,267.33 L225.17,269.33 L218.50,271.67 L216.00,271.83 L212.83,272.83 L202.67,273.33 L120.17,273.17 L107.67,272.83 L99.83,271.67 L97.17,270.67 L95.00,270.50 L93.50,269.67 L92.50,269.50 L91.17,268.50 L87.83,267.00 L85.67,265.33 L83.50,263.17 L81.50,260.17 L79.33,255.17 L78.50,251.33 L78.50,248.83 L79.33,246.33 L80.83,244.83 L83.33,243.67 L233.17,243.50 L234.00,243.83 L235.83,245.67 L236.50,247.00 Z M78.33,219.50 L79.00,215.83 L80.33,212.67 L81.67,210.50 L83.33,208.83 L88.17,206.50 L94.00,206.00 L97.50,206.50 L102.00,208.50 L104.00,209.00 L105.33,209.83 L106.00,209.83 L107.67,211.00 L113.17,213.33 L114.50,214.33 L115.33,214.50 L121.50,217.83 L125.33,219.33 L129.67,222.33 L132.67,223.67 L134.33,224.00 L136.17,223.83 L137.50,222.83 L139.17,222.33 L147.50,216.67 L158.67,210.17 L163.50,208.67 L209.33,208.67 L219.33,209.00 L222.83,209.67 L226.17,209.83 L227.83,210.83 L229.17,211.17 L234.00,214.83 L235.33,216.83 L235.33,222.33 L234.00,226.33 L231.33,229.33 L228.83,230.83 L225.50,232.00 L222.17,232.33 L203.67,232.83 L99.67,232.83 L94.17,232.67 L89.67,232.00 L84.67,230.00 L82.83,228.67 L80.33,225.67 L79.17,223.17 Z M168.50,193.17 L168.50,193.67 L167.83,194.50 L167.50,194.50 L167.17,194.83 L166.83,194.83 L166.17,195.33 L165.50,195.50 L165.17,195.83 L164.83,195.83 L164.00,196.33 L163.67,196.33 L163.17,196.83 L162.50,197.17 L162.00,197.17 L161.83,197.33 L161.00,197.50 L160.17,198.17 L159.67,198.17 L159.50,198.33 L158.33,198.67 L157.33,199.50 L156.83,199.67 L156.00,200.50 L152.67,202.17 L152.17,202.67 L151.67,202.83 L151.33,203.17 L150.67,203.33 L149.83,204.00 L148.50,204.50 L147.67,205.33 L146.83,205.67 L146.33,206.17 L145.50,206.50 L144.33,207.50 L143.50,207.83 L142.67,208.50 L142.00,208.83 L141.67,208.83 L141.33,209.17 L140.83,209.33 L140.33,209.83 L139.67,210.00 L139.33,210.33 L138.50,210.67 L138.00,211.17 L137.67,211.17 L136.17,212.17 L135.67,212.17 L135.50,212.33 L134.17,212.33 L134.00,212.17 L133.67,212.17 L133.17,211.67 L132.17,211.17 L131.83,211.17 L131.33,210.67 L130.83,210.50 L130.50,210.17 L129.83,209.83 L129.50,209.83 L129.17,209.50 L128.83,209.50 L128.50,209.17 L127.83,209.00 L126.50,208.33 L126.17,208.00 L125.83,208.00 L124.50,207.33 L124.00,206.83 L123.33,206.50 L122.50,206.33 L122.00,205.83 L121.00,205.33 L120.67,205.33 L119.17,204.50 L118.00,204.17 L116.33,203.17 L115.50,203.00 L114.33,202.17 L112.50,201.67 L112.17,201.33 L111.17,200.83 L110.83,200.83 L108.83,199.67 L107.50,199.33 L106.50,198.67 L104.83,198.17 L103.50,197.33 L103.00,197.33 L102.83,197.17 L102.33,197.17 L102.17,197.00 L101.67,197.00 L101.50,196.83 L100.67,196.67 L99.50,195.67 L97.83,195.67 L97.67,195.50 L97.33,195.50 L96.83,195.00 L96.50,194.33 L96.50,193.67 L96.67,193.33 L97.50,192.67 L101.67,192.67 L101.83,192.50 L109.00,192.50 L109.17,192.67 L110.17,192.67 L110.33,192.50 L135.83,192.50 L136.00,192.67 L138.33,192.67 L138.50,192.50 L157.33,192.50 L157.50,192.67 L163.50,192.67 L163.67,192.50 L166.83,192.50 L167.00,192.33 L167.33,192.33 L167.50,192.50 L167.83,192.50 Z M236.50,181.00 L235.17,182.17 L79.33,182.00 L78.67,181.83 L77.83,180.50 L78.00,175.67 L79.17,170.17 L80.17,168.00 L80.33,166.33 L81.17,165.17 L81.50,163.50 L82.33,162.17 L82.67,160.50 L86.00,154.67 L90.67,148.83 L100.17,140.33 L104.67,137.33 L112.50,133.00 L117.17,131.67 L121.67,129.67 L124.33,129.17 L126.17,128.33 L136.67,126.00 L139.83,125.83 L145.50,124.83 L154.50,124.50 L157.83,123.83 L164.50,124.00 L168.17,124.67 L175.17,125.00 L176.83,125.67 L182.00,126.17 L183.67,127.00 L190.17,128.33 L192.33,129.33 L193.83,129.50 L195.50,130.33 L197.83,130.83 L198.67,131.50 L200.83,132.00 L205.83,134.33 L211.33,137.50 L219.17,143.33 L223.67,147.83 L229.33,155.67 L231.83,160.33 L233.33,165.33 L234.00,166.50 L236.17,176.50 Z M154.00,1.83 L0.00,147.17 L0.00,152.33 L1.83,153.67 L20.50,154.33 L21.67,158.00 L21.50,304.17 L22.50,308.17 L25.33,310.33 L32.50,311.00 L287.17,310.83 L291.00,308.33 L293.17,303.50 L293.00,156.67 L294.17,155.33 L305.83,155.00 L311.17,153.50 L312.83,152.33 L312.83,146.00 L272.00,108.50 L265.50,101.17 L265.33,38.67 L262.33,32.83 L258.83,31.67 L233.50,31.33 L226.33,32.00 L222.67,33.50 L221.33,35.83 L221.67,59.17 L220.67,59.50 L166.00,7.67 L158.83,2.00 Z M232.83,43.17 L233.33,43.17 L233.50,43.00 L237.33,43.00 L237.50,43.17 L251.17,43.17 L251.33,43.00 L251.83,43.00 L252.00,42.83 L253.50,42.83 L253.67,43.00 L254.00,43.00 L254.33,43.17 L255.00,43.83 L255.00,44.17 L255.17,44.33 L255.17,47.83 L255.33,48.00 L255.33,48.67 L255.17,48.83 L255.17,86.83 L255.33,87.00 L255.33,90.50 L255.17,90.67 L255.17,91.17 L254.50,91.83 L254.17,91.67 L251.33,88.83 L251.33,88.67 L251.00,88.33 L250.83,88.33 L250.50,88.00 L250.50,87.83 L250.00,87.33 L249.83,87.33 L249.50,87.00 L249.50,86.83 L249.17,86.50 L249.00,86.50 L248.33,85.83 L248.33,85.67 L248.00,85.50 L247.33,84.83 L247.33,84.67 L246.33,83.83 L246.33,83.67 L245.67,83.33 L245.17,82.83 L245.17,82.67 L245.00,82.67 L243.83,81.50 L243.67,81.50 L243.17,80.83 L242.50,80.50 L242.33,80.17 L237.67,75.50 L237.50,75.50 L237.17,75.00 L237.00,75.00 L236.17,74.17 L236.00,74.17 L232.83,71.00 L232.83,70.83 L231.83,69.83 L231.33,68.83 L231.33,68.33 L231.17,68.17 L231.33,68.00 L231.33,66.33 L231.50,66.17 L231.50,50.67 L231.67,50.50 L231.67,44.83 L231.83,44.67 L231.83,44.17 L232.00,43.83 Z M156.17,13.33 L291.83,140.50 L294.67,144.00 L294.00,145.17 L284.67,146.83 L282.50,150.50 L282.83,299.00 L282.00,300.17 L33.33,300.33 L31.50,299.17 L31.67,151.33 L31.17,148.83 L29.00,146.33 L19.50,145.00 L18.83,143.33 Z"/>
</svg>