<svg xmlns="http://www.w3.org/2000/svg" viewBox="0 0 313 313" width="313" height="313">
<path fill="#E0BC7D" fill-rule="evenodd" d="M224.33,72.17 L223.17,73.67 L222.83,75.00 L223.00,77.50 L224.67,79.50 L228.67,82.00 L229.33,82.67 L230.17,83.00 L235.50,86.83 L240.33,90.83 L246.00,96.00 L251.67,101.67 L256.00,106.50 L256.17,107.00 L259.83,111.50 L260.17,112.33 L264.83,118.50 L265.00,119.17 L267.83,123.33 L270.33,128.33 L270.83,128.83 L271.17,130.00 L271.83,130.83 L273.33,134.33 L273.83,134.83 L274.00,135.83 L274.67,136.83 L275.00,138.17 L275.83,139.50 L276.17,141.00 L276.83,142.00 L277.00,143.17 L277.83,144.67 L278.17,146.33 L278.83,147.50 L279.17,149.33 L279.83,150.67 L280.00,152.00 L280.83,154.00 L281.17,156.33 L282.00,158.50 L282.00,159.50 L283.00,163.17 L283.17,165.33 L284.00,168.33 L285.50,170.00 L286.50,170.67 L289.33,170.83 L290.50,170.33 L291.67,169.33 L292.50,167.83 L292.67,165.33 L292.00,163.33 L291.67,160.50 L290.83,158.00 L290.83,157.00 L289.83,153.83 L289.67,152.17 L288.83,150.17 L288.67,148.83 L287.83,147.00 L287.67,145.67 L287.00,144.33 L286.67,142.67 L286.00,141.50 L285.67,139.83 L284.83,138.33 L284.67,137.17 L284.00,136.17 L283.67,134.83 L283.00,134.00 L282.67,132.67 L281.83,131.33 L281.83,130.83 L279.83,127.17 L279.83,126.67 L279.00,125.50 L278.83,124.67 L277.83,123.33 L277.50,122.33 L277.00,121.83 L276.67,120.83 L275.00,118.33 L274.67,117.33 L274.00,116.67 L273.50,115.50 L271.83,113.17 L271.67,112.50 L265.83,104.50 L260.67,98.17 L251.67,89.00 L246.50,84.17 L244.50,82.83 L237.33,77.00 L230.33,72.33 L227.50,71.17 L225.83,71.50 Z M174.17,57.00 L174.17,58.83 L174.33,59.00 L174.33,59.33 L174.67,59.67 L174.67,59.83 L174.83,60.00 L174.83,60.33 L176.33,61.83 L176.50,61.83 L176.67,62.00 L177.33,62.00 L177.83,62.33 L178.33,62.33 L178.50,62.50 L179.00,62.50 L179.17,62.67 L180.17,62.67 L180.33,62.83 L181.67,62.83 L181.83,63.00 L182.67,63.00 L182.83,63.17 L183.50,63.17 L183.67,63.33 L184.17,63.33 L184.33,63.50 L184.67,63.50 L184.83,63.67 L185.33,63.67 L185.50,63.83 L186.33,63.83 L186.50,64.00 L187.17,64.00 L187.67,64.33 L188.17,64.33 L188.67,64.67 L189.33,64.67 L189.50,64.83 L190.17,64.83 L190.33,65.00 L190.83,65.00 L191.00,65.17 L191.33,65.17 L191.83,65.50 L192.17,65.50 L192.33,65.67 L192.67,65.67 L192.83,65.83 L193.50,65.83 L193.67,66.00 L194.17,66.00 L194.33,66.17 L194.50,66.17 L194.67,66.33 L195.00,66.33 L195.50,66.67 L196.00,66.67 L196.17,66.83 L197.00,66.83 L197.17,67.00 L197.50,67.00 L197.67,67.17 L198.00,67.17 L198.17,67.33 L198.33,67.33 L198.83,67.67 L199.33,67.67 L199.50,67.83 L200.17,67.83 L200.33,68.00 L200.83,68.00 L201.00,68.17 L201.17,68.17 L201.67,68.50 L202.00,68.50 L202.17,68.67 L203.33,68.67 L203.50,68.50 L204.17,68.50 L204.33,68.33 L204.50,68.33 L205.00,68.00 L205.33,68.00 L205.67,67.67 L205.83,67.67 L206.67,66.83 L206.67,66.67 L207.00,66.33 L207.00,66.00 L207.17,65.83 L207.17,65.67 L207.50,65.17 L207.50,64.33 L207.67,64.17 L207.67,63.67 L207.50,63.50 L207.50,63.00 L207.33,62.83 L207.33,62.67 L207.17,62.50 L207.17,62.33 L206.83,61.83 L206.83,61.50 L205.50,60.17 L205.33,60.17 L205.17,60.00 L204.83,60.00 L204.67,59.83 L204.50,59.83 L204.00,59.50 L203.67,59.50 L203.33,59.17 L202.83,59.17 L202.67,59.00 L202.00,59.00 L201.83,58.83 L201.50,58.83 L201.33,58.67 L201.00,58.67 L200.83,58.50 L200.67,58.50 L200.17,58.17 L199.67,58.17 L199.50,58.00 L198.83,58.00 L198.67,57.83 L198.33,57.83 L198.17,57.67 L197.83,57.67 L197.33,57.33 L197.00,57.33 L196.83,57.17 L196.33,57.17 L196.17,57.00 L195.33,57.00 L195.17,56.83 L194.67,56.83 L194.50,56.67 L194.33,56.67 L194.17,56.50 L193.83,56.50 L193.33,56.17 L192.67,56.17 L192.50,56.00 L191.67,56.00 L191.50,55.83 L191.00,55.83 L190.83,55.67 L190.50,55.67 L190.33,55.50 L189.83,55.50 L189.33,55.17 L188.67,55.17 L188.50,55.00 L187.50,55.00 L187.33,54.83 L186.67,54.83 L186.50,54.67 L186.17,54.67 L186.00,54.50 L185.50,54.50 L185.33,54.33 L185.00,54.33 L184.83,54.17 L184.17,54.17 L184.00,54.00 L182.67,54.00 L182.50,53.83 L181.67,53.83 L181.50,53.67 L181.17,53.67 L181.00,53.50 L180.50,53.50 L180.33,53.33 L179.83,53.33 L179.67,53.17 L178.33,53.17 L178.17,53.33 L177.50,53.33 L177.17,53.67 L176.83,53.67 L176.67,53.83 L176.50,53.83 L176.33,54.00 L176.17,54.00 L175.83,54.33 L175.67,54.33 L175.33,54.67 L175.33,54.83 L175.00,55.17 L175.00,55.33 L174.67,55.83 L174.67,56.17 L174.33,56.50 L174.33,56.83 Z M166.00,1.17 L150.33,0.00 L144.67,2.17 L138.83,6.83 L134.67,16.00 L137.50,34.33 L117.00,38.17 L94.00,46.00 L74.67,56.00 L55.67,69.83 L42.00,82.67 L29.00,98.50 L20.00,112.50 L11.17,130.50 L3.00,157.00 L0.00,182.00 L4.67,185.67 L13.67,187.67 L57.33,190.00 L62.83,201.50 L12.83,198.00 L5.50,195.17 L1.17,196.67 L0.00,201.50 L5.83,205.67 L27.67,208.67 L60.50,210.00 L64.33,207.17 L64.00,227.33 L59.00,247.83 L46.00,269.00 L30.17,312.83 L39.83,312.83 L43.33,304.83 L91.00,312.83 L110.00,312.83 L112.83,301.67 L161.33,274.83 L223.50,258.67 L285.33,221.67 L287.33,216.83 L285.67,208.67 L307.17,205.50 L312.83,201.50 L311.67,196.67 L307.33,195.17 L300.33,198.00 L259.83,201.00 L171.00,202.83 L102.83,202.17 L99.50,204.17 L98.00,203.00 L93.33,191.67 L219.50,191.83 L274.67,189.83 L304.17,186.67 L310.33,184.67 L312.83,182.00 L309.67,157.17 L301.67,130.83 L292.67,112.33 L277.67,90.50 L258.17,70.83 L235.17,54.33 L206.83,41.33 L175.33,34.33 L177.83,22.33 L177.67,13.33 L173.83,6.67 Z M240.67,211.33 L241.17,210.83 L242.00,210.83 L242.17,211.00 L242.17,211.50 L241.83,211.83 L241.00,211.83 L240.67,211.50 Z M100.33,211.17 L101.00,210.83 L102.67,211.33 L157.17,211.83 L157.67,212.50 L153.17,216.33 L147.00,222.50 L146.67,224.83 L147.17,226.67 L149.17,228.50 L150.83,229.00 L152.83,228.83 L154.33,227.83 L161.67,220.67 L169.17,214.00 L172.33,211.67 L194.33,211.67 L194.67,212.00 L194.67,212.67 L191.33,215.17 L189.33,217.50 L189.00,218.33 L189.17,221.17 L191.00,223.50 L192.17,224.00 L195.50,223.67 L208.00,212.83 L210.33,211.33 L220.50,211.33 L225.67,211.00 L226.00,211.67 L225.00,212.83 L214.17,221.83 L211.17,222.83 L200.17,225.00 L192.17,227.00 L190.83,227.00 L187.67,227.83 L183.67,228.17 L176.00,229.83 L172.17,230.17 L163.00,231.83 L157.83,232.17 L148.50,233.83 L144.83,234.00 L139.00,235.00 L134.50,235.17 L122.83,236.83 L115.50,237.17 L113.00,236.83 L108.67,234.83 L105.33,231.67 L104.00,229.67 L103.00,227.50 L102.00,222.83 Z M46.00,295.67 L53.83,273.67 L67.00,252.17 L70.83,239.00 L73.67,224.33 L74.33,214.67 L73.67,205.33 L71.67,198.50 L62.50,179.67 L64.00,177.83 L68.00,177.00 L71.17,178.00 L75.33,181.67 L78.83,186.33 L84.83,196.50 L90.83,208.83 L93.17,225.17 L94.33,230.17 L96.17,234.50 L101.33,240.83 L105.67,243.67 L111.17,245.83 L116.67,246.33 L126.33,245.67 L158.50,241.67 L184.00,237.67 L217.33,230.67 L241.83,221.00 L268.67,211.83 L274.17,212.00 L276.17,212.83 L278.00,214.83 L277.67,215.83 L220.50,250.00 L158.50,266.17 L106.33,294.33 L105.17,295.67 L103.00,304.33 L102.17,305.00 L48.83,296.83 Z M9.50,175.00 L10.83,163.67 L15.00,146.67 L19.83,133.50 L27.00,118.67 L34.00,107.33 L43.00,95.50 L57.00,81.00 L66.33,73.00 L86.33,60.00 L98.67,54.00 L111.67,49.00 L127.00,45.00 L142.50,42.83 L146.67,47.00 L149.83,49.00 L153.83,50.17 L157.83,50.33 L164.00,48.50 L170.00,43.00 L189.83,45.83 L201.17,49.00 L221.00,57.17 L230.33,62.17 L246.33,73.00 L255.50,80.83 L264.83,90.17 L280.00,109.50 L291.00,129.67 L298.83,151.50 L301.83,165.33 L303.33,176.83 L302.17,177.83 L285.17,179.83 L248.17,181.67 L188.17,183.00 L92.17,182.50 L88.33,184.33 L83.67,177.33 L78.33,171.83 L73.17,169.00 L68.50,168.00 L61.67,169.00 L53.83,173.83 L52.00,176.50 L52.00,179.33 L52.67,180.17 L52.17,181.17 L16.67,178.83 L10.00,177.67 Z M153.83,9.00 L159.00,9.00 L159.17,9.17 L160.17,9.17 L160.33,9.33 L161.00,9.33 L161.17,9.50 L161.67,9.50 L161.83,9.67 L162.50,9.67 L162.67,9.83 L163.17,9.83 L163.50,10.17 L163.67,10.17 L164.17,10.67 L164.33,10.67 L164.50,10.83 L165.00,11.00 L165.83,11.83 L166.00,11.83 L167.17,13.00 L167.17,13.17 L167.83,13.83 L167.83,14.00 L168.00,14.17 L168.00,14.33 L168.17,14.50 L168.33,15.00 L168.67,15.33 L168.67,15.50 L168.83,15.67 L168.83,16.17 L169.00,16.33 L169.00,20.17 L168.83,20.33 L168.83,21.00 L168.67,21.17 L168.67,21.67 L168.50,21.83 L168.50,22.33 L168.33,22.50 L168.33,22.83 L168.17,23.00 L168.17,23.50 L168.00,23.67 L168.00,24.67 L167.83,24.83 L167.83,25.33 L167.67,25.50 L167.67,26.00 L167.17,26.83 L167.17,27.33 L167.00,27.50 L167.00,28.17 L166.83,28.33 L166.83,28.83 L166.67,29.00 L166.67,29.17 L166.17,30.00 L166.17,30.33 L166.00,30.50 L166.00,31.17 L165.83,31.33 L165.83,31.50 L165.67,31.67 L165.67,31.83 L165.50,32.00 L165.50,32.17 L165.00,33.00 L165.00,33.33 L164.83,33.50 L164.83,33.83 L164.67,34.00 L164.67,34.17 L164.17,34.67 L164.17,35.00 L164.00,35.17 L164.00,35.33 L163.83,35.50 L163.67,36.00 L163.17,36.50 L163.00,37.00 L162.50,37.50 L162.50,37.67 L162.00,38.17 L162.00,38.33 L160.33,40.00 L160.00,40.00 L159.83,40.17 L159.67,40.17 L159.17,40.67 L159.00,40.67 L158.50,41.00 L157.83,41.00 L157.67,41.17 L155.00,41.17 L154.83,41.00 L154.33,41.00 L154.17,40.83 L153.83,40.83 L153.33,40.33 L153.17,40.33 L153.00,40.17 L152.50,40.00 L150.83,38.33 L150.83,38.17 L150.17,37.50 L150.17,37.33 L149.83,37.00 L149.67,36.50 L149.17,36.00 L149.17,35.83 L148.83,35.50 L148.83,35.33 L148.67,35.17 L148.67,34.83 L148.00,34.00 L148.00,33.67 L147.67,33.17 L147.67,32.83 L147.00,31.83 L147.00,31.50 L146.83,31.33 L146.83,30.67 L146.50,30.17 L146.50,29.83 L146.33,29.67 L146.33,29.50 L146.00,29.00 L146.00,28.67 L145.83,28.50 L145.83,27.67 L145.67,27.50 L145.67,27.17 L145.50,27.00 L145.50,26.67 L145.17,26.17 L145.17,25.67 L145.00,25.50 L145.00,25.00 L144.83,24.83 L144.83,23.83 L144.67,23.67 L144.67,23.17 L144.50,23.00 L144.50,22.50 L144.33,22.33 L144.33,21.83 L144.17,21.67 L144.17,21.33 L144.00,21.17 L144.00,20.33 L143.83,20.17 L143.83,18.33 L143.67,18.17 L143.67,17.33 L143.83,17.17 L143.83,16.00 L144.00,15.83 L144.00,15.50 L144.33,15.17 L144.33,15.00 L144.50,14.83 L144.50,14.67 L144.67,14.50 L144.83,14.00 L145.17,13.67 L145.17,13.50 L146.83,11.83 L147.00,11.83 L147.83,11.00 L148.00,11.00 L148.17,10.83 L148.67,10.67 L149.17,10.17 L149.33,10.17 L149.67,9.83 L150.17,9.83 L150.33,9.67 L151.00,9.67 L151.17,9.50 L151.67,9.50 L151.83,9.33 L152.67,9.33 L152.83,9.17 L153.67,9.17 Z"/>
</svg>