<svg xmlns="http://www.w3.org/2000/svg" viewBox="0 0 313 313" width="313" height="313">
<path fill="#DFBC84" fill-rule="evenodd" d="M153.50,184.83 L152.67,184.83 L152.50,185.00 L151.83,185.00 L151.67,185.17 L151.17,185.33 L150.67,185.83 L149.50,186.33 L148.83,186.83 L147.83,186.83 L147.67,186.67 L147.50,186.67 L146.17,185.50 L146.00,185.50 L145.50,185.00 L145.17,185.00 L145.00,184.83 L144.50,184.83 L144.00,184.50 L143.50,184.50 L143.33,184.33 L141.67,184.33 L141.50,184.50 L141.17,184.50 L141.00,184.67 L140.67,184.67 L140.50,184.83 L140.00,184.83 L139.83,185.00 L139.17,185.00 L139.00,185.17 L138.67,185.17 L138.17,185.67 L137.00,186.17 L136.00,187.00 L135.50,187.17 L132.83,189.83 L132.83,190.00 L132.00,190.83 L131.83,191.33 L131.33,191.83 L131.33,192.00 L131.00,192.33 L131.00,192.50 L130.17,193.33 L129.83,194.17 L129.50,194.50 L129.50,194.67 L128.83,195.83 L128.83,196.17 L128.67,196.33 L128.67,196.50 L128.33,197.00 L128.33,197.33 L128.00,197.83 L128.00,198.33 L127.83,198.50 L127.67,199.33 L127.33,199.67 L127.33,200.00 L127.17,200.17 L127.17,200.50 L127.00,200.67 L127.00,201.50 L126.83,201.67 L126.83,202.50 L126.67,202.67 L126.67,203.33 L126.50,203.50 L126.50,206.67 L126.67,206.83 L126.67,207.33 L126.83,207.50 L126.83,208.00 L127.00,208.17 L127.00,208.50 L127.17,208.67 L127.33,209.17 L127.83,209.67 L128.00,210.17 L129.17,211.33 L129.33,211.33 L129.83,211.83 L130.00,211.83 L130.83,212.33 L131.17,212.33 L131.67,212.67 L132.33,212.67 L132.50,212.83 L134.33,212.83 L134.50,212.67 L135.00,212.67 L135.50,212.33 L136.33,212.17 L136.67,211.83 L137.00,211.83 L137.17,211.67 L137.33,211.67 L138.17,210.83 L138.33,210.83 L138.33,210.67 L139.67,209.33 L139.67,209.17 L140.67,208.17 L140.67,208.00 L141.67,207.00 L141.83,207.00 L142.00,206.83 L142.33,206.83 L142.67,207.33 L142.67,208.00 L142.50,208.17 L142.50,209.00 L142.67,209.17 L142.67,209.67 L142.83,209.83 L143.00,210.67 L144.33,212.00 L144.50,212.00 L144.67,212.17 L145.00,212.17 L145.17,212.33 L145.50,212.33 L145.67,212.50 L146.17,212.50 L146.33,212.67 L147.17,212.67 L147.33,212.50 L148.00,212.50 L148.17,212.33 L149.00,212.17 L149.17,212.00 L150.33,211.50 L151.50,210.33 L151.50,210.17 L151.83,209.83 L151.83,209.67 L152.17,209.33 L152.17,209.17 L152.50,208.83 L152.50,208.67 L152.83,208.17 L152.83,206.67 L152.67,206.50 L152.67,206.33 L152.00,206.33 L151.83,206.50 L151.67,206.50 L151.17,207.00 L151.17,207.17 L150.17,208.17 L150.00,208.17 L149.83,208.33 L149.50,208.33 L149.33,208.50 L148.67,208.00 L148.67,207.83 L148.33,207.33 L148.33,206.67 L148.50,206.50 L148.50,205.33 L148.67,205.17 L148.67,204.50 L148.83,204.33 L148.83,203.50 L149.00,203.33 L149.00,202.67 L149.17,202.50 L149.17,202.33 L149.33,202.17 L149.33,201.83 L149.67,201.33 L149.67,200.67 L149.83,200.50 L149.83,199.67 L150.00,199.50 L150.17,198.67 L150.33,198.50 L150.33,198.33 L150.50,198.17 L150.50,197.83 L150.67,197.67 L150.67,197.17 L150.83,197.00 L150.83,196.33 L151.00,196.17 L151.00,195.67 L151.17,195.50 L151.17,195.17 L151.33,195.00 L151.33,194.50 L151.50,194.33 L151.50,193.67 L151.67,193.50 L151.67,193.17 L151.83,193.00 L151.83,192.33 L152.00,192.17 L152.00,191.50 L152.17,191.33 L152.17,191.00 L152.33,190.83 L152.33,190.50 L152.67,190.00 L152.67,189.50 L152.83,189.33 L152.83,188.50 L153.00,188.33 L153.00,187.83 L153.50,187.00 L153.50,186.67 L153.67,186.50 L153.67,186.17 L153.83,186.00 L153.83,185.33 Z M144.17,187.83 L144.33,188.00 L144.50,188.00 L144.67,188.17 L144.83,188.17 L145.00,188.33 L145.00,188.50 L145.17,188.67 L145.17,188.83 L145.33,189.00 L145.33,189.33 L145.50,189.50 L145.50,190.17 L145.67,190.33 L145.67,191.33 L145.50,191.50 L145.50,192.67 L145.33,192.83 L145.33,193.67 L145.17,193.83 L145.17,194.67 L145.00,194.83 L145.00,195.50 L144.83,195.67 L144.83,196.33 L144.67,196.50 L144.67,196.83 L144.50,197.00 L144.50,197.17 L144.33,197.33 L144.33,197.67 L144.17,197.83 L144.17,198.33 L144.00,198.50 L144.00,198.83 L143.83,199.00 L143.83,199.17 L143.50,199.50 L143.50,199.67 L143.17,200.00 L143.17,200.33 L143.00,200.50 L143.00,200.67 L142.83,200.83 L142.83,201.17 L142.67,201.33 L142.67,201.50 L142.33,201.83 L142.33,202.17 L142.00,202.50 L142.00,202.83 L141.83,203.00 L141.83,203.17 L141.50,203.50 L141.50,203.67 L141.17,204.00 L141.17,204.17 L141.00,204.33 L141.00,204.50 L140.33,205.17 L140.33,205.33 L138.00,207.67 L137.83,207.67 L137.50,208.00 L137.33,208.00 L137.00,208.33 L136.83,208.33 L136.50,208.67 L136.33,208.67 L136.17,208.83 L135.33,208.83 L135.17,208.67 L135.00,208.67 L134.83,208.50 L134.67,208.50 L134.00,207.83 L134.00,207.67 L133.83,207.50 L133.83,207.33 L133.67,207.17 L133.67,206.83 L133.50,206.67 L133.50,206.50 L133.33,206.33 L133.33,206.17 L133.17,206.00 L133.17,205.50 L133.00,205.33 L133.00,203.83 L133.17,203.67 L133.17,202.50 L133.33,202.33 L133.33,201.67 L133.50,201.50 L133.50,201.00 L133.67,200.83 L133.67,200.33 L133.83,200.17 L133.83,199.33 L134.00,199.17 L134.00,198.67 L134.17,198.50 L134.17,198.17 L134.33,198.00 L134.33,197.67 L134.50,197.50 L134.50,197.33 L134.67,197.17 L134.67,196.83 L134.83,196.67 L134.83,196.33 L135.00,196.17 L135.00,195.83 L135.17,195.67 L135.17,195.50 L135.33,195.33 L135.33,195.17 L135.50,195.00 L135.50,194.83 L135.67,194.67 L135.67,194.50 L135.83,194.33 L135.83,194.17 L136.00,194.00 L136.00,193.83 L136.17,193.67 L136.17,193.50 L136.67,193.00 L136.67,192.83 L136.83,192.67 L136.83,192.50 L137.83,191.50 L137.83,191.33 L139.67,189.50 L139.83,189.50 L140.17,189.17 L140.33,189.17 L140.67,188.83 L140.83,188.83 L141.00,188.67 L141.17,188.67 L141.67,188.17 L141.83,188.17 L142.00,188.00 L142.17,188.00 L142.33,187.83 Z M209.50,184.33 L209.17,184.33 L209.00,184.17 L204.50,184.17 L203.33,184.83 L203.00,184.83 L202.83,185.00 L202.33,185.00 L202.17,185.17 L202.00,185.17 L201.17,185.83 L200.17,186.17 L199.83,186.50 L199.67,186.50 L199.33,186.83 L198.83,187.00 L198.33,187.50 L198.17,187.50 L197.00,188.67 L197.00,188.83 L195.00,191.00 L194.83,191.50 L194.17,192.33 L194.17,192.50 L194.00,192.67 L194.00,193.00 L193.50,193.67 L193.50,194.00 L193.00,194.83 L193.00,195.33 L192.83,195.50 L192.83,195.83 L192.17,196.83 L192.17,197.33 L192.00,197.50 L192.00,198.17 L191.83,198.33 L191.83,199.00 L191.67,199.17 L191.67,199.50 L191.50,199.67 L191.50,200.50 L191.33,200.67 L191.33,204.83 L191.50,205.00 L191.50,205.50 L191.67,205.67 L191.67,206.17 L191.83,206.33 L191.83,206.67 L192.00,206.83 L192.00,207.33 L192.17,207.50 L192.17,207.83 L193.00,208.83 L193.00,209.17 L193.67,209.83 L193.67,210.00 L195.50,211.67 L195.83,211.67 L196.00,211.83 L196.33,211.83 L196.50,212.00 L196.83,212.00 L197.00,212.17 L197.33,212.17 L197.50,212.33 L199.83,212.33 L200.00,212.50 L200.17,212.50 L200.33,212.33 L202.50,212.33 L202.67,212.17 L203.33,212.17 L203.83,211.83 L204.33,211.83 L204.83,211.50 L205.17,211.50 L205.50,211.17 L206.33,210.83 L207.00,210.17 L207.17,210.17 L207.67,209.67 L207.83,209.67 L208.67,208.83 L208.83,208.83 L210.17,207.33 L210.17,207.17 L210.50,206.83 L210.50,206.67 L210.83,206.33 L210.83,206.17 L211.17,205.83 L211.17,205.67 L211.67,205.17 L211.67,205.00 L211.83,204.83 L211.83,204.50 L212.00,204.33 L212.00,203.17 L211.83,203.00 L211.83,202.83 L211.33,202.67 L211.17,202.83 L211.00,202.83 L211.00,203.00 L210.17,203.83 L210.17,204.00 L208.83,205.33 L208.67,205.33 L207.33,206.50 L206.50,206.83 L206.17,207.17 L206.00,207.17 L205.33,207.83 L205.17,207.83 L205.00,208.00 L204.50,208.00 L204.33,208.17 L204.00,208.17 L203.17,208.67 L201.33,208.67 L201.17,208.50 L200.83,208.50 L200.67,208.33 L200.50,208.33 L200.17,208.00 L200.00,208.00 L199.33,207.50 L199.33,207.33 L198.33,206.33 L198.33,206.17 L198.00,205.83 L198.00,205.50 L197.83,205.33 L197.83,203.67 L198.33,203.00 L198.50,203.00 L198.67,202.83 L199.00,202.83 L199.17,202.67 L199.50,202.67 L199.67,202.50 L200.33,202.50 L200.50,202.33 L201.00,202.33 L201.17,202.17 L201.33,202.17 L201.50,202.00 L201.83,202.00 L202.00,201.83 L202.50,201.83 L202.67,201.67 L203.00,201.67 L203.17,201.50 L203.33,201.50 L203.83,201.00 L204.17,201.00 L204.33,200.83 L204.83,200.67 L205.50,200.00 L206.50,199.67 L207.00,199.17 L207.17,199.17 L208.00,198.33 L208.17,198.33 L210.17,196.33 L210.17,196.17 L210.83,195.33 L211.00,194.83 L211.50,194.33 L211.50,194.17 L211.83,193.67 L211.83,193.33 L212.17,192.83 L212.17,192.50 L212.50,192.17 L212.50,191.67 L212.67,191.50 L212.67,191.00 L212.83,190.83 L212.83,189.33 L213.00,189.17 L213.00,188.83 L212.83,188.67 L212.83,187.67 L212.67,187.50 L212.17,186.33 L211.00,185.17 L209.83,184.67 Z M207.17,187.33 L207.83,188.00 L207.83,188.17 L208.00,188.33 L208.00,191.33 L207.83,191.50 L207.83,192.17 L207.67,192.33 L207.67,192.67 L207.50,192.83 L207.50,193.00 L207.33,193.17 L207.33,193.33 L207.17,193.50 L207.17,193.67 L207.00,193.83 L207.00,194.17 L206.83,194.33 L206.83,194.50 L206.67,194.67 L206.67,194.83 L206.33,195.17 L206.33,195.33 L205.67,196.00 L205.67,196.17 L204.83,197.00 L204.67,197.00 L203.17,198.50 L203.00,198.50 L202.67,198.83 L202.50,198.83 L202.17,199.17 L202.00,199.17 L201.83,199.33 L201.67,199.33 L201.50,199.50 L201.33,199.50 L201.17,199.67 L200.67,199.67 L200.50,199.83 L200.17,199.83 L200.00,200.00 L199.67,200.00 L199.50,200.17 L198.33,200.17 L198.00,199.83 L198.00,199.67 L197.83,199.50 L197.83,198.83 L198.00,198.67 L198.00,198.17 L198.17,198.00 L198.17,197.67 L198.33,197.50 L198.33,197.33 L198.50,197.17 L198.50,196.83 L198.67,196.67 L198.67,196.50 L198.83,196.33 L198.83,195.67 L199.00,195.50 L199.00,195.33 L199.17,195.17 L199.17,195.00 L199.33,194.83 L199.33,194.67 L199.50,194.50 L199.50,194.33 L199.67,194.17 L199.67,193.83 L199.83,193.67 L199.83,193.50 L200.00,193.33 L200.00,193.00 L200.17,192.83 L200.17,192.67 L200.50,192.33 L200.50,192.17 L200.67,192.00 L200.67,191.83 L200.83,191.67 L200.83,191.50 L201.17,191.17 L201.17,191.00 L202.17,190.00 L202.17,189.83 L202.83,189.17 L203.00,189.17 L203.33,188.83 L203.33,188.67 L203.67,188.33 L203.83,188.33 L204.33,187.83 L204.50,187.83 L204.67,187.67 L204.83,187.67 L205.00,187.50 L205.17,187.50 L205.50,187.17 L205.83,187.17 L206.00,187.00 L206.33,187.00 L206.50,187.17 L206.83,187.17 L207.00,187.33 Z M172.00,185.00 L171.33,185.00 L170.00,184.33 L169.50,184.33 L169.33,184.17 L167.17,184.17 L167.00,184.33 L166.50,184.33 L166.00,184.67 L165.67,184.67 L165.00,185.00 L164.33,185.00 L164.17,185.17 L163.83,185.17 L163.00,185.83 L162.67,185.83 L162.33,186.00 L162.00,186.33 L161.83,186.33 L161.00,187.17 L161.00,187.33 L160.17,188.33 L160.00,188.67 L160.00,189.33 L159.83,189.50 L159.83,190.33 L159.67,190.50 L159.67,193.17 L159.83,193.33 L159.83,194.00 L160.00,194.17 L160.00,194.67 L160.17,194.83 L160.17,195.17 L160.33,195.50 L160.67,195.83 L161.17,196.83 L161.17,197.17 L161.83,198.00 L162.33,199.00 L163.00,199.67 L163.17,200.17 L163.67,200.67 L164.50,202.33 L164.83,202.67 L165.00,203.00 L165.00,203.33 L165.33,203.67 L165.33,204.00 L165.83,204.83 L165.83,205.33 L166.00,205.50 L166.00,207.33 L165.83,207.50 L165.83,207.83 L165.67,208.17 L164.67,209.17 L164.33,209.33 L164.00,209.33 L163.83,209.50 L163.17,209.50 L163.00,209.67 L161.67,209.67 L161.50,209.50 L161.00,209.50 L160.83,209.33 L160.50,209.33 L160.17,209.17 L159.67,208.67 L159.33,208.50 L159.33,208.33 L159.00,208.00 L158.67,207.33 L158.67,205.50 L158.83,205.33 L158.83,204.83 L159.00,204.67 L159.00,204.33 L159.33,204.00 L159.67,203.33 L159.67,203.00 L159.83,202.83 L159.83,202.50 L159.67,202.17 L159.33,201.83 L158.67,201.50 L157.50,201.50 L157.00,201.83 L156.67,201.83 L156.33,202.00 L155.50,202.83 L155.50,203.00 L155.00,203.50 L154.83,203.83 L154.83,204.17 L154.50,204.83 L154.50,205.33 L154.33,205.50 L154.33,207.67 L154.50,207.83 L154.50,208.17 L154.83,208.67 L154.83,209.00 L155.00,209.33 L156.33,210.83 L156.83,211.00 L157.50,211.67 L157.83,211.67 L158.00,211.83 L158.33,211.83 L158.83,212.17 L159.33,212.17 L159.50,212.33 L160.67,212.33 L160.83,212.50 L161.83,212.50 L162.00,212.67 L163.17,212.67 L163.33,212.50 L164.50,212.50 L164.67,212.33 L166.17,212.33 L166.33,212.17 L167.17,212.00 L167.67,211.67 L168.00,211.67 L168.33,211.50 L168.83,211.00 L169.33,210.83 L171.00,209.00 L171.17,208.50 L171.50,208.17 L171.67,207.83 L171.67,207.50 L171.83,207.33 L171.83,206.67 L172.00,206.50 L172.00,204.83 L171.83,204.67 L171.83,203.50 L171.67,203.33 L171.67,202.83 L171.50,202.67 L171.33,201.83 L171.00,201.33 L170.83,200.50 L170.33,199.50 L170.00,199.17 L170.00,198.83 L169.83,198.50 L168.83,197.50 L168.33,196.50 L167.83,196.00 L167.83,195.83 L167.00,194.83 L166.67,194.00 L166.00,193.33 L165.83,193.00 L165.83,192.67 L165.50,192.17 L165.50,191.83 L165.00,190.83 L165.00,189.50 L165.33,189.17 L165.50,188.67 L166.33,187.83 L166.67,187.67 L167.00,187.67 L167.50,187.33 L169.33,187.33 L169.83,187.83 L170.00,187.83 L170.67,188.67 L170.67,189.33 L170.83,189.50 L170.83,191.00 L170.67,191.17 L170.67,191.83 L170.50,192.00 L170.50,192.33 L170.67,192.67 L171.17,193.17 L172.00,193.17 L172.67,192.83 L173.67,192.00 L173.67,191.83 L174.17,191.33 L174.67,190.33 L174.67,190.00 L174.83,189.83 L174.83,187.67 L174.50,187.00 L173.50,186.00 L173.33,186.00 L172.83,185.50 L172.67,185.50 Z M78.00,184.50 L78.33,185.83 L83.17,194.17 L90.00,203.33 L97.50,211.00 L106.17,218.00 L115.33,223.67 L123.33,227.50 L128.33,229.00 L129.67,229.83 L137.50,231.83 L139.67,232.00 L141.67,232.83 L145.17,233.00 L147.17,233.67 L164.67,233.83 L166.83,233.67 L168.67,233.00 L172.33,232.83 L173.50,232.17 L175.67,232.00 L184.33,229.83 L185.50,229.00 L192.33,226.83 L193.33,226.00 L198.67,223.67 L208.17,217.83 L216.33,211.17 L225.33,201.67 L228.67,197.33 L232.00,192.33 L235.83,185.33 L235.83,184.50 L235.33,184.17 L234.17,184.83 L232.67,188.17 L226.00,198.33 L219.50,205.83 L216.00,209.33 L209.67,214.67 L205.67,217.67 L200.17,221.00 L194.17,224.17 L188.83,226.17 L188.00,226.83 L181.33,229.00 L179.67,229.17 L178.17,230.00 L176.83,230.00 L174.67,230.83 L166.00,232.00 L155.50,232.33 L143.33,231.50 L138.50,230.67 L137.00,230.00 L135.67,230.00 L134.17,229.17 L125.83,226.83 L113.67,221.00 L104.00,214.50 L100.50,211.67 L93.17,204.50 L86.67,196.50 L83.83,192.33 L79.67,184.83 L78.83,184.17 Z M188.17,176.67 L187.83,176.67 L187.67,176.83 L186.50,176.83 L185.83,177.33 L185.67,177.33 L184.67,178.50 L184.50,179.00 L184.17,179.33 L183.83,180.17 L183.17,181.00 L183.00,181.50 L181.83,182.67 L181.83,182.83 L181.17,183.50 L181.00,183.50 L180.67,183.83 L180.50,183.83 L180.00,184.17 L178.83,184.17 L178.67,184.33 L178.33,184.33 L178.17,184.50 L178.00,184.50 L177.50,185.00 L177.50,185.17 L177.33,185.33 L177.33,186.33 L177.67,186.83 L177.83,186.83 L178.00,187.00 L178.33,187.00 L178.50,187.17 L178.67,187.17 L178.83,187.00 L179.33,187.00 L179.83,187.50 L179.83,188.83 L179.67,189.00 L179.67,189.33 L179.50,189.50 L179.50,189.67 L179.33,189.83 L179.33,190.17 L179.17,190.33 L179.17,191.00 L179.00,191.17 L179.00,192.00 L178.83,192.17 L178.83,192.67 L178.67,192.83 L178.67,193.33 L178.50,193.50 L178.50,193.83 L178.33,194.00 L178.33,194.50 L178.17,194.67 L178.17,195.33 L178.00,195.50 L178.00,196.17 L177.83,196.33 L177.83,197.00 L177.67,197.17 L177.67,197.50 L177.50,197.67 L177.50,198.33 L177.33,198.50 L177.33,199.00 L177.17,199.17 L177.17,199.50 L177.00,199.67 L177.00,200.33 L176.83,200.50 L176.83,201.17 L176.67,201.33 L176.67,201.67 L176.50,201.83 L176.50,202.17 L176.33,202.33 L176.33,202.67 L176.17,202.83 L176.17,203.50 L176.00,203.67 L176.00,204.50 L175.83,204.67 L175.83,205.50 L175.67,205.67 L175.67,206.50 L175.50,206.67 L175.50,208.17 L175.67,208.33 L175.67,208.67 L175.83,208.83 L175.83,209.33 L176.00,209.50 L176.17,210.00 L176.50,210.33 L176.50,210.50 L177.83,211.83 L178.33,212.00 L178.67,212.33 L179.17,212.33 L179.33,212.50 L179.67,212.50 L179.83,212.67 L180.33,212.67 L180.50,212.83 L181.83,212.83 L182.00,212.67 L182.50,212.67 L182.67,212.50 L183.17,212.50 L183.33,212.33 L184.17,212.17 L184.67,211.83 L185.17,211.83 L185.33,211.67 L185.50,211.67 L186.17,211.00 L186.33,211.00 L186.83,210.50 L187.00,210.50 L187.33,210.17 L187.33,210.00 L188.17,209.17 L188.17,209.00 L188.67,208.50 L188.67,208.33 L188.83,208.17 L188.83,207.83 L189.17,207.33 L189.17,206.83 L189.33,206.67 L189.33,206.33 L189.17,206.17 L189.00,205.67 L188.83,205.67 L188.67,205.50 L188.33,205.50 L188.17,205.67 L188.00,205.67 L187.50,206.17 L187.50,206.33 L186.00,207.83 L185.83,207.83 L185.67,208.00 L185.33,208.00 L185.17,208.17 L183.67,208.17 L183.50,208.00 L183.33,208.00 L183.00,207.67 L183.00,207.50 L182.83,207.33 L182.83,206.83 L182.67,206.67 L182.67,205.00 L182.83,204.83 L182.83,203.50 L183.00,203.33 L183.00,202.50 L183.17,202.33 L183.17,201.83 L183.33,201.67 L183.33,201.33 L183.50,201.17 L183.50,200.67 L183.67,200.50 L183.67,199.67 L183.83,199.50 L183.83,199.00 L184.00,198.83 L184.00,198.17 L184.17,198.00 L184.17,197.33 L184.33,197.17 L184.33,196.67 L184.50,196.50 L184.50,196.17 L184.67,196.00 L184.67,195.33 L184.83,195.17 L184.83,194.33 L185.00,194.17 L185.00,193.67 L185.33,193.17 L185.33,192.83 L185.67,192.33 L185.67,191.83 L185.83,191.67 L185.83,190.83 L186.00,190.67 L186.00,190.00 L186.17,189.83 L186.17,189.33 L186.33,189.17 L186.33,188.67 L186.50,188.50 L186.50,188.33 L187.17,187.67 L187.33,187.67 L187.50,187.50 L190.17,187.50 L190.33,187.33 L191.50,187.33 L191.67,187.17 L192.00,187.17 L192.17,187.00 L192.33,187.00 L192.83,186.50 L192.83,186.17 L193.00,186.00 L193.00,185.33 L192.83,185.17 L192.83,184.83 L192.67,184.67 L192.67,184.50 L192.50,184.50 L192.33,184.33 L189.33,184.33 L189.17,184.50 L188.17,184.50 L187.67,184.17 L187.67,184.00 L187.50,183.83 L187.50,183.00 L187.67,182.83 L187.67,182.33 L187.83,182.17 L187.83,181.33 L188.00,181.17 L188.00,180.67 L188.33,180.17 L188.33,179.83 L188.67,179.33 L188.67,178.67 L188.83,178.50 L188.83,177.17 Z M142.67,172.33 L142.33,172.17 L142.00,172.33 L140.50,173.83 L139.17,174.83 L138.83,174.83 L138.17,175.17 L137.00,176.00 L134.33,176.00 L134.17,176.17 L121.67,176.17 L121.50,176.33 L118.50,176.50 L118.33,176.67 L117.33,176.67 L117.17,176.83 L114.83,176.83 L114.67,177.00 L114.17,177.00 L113.33,177.33 L112.50,177.33 L111.50,177.83 L110.50,178.00 L109.83,178.33 L109.33,178.83 L108.33,179.17 L107.83,179.67 L107.17,180.00 L105.67,181.50 L105.00,182.50 L104.83,183.17 L104.33,183.67 L104.00,184.33 L104.00,185.00 L103.83,185.17 L103.83,186.50 L103.67,186.67 L103.67,187.00 L103.83,187.17 L103.83,188.33 L104.17,189.17 L104.67,189.67 L105.00,190.33 L106.50,191.83 L108.00,191.83 L108.50,191.50 L108.50,190.67 L107.83,189.00 L107.83,187.67 L108.00,187.50 L108.17,186.50 L108.50,186.17 L108.67,185.50 L110.50,183.50 L111.83,182.83 L112.17,182.83 L114.00,181.83 L117.67,181.67 L117.83,181.83 L118.50,181.83 L119.00,182.33 L119.00,183.00 L118.17,184.83 L118.00,186.17 L117.17,187.67 L116.83,189.33 L116.17,191.00 L116.00,192.33 L115.83,192.50 L115.50,194.33 L115.00,195.67 L114.83,197.33 L114.17,198.50 L114.00,200.17 L113.33,201.67 L113.33,202.17 L113.00,203.00 L113.00,203.67 L112.67,204.50 L112.67,205.17 L112.50,205.33 L112.50,205.83 L112.17,206.67 L112.17,207.33 L112.00,207.50 L112.00,208.17 L111.83,208.33 L111.83,209.17 L111.67,209.33 L111.50,210.50 L112.00,211.67 L112.50,212.17 L113.83,212.83 L117.50,212.83 L118.33,212.33 L119.00,211.17 L119.17,209.67 L119.33,209.50 L119.33,209.00 L119.50,208.83 L119.67,207.67 L119.83,207.50 L119.83,206.67 L120.83,204.00 L120.83,203.00 L121.00,202.83 L121.17,201.67 L121.50,201.17 L121.50,200.50 L121.67,200.33 L121.67,199.67 L121.83,199.50 L122.00,198.17 L122.33,197.33 L122.33,196.67 L122.83,195.33 L122.83,194.50 L123.83,192.00 L124.00,190.83 L124.67,189.50 L125.00,187.67 L125.33,187.17 L125.33,186.67 L125.83,185.50 L126.00,184.50 L126.83,183.00 L126.83,182.67 L127.50,182.00 L129.17,182.00 L129.33,181.83 L135.00,181.83 L136.17,181.33 L136.50,181.00 L137.17,181.00 L137.33,180.83 L138.17,180.67 L138.67,180.17 L139.67,179.67 L141.83,177.33 L142.00,176.67 L142.33,176.33 L142.83,175.33 L143.00,173.17 Z M177.33,135.67 L176.33,135.50 L175.83,135.83 L174.33,136.17 L174.00,136.50 L173.00,137.00 L172.33,137.00 L171.33,137.83 L170.83,137.83 L170.67,138.00 L170.17,138.00 L170.00,138.17 L169.33,138.17 L167.33,136.50 L165.00,135.50 L161.17,135.50 L161.00,135.67 L160.50,135.67 L160.00,136.00 L158.67,136.17 L158.00,136.67 L156.83,137.17 L156.33,137.67 L155.17,138.17 L154.17,139.00 L153.67,139.17 L152.00,140.67 L152.00,140.83 L149.00,144.17 L148.67,144.83 L147.83,145.83 L147.83,146.17 L147.33,146.67 L146.83,147.83 L146.33,148.33 L145.67,149.67 L145.67,150.00 L145.17,150.83 L145.17,151.17 L144.83,151.83 L144.83,152.33 L144.67,152.50 L144.50,153.33 L144.17,153.83 L143.83,156.00 L143.67,156.17 L143.67,156.50 L143.17,157.67 L143.17,158.67 L143.00,158.83 L143.00,163.83 L143.17,164.00 L143.17,164.67 L143.33,164.83 L143.33,165.17 L143.83,165.83 L143.83,166.33 L144.00,166.50 L144.17,167.33 L144.50,167.67 L144.50,168.00 L145.67,169.67 L145.83,169.67 L146.83,170.67 L147.50,171.00 L147.83,171.00 L149.50,171.83 L152.33,171.83 L152.50,171.67 L153.00,171.67 L153.83,171.17 L154.33,171.17 L154.50,171.00 L155.33,170.83 L155.83,170.50 L156.17,170.50 L156.50,170.17 L157.17,169.83 L161.00,166.00 L161.00,165.83 L161.50,165.33 L161.67,164.83 L162.50,164.00 L163.17,164.00 L163.50,164.50 L163.50,166.83 L163.67,167.00 L163.83,168.33 L164.00,168.50 L164.17,169.17 L165.17,170.33 L165.33,170.33 L166.17,171.00 L166.50,171.00 L166.67,171.17 L167.50,171.17 L168.17,171.50 L169.83,171.50 L170.50,171.17 L171.17,171.17 L171.33,171.00 L172.17,170.83 L172.50,170.50 L173.17,170.33 L174.50,169.17 L174.50,169.00 L176.00,167.17 L176.00,166.83 L176.67,165.50 L176.67,164.17 L176.50,164.00 L175.67,164.00 L173.33,165.83 L172.17,165.83 L171.50,165.17 L171.00,164.33 L171.00,161.33 L171.17,161.17 L171.33,159.67 L171.50,159.50 L171.67,158.50 L171.83,158.33 L172.00,156.67 L172.67,155.33 L172.67,154.83 L172.83,154.67 L172.83,153.83 L173.00,153.67 L173.00,153.17 L173.17,153.00 L173.17,152.67 L173.50,152.00 L173.50,151.50 L173.67,151.33 L173.67,150.67 L173.83,150.50 L173.83,150.00 L174.00,149.83 L174.00,149.33 L174.17,149.17 L174.33,147.83 L174.50,147.67 L174.67,146.67 L174.83,146.50 L175.00,145.17 L175.17,145.00 L175.17,144.67 L175.50,144.17 L175.50,143.83 L175.83,143.17 L176.00,141.83 L176.33,141.33 L176.33,141.00 L176.67,140.33 L176.67,139.83 L177.00,139.17 L177.17,137.83 L177.33,137.67 L177.50,136.67 L177.67,136.50 L177.50,136.33 Z M165.00,139.67 L165.17,139.83 L165.33,139.83 L166.00,140.50 L166.00,140.83 L166.17,141.00 L166.17,141.33 L166.33,141.50 L166.33,141.67 L166.50,141.83 L166.50,142.17 L166.67,142.33 L166.67,142.83 L166.83,143.00 L166.83,145.50 L166.67,145.67 L166.67,146.67 L166.50,146.83 L166.50,147.33 L166.33,147.50 L166.33,147.83 L166.17,148.00 L166.17,148.50 L166.00,148.67 L166.00,149.50 L165.83,149.67 L165.83,150.33 L165.67,150.50 L165.67,150.67 L165.50,150.83 L165.50,151.17 L165.33,151.33 L165.33,151.50 L165.17,151.67 L165.17,152.17 L165.00,152.33 L165.00,152.67 L164.83,152.83 L164.83,153.17 L164.67,153.33 L164.67,153.67 L164.50,153.83 L164.50,154.17 L164.33,154.33 L164.33,154.67 L164.17,154.83 L164.17,155.17 L164.00,155.33 L164.00,155.67 L163.83,155.83 L163.83,156.17 L163.67,156.33 L163.67,156.50 L163.50,156.67 L163.50,156.83 L163.17,157.17 L163.17,157.33 L163.00,157.50 L163.00,157.83 L162.83,158.00 L162.83,158.17 L162.50,158.50 L162.50,158.67 L162.17,159.00 L162.17,159.17 L162.00,159.33 L162.00,159.50 L161.83,159.67 L161.83,160.00 L161.67,160.17 L161.67,160.33 L161.33,160.67 L161.33,160.83 L161.17,161.00 L161.17,161.17 L160.67,161.67 L160.67,161.83 L160.17,162.33 L160.17,162.50 L159.83,162.83 L159.83,163.00 L159.17,163.67 L159.00,163.67 L159.00,163.83 L158.17,164.67 L158.00,164.67 L157.83,164.83 L157.67,164.83 L157.00,165.50 L156.83,165.50 L156.33,166.00 L154.83,166.00 L154.67,166.17 L154.50,166.17 L154.33,166.00 L153.17,166.00 L152.83,165.67 L152.67,165.67 L152.33,165.33 L152.33,165.17 L151.67,164.50 L151.67,164.33 L151.50,164.17 L151.50,163.67 L151.33,163.50 L151.33,162.50 L151.17,162.33 L151.17,161.17 L151.33,161.00 L151.33,159.17 L151.50,159.00 L151.50,157.83 L151.67,157.67 L151.67,157.00 L151.83,156.83 L151.83,156.00 L152.00,155.83 L152.00,155.33 L152.17,155.17 L152.17,154.83 L152.33,154.67 L152.33,154.50 L152.50,154.33 L152.50,154.17 L152.67,154.00 L152.67,153.50 L152.83,153.33 L152.83,153.00 L153.00,152.83 L153.00,152.50 L153.33,152.17 L153.33,152.00 L153.50,151.83 L153.50,151.67 L153.67,151.50 L153.67,151.33 L153.83,151.17 L153.83,150.67 L154.00,150.50 L154.00,150.33 L154.17,150.17 L154.17,149.83 L154.33,149.67 L154.33,149.50 L154.50,149.33 L154.50,149.17 L154.67,149.00 L154.67,148.67 L154.83,148.50 L154.83,148.33 L155.00,148.17 L155.00,147.83 L155.17,147.67 L155.17,147.50 L155.50,147.17 L155.50,147.00 L155.67,146.83 L155.67,146.50 L155.83,146.33 L155.83,146.17 L156.17,145.83 L156.17,145.67 L156.83,145.00 L156.83,144.83 L157.00,144.67 L157.00,144.50 L157.33,144.17 L157.33,144.00 L157.67,143.67 L157.67,143.50 L158.33,142.83 L158.33,142.67 L159.17,141.83 L159.33,141.83 L160.17,141.00 L160.33,141.00 L160.83,140.50 L161.00,140.50 L161.50,140.00 L161.67,140.00 L161.83,139.83 L162.33,139.83 L162.50,139.67 L162.83,139.67 L163.00,139.50 L163.17,139.50 L163.33,139.33 L164.00,139.33 L164.17,139.50 L164.33,139.50 L164.50,139.67 Z M201.17,136.00 L200.83,136.00 L200.17,135.67 L199.67,135.67 L199.50,135.50 L199.00,135.50 L198.83,135.33 L197.33,135.17 L197.17,135.00 L194.50,135.00 L194.33,135.17 L193.67,135.17 L193.50,135.33 L192.83,135.33 L192.67,135.50 L191.83,135.50 L190.83,136.00 L190.00,136.17 L189.17,136.83 L188.83,136.83 L188.00,137.33 L187.83,137.67 L186.67,138.67 L186.17,139.33 L185.67,140.50 L185.33,140.83 L185.00,141.67 L185.00,142.50 L184.83,142.67 L184.83,146.17 L185.00,146.33 L185.00,147.33 L185.33,148.17 L185.83,148.83 L186.17,150.17 L187.00,151.50 L187.00,151.83 L187.67,152.83 L188.17,154.00 L190.00,156.33 L190.17,156.83 L190.83,157.67 L191.17,158.50 L191.83,159.33 L192.00,160.00 L193.00,161.67 L193.00,165.17 L191.67,166.83 L190.83,167.33 L189.83,167.50 L189.67,167.67 L188.00,167.67 L187.83,167.50 L187.17,167.50 L186.00,166.83 L185.67,166.83 L184.67,165.67 L184.33,165.00 L184.33,164.67 L184.00,164.17 L184.00,161.83 L184.17,161.67 L184.33,160.83 L184.83,160.00 L184.83,159.50 L185.50,158.67 L185.50,157.83 L185.00,157.17 L183.33,156.33 L182.17,156.67 L181.67,157.00 L181.33,157.00 L180.33,157.83 L180.33,158.00 L179.00,159.50 L178.83,160.33 L178.33,161.33 L178.33,162.00 L178.17,162.17 L178.17,163.83 L178.33,164.00 L178.33,165.17 L178.67,165.67 L178.67,166.00 L179.00,166.50 L179.17,167.17 L181.67,169.83 L182.67,170.50 L183.17,170.50 L184.33,171.00 L185.83,171.17 L186.83,171.67 L187.50,171.67 L187.67,171.83 L190.33,171.83 L190.50,171.67 L191.17,171.67 L191.67,171.33 L192.17,171.33 L192.83,171.00 L193.67,171.00 L194.67,170.50 L195.17,170.50 L195.83,170.00 L196.33,169.83 L196.83,169.50 L199.83,166.33 L200.00,165.50 L200.33,165.00 L200.50,163.67 L200.67,163.50 L200.67,159.67 L200.50,159.50 L200.50,158.83 L200.17,158.17 L200.17,157.50 L200.00,157.33 L199.67,156.00 L199.00,155.00 L199.00,154.67 L197.83,153.17 L197.83,152.83 L197.17,152.00 L197.00,151.50 L196.00,150.33 L195.83,149.83 L195.17,149.17 L193.83,147.17 L193.83,146.83 L192.83,145.17 L192.83,144.67 L192.00,143.33 L191.83,141.67 L192.00,141.50 L192.17,140.67 L192.83,140.00 L192.83,139.83 L193.33,139.33 L194.00,139.00 L194.83,139.00 L195.00,138.83 L197.00,138.83 L197.17,139.00 L197.50,139.00 L199.00,140.67 L199.00,143.17 L198.83,143.33 L198.67,144.33 L198.17,145.17 L198.33,145.67 L198.67,145.83 L201.00,145.83 L201.67,145.50 L202.83,144.50 L203.33,143.50 L203.67,143.17 L203.67,142.83 L204.00,142.17 L204.00,141.50 L204.17,141.33 L204.33,140.17 L204.17,140.00 L204.00,138.83 L203.17,137.50 Z M146.17,136.17 L146.00,136.17 L145.17,135.50 L144.67,135.50 L143.67,135.00 L141.50,135.00 L141.33,135.17 L140.83,135.17 L140.33,135.50 L139.83,135.50 L138.83,136.00 L138.33,136.50 L137.67,136.83 L136.00,138.67 L134.67,141.33 L134.33,141.67 L133.83,142.83 L133.17,143.50 L133.00,144.17 L132.33,144.83 L131.83,144.33 L131.83,143.83 L131.67,143.67 L131.67,143.00 L131.83,142.83 L131.83,140.50 L131.67,140.33 L131.67,139.50 L131.50,139.33 L131.50,139.00 L131.00,138.17 L130.83,137.50 L129.33,136.00 L128.67,135.83 L128.17,135.50 L126.83,135.17 L126.67,135.00 L124.67,135.00 L124.50,135.17 L123.67,135.33 L122.33,136.50 L121.83,137.50 L121.83,138.17 L121.67,138.33 L121.67,139.83 L121.83,140.00 L121.83,140.67 L122.00,140.83 L122.00,141.17 L122.17,141.50 L122.83,142.17 L122.83,142.33 L123.00,142.33 L123.33,142.67 L123.67,142.83 L124.50,142.83 L124.83,143.00 L125.17,143.33 L125.17,144.00 L125.00,144.17 L124.83,146.33 L124.67,146.50 L124.67,147.00 L124.50,147.17 L124.33,148.17 L124.17,148.33 L124.17,149.17 L124.00,149.33 L123.83,151.17 L123.67,151.33 L123.50,152.17 L123.17,152.67 L123.00,154.33 L122.83,154.50 L122.83,155.17 L122.67,155.33 L122.67,155.83 L122.50,156.00 L122.50,156.50 L122.33,156.67 L122.33,157.33 L122.17,157.50 L122.17,158.00 L122.00,158.17 L121.83,159.67 L121.67,159.83 L121.67,160.33 L121.17,161.33 L120.83,163.50 L120.17,164.83 L120.17,165.33 L120.00,165.50 L120.00,166.50 L119.83,166.67 L119.83,167.33 L119.67,167.50 L119.67,167.83 L119.50,168.00 L119.50,168.67 L119.33,168.83 L119.33,170.50 L119.67,170.83 L120.00,171.00 L126.83,171.00 L127.17,170.83 L127.83,170.17 L127.83,169.83 L128.17,169.33 L128.33,167.83 L128.50,167.67 L128.50,166.83 L128.67,166.67 L128.67,165.83 L128.83,165.67 L128.83,164.67 L129.00,164.50 L129.17,162.67 L129.33,162.50 L129.33,162.00 L129.67,161.33 L129.67,160.50 L129.83,160.33 L129.83,159.50 L130.00,159.33 L130.00,158.83 L130.50,158.00 L130.50,157.67 L130.83,157.00 L131.00,155.67 L131.17,155.50 L131.17,155.17 L131.33,155.00 L131.33,154.67 L131.67,154.00 L131.67,153.50 L131.83,153.33 L132.17,152.00 L132.67,151.17 L132.83,150.33 L133.17,149.67 L133.50,149.33 L134.33,147.50 L134.67,147.17 L135.00,146.33 L135.33,146.00 L135.67,145.33 L137.33,143.67 L137.50,143.67 L138.00,143.00 L138.50,142.83 L139.17,143.50 L139.17,143.83 L140.00,145.50 L140.33,145.83 L141.67,146.50 L143.17,146.50 L144.67,145.67 L145.00,145.67 L146.67,144.00 L147.67,142.00 L147.67,141.17 L147.83,141.00 L147.83,139.50 L147.67,139.33 L147.67,138.33 L146.83,136.83 Z M234.00,128.00 L232.50,128.00 L230.83,127.50 L228.67,127.50 L227.00,128.00 L225.50,128.00 L224.67,128.33 L224.33,128.67 L222.67,129.17 L221.50,130.00 L220.83,130.67 L220.50,131.33 L220.50,132.33 L221.00,132.83 L221.83,133.00 L222.33,132.67 L224.50,132.17 L225.17,131.83 L227.83,131.67 L229.83,132.33 L230.33,132.33 L230.67,132.67 L231.33,132.83 L233.67,134.67 L234.00,135.33 L235.00,136.33 L235.83,137.83 L236.83,141.50 L236.83,142.67 L237.00,142.83 L237.00,146.83 L236.83,147.00 L236.83,148.17 L236.33,149.33 L235.50,150.00 L233.17,150.00 L232.17,149.33 L231.83,148.67 L231.83,143.67 L231.67,143.50 L231.67,142.33 L231.00,141.00 L230.67,139.50 L229.17,137.33 L227.67,136.17 L226.00,135.50 L221.33,135.50 L220.17,136.00 L219.67,136.00 L218.33,136.83 L217.33,137.17 L216.17,138.17 L214.50,139.17 L212.17,141.50 L210.50,143.50 L210.33,144.00 L209.17,145.67 L209.00,146.33 L208.17,147.33 L208.00,148.00 L207.17,149.50 L206.50,152.33 L206.00,153.50 L206.00,154.67 L205.83,154.83 L205.83,155.67 L205.50,156.67 L205.50,160.50 L205.83,161.50 L206.00,163.33 L207.17,166.33 L207.83,167.33 L210.50,170.00 L214.17,171.83 L215.17,171.83 L216.83,172.67 L217.67,172.67 L217.83,172.83 L220.83,172.83 L221.00,172.67 L222.00,172.67 L223.83,171.83 L225.17,171.83 L226.67,171.00 L227.33,171.00 L227.83,170.67 L228.17,170.67 L228.50,170.33 L230.33,169.67 L231.00,169.00 L232.00,168.50 L232.67,167.83 L233.17,167.67 L235.83,165.17 L239.17,161.17 L239.33,160.67 L239.83,160.17 L240.00,159.50 L241.67,157.17 L242.00,156.00 L242.50,155.17 L242.50,154.67 L242.83,154.17 L242.83,153.50 L243.67,151.50 L243.83,149.67 L244.67,147.00 L244.67,145.17 L244.83,145.00 L244.67,140.00 L243.83,138.00 L243.67,136.83 L241.83,133.50 L238.67,130.33 L236.33,129.00 L235.83,129.00 Z M224.17,139.17 L224.67,139.67 L224.67,140.17 L224.50,140.33 L224.50,141.50 L224.33,141.67 L224.33,144.00 L224.50,144.17 L224.50,144.83 L224.67,145.00 L224.67,145.33 L224.83,145.50 L224.83,146.17 L225.00,146.33 L225.00,147.00 L225.17,147.17 L225.17,147.50 L225.33,147.67 L225.33,147.83 L225.50,148.00 L225.50,148.17 L225.83,148.67 L225.83,149.00 L226.00,149.17 L226.00,149.33 L226.17,149.50 L226.17,149.67 L226.50,150.00 L226.50,150.17 L228.17,151.83 L228.33,151.83 L228.83,152.33 L229.00,152.33 L229.33,152.67 L229.50,152.67 L229.67,152.83 L230.00,152.83 L230.17,153.00 L230.33,153.00 L230.50,153.17 L230.67,153.17 L231.00,153.50 L231.17,153.50 L231.33,153.67 L232.17,153.67 L232.33,153.83 L233.50,153.83 L233.67,153.67 L234.33,153.67 L234.50,153.83 L234.67,153.83 L235.17,154.33 L235.17,154.83 L235.00,155.00 L235.00,155.33 L234.67,155.67 L234.67,155.83 L234.33,156.17 L234.33,156.33 L234.00,156.67 L234.00,157.17 L233.83,157.33 L233.83,157.50 L233.67,157.67 L233.67,157.83 L233.50,158.00 L233.50,158.17 L233.17,158.50 L233.17,158.67 L233.00,158.83 L233.00,159.17 L232.83,159.33 L232.83,159.50 L232.50,159.83 L232.50,160.00 L232.33,160.17 L232.33,160.33 L231.83,160.83 L231.83,161.00 L231.17,161.67 L231.17,161.83 L230.50,162.50 L230.50,162.67 L230.00,163.17 L230.00,163.33 L228.33,165.00 L228.17,165.00 L227.00,166.17 L226.83,166.17 L226.17,166.83 L226.00,166.83 L225.67,167.17 L225.50,167.17 L225.00,167.50 L224.67,167.50 L224.50,167.67 L224.33,167.67 L223.83,168.00 L223.50,168.00 L223.33,168.17 L222.83,168.17 L222.67,168.33 L222.33,168.33 L222.17,168.50 L222.00,168.50 L221.50,168.83 L221.17,168.83 L221.00,169.00 L219.33,169.00 L219.17,168.83 L218.50,168.83 L218.17,168.50 L218.00,168.50 L217.83,168.33 L217.67,168.33 L217.17,168.00 L216.83,168.00 L216.67,167.83 L216.50,167.83 L215.33,166.67 L215.33,166.50 L214.83,166.00 L214.83,165.67 L214.67,165.50 L214.67,165.33 L214.50,165.17 L214.50,165.00 L214.33,164.83 L214.33,164.67 L214.00,164.17 L214.00,163.67 L213.83,163.50 L213.83,162.00 L213.67,161.83 L213.67,159.83 L213.83,159.67 L213.83,157.67 L214.00,157.50 L214.00,156.67 L214.17,156.50 L214.17,156.00 L214.33,155.83 L214.33,155.50 L214.50,155.33 L214.50,155.00 L214.67,154.83 L214.67,154.33 L214.83,154.17 L214.83,153.50 L215.00,153.33 L215.00,152.83 L215.17,152.67 L215.17,152.50 L215.33,152.33 L215.33,152.00 L215.67,151.50 L215.67,151.17 L215.83,151.00 L215.83,150.50 L216.00,150.33 L216.00,149.83 L216.17,149.67 L216.17,149.50 L216.50,149.00 L216.50,148.67 L216.83,148.17 L216.83,147.67 L217.00,147.50 L217.00,147.33 L217.33,147.00 L217.33,146.83 L217.50,146.67 L217.50,146.50 L217.67,146.33 L217.67,146.17 L217.83,146.00 L217.83,145.83 L218.00,145.67 L218.00,145.50 L218.50,145.00 L218.50,144.83 L218.83,144.50 L218.83,144.33 L219.17,144.00 L219.17,143.83 L219.67,143.33 L219.67,143.17 L219.83,143.00 L219.83,142.83 L220.50,142.17 L220.50,142.00 L222.00,140.50 L222.00,140.33 L222.67,139.67 L222.83,139.67 L223.17,139.33 L223.33,139.33 L223.50,139.17 Z M113.00,121.00 L110.17,119.67 L108.17,119.00 L106.17,118.83 L104.17,118.00 L94.17,118.00 L91.83,118.83 L89.33,119.00 L88.17,119.50 L86.50,119.67 L82.50,121.00 L81.00,122.00 L80.00,122.17 L76.33,124.00 L75.33,125.00 L73.67,125.83 L71.00,128.00 L67.17,132.00 L65.17,135.00 L63.67,138.50 L63.00,141.83 L63.17,145.17 L64.50,148.33 L67.50,151.00 L69.50,151.50 L73.33,151.33 L75.17,150.33 L76.50,149.00 L77.33,147.50 L76.83,147.00 L75.33,147.00 L73.33,145.17 L72.83,144.17 L72.67,140.67 L73.00,137.83 L73.83,135.50 L75.00,133.50 L77.00,130.83 L81.67,126.83 L86.50,124.67 L87.50,123.83 L88.50,123.83 L90.17,123.00 L91.00,123.67 L88.83,131.83 L87.33,135.83 L85.83,143.17 L84.17,148.50 L82.83,156.17 L82.17,158.17 L81.83,160.67 L81.00,162.83 L81.00,164.00 L79.00,173.50 L78.00,174.83 L76.33,175.00 L73.83,173.50 L71.00,170.33 L70.33,170.33 L69.00,172.17 L68.67,173.67 L69.00,175.67 L69.33,176.33 L72.00,178.67 L73.50,179.50 L75.67,180.17 L81.33,181.00 L89.00,181.00 L96.67,179.67 L98.00,179.00 L99.17,178.83 L100.67,177.83 L101.67,177.67 L105.33,175.83 L109.17,173.00 L112.83,169.17 L114.83,166.00 L116.00,162.00 L116.17,158.50 L115.50,154.67 L114.67,152.83 L111.17,149.17 L109.00,148.00 L107.83,147.83 L106.00,147.00 L105.33,146.33 L110.33,143.83 L113.83,141.00 L115.33,139.33 L117.83,135.00 L118.33,132.50 L118.33,128.67 L117.83,126.50 L115.50,123.00 Z M99.83,149.00 L100.83,149.67 L101.17,149.67 L101.67,150.00 L102.00,150.00 L102.33,150.33 L102.50,150.33 L102.83,150.67 L103.00,150.67 L104.17,151.83 L104.33,151.83 L104.67,152.17 L104.67,152.33 L105.00,152.67 L105.00,152.83 L105.17,153.00 L105.17,153.17 L105.33,153.33 L105.33,153.50 L105.50,153.67 L105.50,153.83 L105.83,154.33 L105.83,154.67 L106.00,154.83 L106.00,155.33 L106.17,155.50 L106.17,156.33 L106.33,156.50 L106.33,157.83 L106.50,158.00 L106.50,159.33 L106.33,159.50 L106.33,161.00 L106.17,161.17 L106.17,162.17 L106.00,162.33 L106.00,163.17 L105.83,163.33 L105.83,164.00 L105.67,164.17 L105.67,164.33 L105.50,164.50 L105.50,164.83 L105.17,165.33 L105.17,165.67 L105.00,165.83 L105.00,166.17 L104.83,166.33 L104.83,166.50 L104.33,167.00 L104.33,167.17 L103.83,167.67 L103.83,167.83 L103.67,168.00 L103.67,168.17 L103.17,168.67 L103.17,168.83 L103.00,169.00 L103.00,169.17 L102.33,169.83 L102.33,170.00 L101.33,171.00 L101.17,171.00 L100.33,171.83 L100.17,171.83 L99.00,173.00 L98.83,173.00 L98.50,173.33 L98.33,173.33 L98.17,173.50 L98.00,173.50 L97.83,173.67 L97.67,173.67 L97.50,173.83 L97.33,173.83 L96.83,174.17 L96.50,174.17 L96.17,174.50 L96.00,174.50 L95.50,174.83 L95.17,174.83 L95.00,175.00 L94.33,175.00 L94.17,175.17 L93.83,175.17 L93.67,175.33 L93.50,175.33 L93.17,175.67 L93.00,175.67 L92.50,176.00 L89.00,176.00 L88.83,176.17 L88.67,176.17 L88.50,176.00 L88.33,176.00 L87.83,175.50 L87.83,174.67 L88.00,174.50 L88.00,174.17 L88.17,174.00 L88.17,173.50 L88.33,173.33 L88.33,172.83 L88.50,172.67 L88.50,172.33 L88.67,172.17 L88.67,171.50 L88.83,171.33 L88.83,170.33 L89.00,170.17 L89.00,169.50 L89.17,169.33 L89.17,168.67 L89.33,168.50 L89.33,168.00 L89.50,167.83 L89.50,167.33 L89.67,167.17 L89.67,166.50 L89.83,166.33 L89.83,165.50 L90.00,165.33 L90.00,164.50 L90.17,164.33 L90.17,163.83 L90.33,163.67 L90.33,163.33 L90.50,163.17 L90.50,162.83 L90.67,162.67 L90.67,162.00 L90.83,161.83 L90.83,160.83 L91.00,160.67 L91.00,160.33 L91.17,160.17 L91.17,159.83 L91.50,159.33 L91.50,158.83 L91.67,158.67 L91.67,158.33 L91.83,158.17 L91.83,157.33 L92.00,157.17 L92.00,156.50 L92.17,156.33 L92.17,156.00 L92.33,155.83 L92.33,155.33 L92.50,155.17 L92.50,154.67 L92.67,154.50 L92.67,153.67 L92.83,153.50 L92.83,152.83 L93.00,152.67 L93.00,152.00 L93.17,151.83 L93.17,151.33 L93.33,151.17 L93.33,150.67 L93.50,150.50 L93.50,150.17 L93.67,150.00 L93.67,149.67 L93.83,149.50 L93.83,149.33 L94.33,148.83 L99.17,148.83 L99.33,149.00 Z M104.33,122.67 L104.50,122.83 L104.67,122.83 L104.83,123.00 L105.17,123.00 L105.50,123.33 L105.67,123.33 L105.83,123.50 L106.00,123.50 L106.33,123.83 L106.50,123.83 L106.83,124.17 L106.83,124.33 L108.17,125.67 L108.17,126.00 L108.50,126.33 L108.50,126.50 L108.67,126.67 L108.67,126.83 L108.83,127.00 L108.83,127.50 L109.00,127.67 L109.00,131.50 L108.83,131.67 L108.83,132.67 L108.67,132.83 L108.67,133.33 L108.50,133.50 L108.50,133.67 L108.33,133.83 L108.33,134.17 L108.17,134.33 L108.17,134.67 L108.00,134.83 L108.00,135.33 L107.83,135.50 L107.83,135.67 L107.50,136.00 L107.50,136.17 L107.17,136.50 L107.17,136.67 L107.00,136.83 L107.00,137.17 L106.83,137.33 L106.83,137.50 L106.67,137.67 L106.67,137.83 L106.50,138.00 L106.50,138.17 L106.33,138.33 L106.33,138.50 L106.17,138.67 L106.17,138.83 L106.00,139.00 L106.00,139.17 L105.83,139.33 L105.83,139.50 L105.17,140.17 L105.17,140.33 L104.00,141.50 L103.83,141.50 L103.00,142.33 L102.83,142.33 L102.33,142.83 L102.17,142.83 L102.00,143.00 L101.67,143.00 L100.83,143.83 L100.67,143.83 L100.50,144.00 L100.00,144.00 L99.83,144.17 L99.33,144.17 L99.17,144.33 L99.00,144.33 L98.83,144.50 L98.67,144.50 L98.50,144.67 L97.50,144.67 L97.33,144.83 L96.50,144.83 L96.33,144.67 L95.83,144.67 L95.33,144.17 L95.33,142.83 L95.50,142.67 L95.50,142.33 L95.67,142.17 L95.67,141.33 L95.83,141.17 L95.83,140.33 L96.00,140.17 L96.00,139.33 L96.17,139.17 L96.17,138.50 L96.33,138.33 L96.33,137.67 L96.50,137.50 L96.50,136.83 L96.67,136.67 L96.67,135.83 L96.83,135.67 L96.83,134.67 L97.00,134.50 L97.00,133.83 L97.17,133.67 L97.17,133.33 L97.33,133.17 L97.33,132.67 L97.50,132.50 L97.50,132.17 L97.67,132.00 L97.67,131.33 L97.83,131.17 L97.83,130.33 L98.00,130.17 L98.00,129.33 L98.17,129.17 L98.17,128.67 L98.33,128.50 L98.33,128.17 L98.50,128.00 L98.50,127.50 L98.67,127.33 L98.67,126.67 L98.83,126.50 L98.83,125.50 L99.00,125.33 L99.00,124.67 L99.17,124.50 L99.17,123.83 L99.33,123.67 L99.33,123.33 L100.00,122.67 L100.17,122.67 L100.33,122.50 L100.67,122.50 L100.83,122.33 L102.00,122.33 L102.17,122.50 L103.83,122.50 L104.00,122.67 Z M140.17,116.33 L140.17,117.33 L140.67,117.83 L141.17,119.00 L141.67,119.50 L142.00,120.33 L143.67,122.17 L143.83,122.17 L145.17,123.50 L145.33,123.50 L145.83,124.00 L146.00,124.00 L146.83,124.83 L147.17,124.83 L147.50,125.17 L148.00,125.33 L148.67,125.83 L149.00,125.83 L149.50,126.17 L150.33,126.33 L150.67,126.67 L152.33,127.00 L153.00,127.50 L153.17,127.50 L153.67,127.83 L155.67,127.83 L155.83,128.00 L158.17,128.00 L158.33,128.17 L158.50,128.17 L159.00,128.83 L159.00,131.67 L159.17,131.83 L159.17,132.33 L159.50,132.67 L160.50,132.67 L161.00,132.33 L161.00,132.17 L161.17,132.00 L161.17,129.33 L161.33,129.17 L161.33,129.00 L162.00,128.33 L162.33,128.33 L162.50,128.17 L163.00,128.17 L163.17,128.00 L164.00,128.00 L164.17,127.83 L166.33,127.83 L166.50,127.67 L167.00,127.50 L167.67,127.00 L168.17,127.00 L168.33,126.83 L169.00,126.83 L169.17,126.67 L169.33,126.67 L169.83,126.33 L170.17,126.33 L171.00,125.83 L171.83,125.67 L172.50,125.17 L173.33,124.83 L174.50,123.67 L174.67,123.67 L175.00,123.33 L175.17,123.33 L176.17,122.33 L176.33,122.33 L176.33,122.17 L177.67,120.83 L177.67,120.67 L178.50,119.83 L178.50,119.67 L178.83,119.33 L178.83,119.17 L179.17,118.83 L179.17,118.67 L179.83,118.00 L179.83,117.67 L180.00,117.50 L180.00,117.17 L179.67,116.83 L179.33,116.83 L178.83,117.33 L178.83,117.50 L178.33,118.00 L178.17,118.00 L177.33,119.00 L177.17,119.00 L176.17,119.83 L176.00,119.83 L175.67,120.17 L175.50,120.17 L175.00,120.67 L174.83,120.67 L174.50,121.00 L174.33,121.00 L173.67,121.67 L173.50,121.67 L173.17,122.00 L172.67,122.00 L172.33,122.33 L172.17,122.33 L172.00,122.50 L171.67,122.50 L171.33,122.83 L171.00,122.83 L170.83,123.00 L170.50,123.00 L170.33,123.17 L169.50,123.17 L169.00,123.50 L168.67,123.50 L168.33,123.83 L167.83,123.83 L167.67,124.00 L166.17,124.00 L166.00,124.17 L165.67,124.17 L164.83,124.67 L164.50,124.67 L164.33,124.83 L163.83,124.83 L163.67,125.00 L161.83,125.00 L161.67,124.83 L161.50,124.83 L161.00,124.17 L161.00,123.83 L161.17,123.67 L161.17,122.50 L160.50,122.00 L159.67,122.00 L159.50,122.17 L159.33,122.17 L159.00,122.67 L159.00,124.50 L158.50,125.00 L156.17,125.00 L156.00,124.83 L155.50,124.83 L155.00,124.50 L154.67,124.50 L154.50,124.33 L154.33,124.33 L154.17,124.17 L153.83,124.17 L153.67,124.00 L152.33,124.00 L152.17,123.83 L151.83,123.83 L151.33,123.50 L151.00,123.50 L150.83,123.33 L150.50,123.33 L150.00,123.00 L149.67,123.00 L149.17,122.67 L148.83,122.67 L148.00,122.17 L147.67,122.17 L147.33,121.83 L147.17,121.83 L146.33,121.00 L146.17,121.00 L146.00,120.83 L145.67,120.83 L145.00,120.17 L144.83,120.17 L144.50,119.83 L144.33,119.83 L143.00,118.67 L142.83,118.67 L142.17,118.00 L142.17,117.83 L140.83,116.67 L140.83,116.50 L140.67,116.33 Z M173.50,93.17 L173.33,93.17 L173.17,93.33 L173.00,93.33 L173.00,93.50 L172.83,93.67 L172.83,94.33 L172.67,94.50 L172.67,94.67 L172.50,94.83 L172.50,95.17 L172.33,95.33 L172.33,95.50 L172.17,95.67 L172.17,96.00 L172.00,96.17 L172.00,96.50 L171.83,96.67 L171.83,96.83 L171.67,97.00 L171.67,97.17 L171.50,97.33 L171.50,97.50 L171.17,97.83 L171.17,98.00 L171.00,98.17 L171.00,98.33 L170.67,98.67 L170.67,98.83 L170.00,99.50 L170.00,99.67 L169.17,100.50 L169.00,100.50 L167.67,101.83 L167.67,102.00 L164.83,104.83 L164.83,105.00 L164.17,105.67 L164.17,106.00 L163.83,106.33 L163.83,106.50 L163.50,106.83 L163.50,107.00 L163.17,107.33 L163.17,107.50 L163.00,107.67 L163.00,108.00 L162.83,108.17 L162.83,108.33 L162.67,108.50 L162.67,108.67 L162.50,108.83 L162.50,109.00 L162.33,109.17 L162.33,109.33 L162.17,109.50 L162.17,109.83 L162.00,110.00 L162.00,110.67 L161.83,110.83 L161.83,111.50 L161.67,111.67 L161.67,112.33 L161.50,112.50 L161.50,116.50 L161.67,116.67 L161.67,117.17 L161.83,117.33 L161.83,117.50 L162.17,117.83 L162.33,117.83 L162.67,117.50 L162.67,117.33 L162.83,117.17 L162.83,116.83 L163.00,116.67 L163.00,116.50 L163.33,116.17 L163.33,116.00 L163.50,115.83 L163.50,115.67 L163.83,115.33 L163.83,115.17 L164.00,115.00 L164.00,114.83 L164.67,114.17 L164.67,114.00 L166.17,112.50 L166.33,112.50 L168.50,110.33 L168.67,110.33 L169.17,109.83 L169.33,109.83 L171.33,107.83 L171.33,107.67 L172.67,106.33 L172.67,106.17 L172.83,106.00 L172.83,105.83 L173.00,105.67 L173.00,105.50 L173.33,105.17 L173.33,105.00 L173.50,104.83 L173.50,104.67 L173.67,104.50 L173.67,104.33 L173.83,104.17 L173.83,103.67 L174.00,103.50 L174.00,103.17 L174.17,103.00 L174.17,102.50 L174.33,102.33 L174.33,101.67 L174.50,101.50 L174.50,100.67 L174.67,100.50 L174.67,96.67 L174.50,96.50 L174.50,95.83 L174.33,95.67 L174.33,95.17 L174.17,95.00 L174.17,94.67 L174.00,94.50 L174.00,94.17 L173.83,94.00 L173.83,93.50 Z M166.67,81.67 L166.50,81.67 L166.50,82.83 L166.67,83.00 L166.67,85.00 L166.50,85.17 L166.50,85.50 L166.33,85.67 L166.33,86.00 L166.17,86.17 L166.17,86.50 L166.00,86.67 L166.00,87.17 L165.83,87.33 L165.83,87.67 L165.67,87.83 L165.67,88.00 L165.50,88.17 L165.50,88.33 L165.33,88.50 L165.33,88.67 L165.17,88.83 L165.17,89.17 L164.83,89.50 L164.83,89.67 L164.67,89.83 L164.67,90.00 L164.50,90.17 L164.50,90.33 L164.17,90.67 L164.17,90.83 L164.00,91.00 L164.00,91.17 L163.17,92.00 L163.17,92.17 L162.83,92.50 L162.83,92.67 L160.67,94.83 L160.67,95.00 L160.00,95.67 L160.00,95.83 L159.00,96.83 L159.00,97.00 L158.33,97.67 L158.33,97.83 L158.17,98.00 L158.17,98.17 L157.83,98.50 L157.83,98.67 L157.67,98.83 L157.67,99.17 L157.33,99.50 L157.33,99.67 L157.17,99.83 L157.17,100.17 L157.00,100.33 L157.00,100.50 L156.83,100.67 L156.83,101.00 L156.67,101.17 L156.67,101.33 L156.50,101.50 L156.50,101.67 L156.33,101.83 L156.33,102.00 L156.17,102.17 L156.17,102.50 L156.00,102.67 L156.00,107.17 L156.17,107.33 L156.17,107.83 L156.33,108.00 L156.33,108.17 L156.50,108.33 L156.50,108.50 L156.67,108.67 L156.67,108.83 L156.83,109.00 L156.83,109.33 L157.00,109.50 L157.00,109.83 L157.17,110.00 L157.17,110.33 L157.50,110.67 L157.50,110.83 L158.17,111.50 L158.50,111.50 L158.67,111.33 L158.67,110.67 L158.83,110.50 L158.83,108.67 L159.00,108.50 L159.00,108.33 L159.17,108.17 L159.17,108.00 L159.33,107.83 L159.33,107.67 L159.67,107.33 L159.67,107.00 L159.83,106.83 L159.83,106.50 L160.00,106.33 L160.00,106.00 L160.33,105.67 L160.33,105.50 L160.50,105.33 L160.50,105.17 L160.67,105.00 L160.67,104.83 L160.83,104.67 L160.83,104.50 L161.00,104.33 L161.00,104.17 L161.33,103.83 L161.33,103.67 L161.67,103.33 L161.67,103.17 L162.00,102.83 L162.00,102.67 L162.83,101.83 L162.83,101.67 L164.50,100.00 L164.50,99.83 L167.00,97.33 L167.00,97.17 L167.33,96.83 L167.33,96.67 L167.83,96.17 L167.83,95.83 L168.00,95.67 L168.00,95.50 L168.33,95.17 L168.33,95.00 L168.50,94.83 L168.50,94.67 L168.67,94.50 L168.67,94.33 L168.83,94.17 L168.83,93.83 L169.00,93.67 L169.00,93.50 L169.17,93.33 L169.17,93.17 L169.50,92.83 L169.50,92.67 L169.67,92.50 L169.67,92.17 L169.83,92.00 L169.83,91.00 L170.00,90.83 L170.00,86.83 L169.83,86.67 L169.83,85.83 L169.67,85.67 L169.67,85.33 L169.33,85.00 L169.33,84.83 L169.00,84.50 L169.00,84.33 L168.83,84.17 L168.83,84.00 L168.67,83.83 L168.67,83.67 L168.50,83.50 L168.50,83.33 L168.00,82.83 L168.00,82.67 L167.33,82.00 L167.17,82.00 L167.00,81.83 L166.83,81.83 Z M146.00,78.33 L145.50,78.33 L144.83,78.83 L144.50,78.83 L144.33,79.00 L143.83,79.00 L143.17,79.67 L141.83,80.33 L141.33,80.83 L140.50,81.17 L140.00,81.67 L139.83,81.67 L139.33,82.17 L139.17,82.17 L135.33,85.83 L135.33,86.00 L134.67,86.67 L134.67,86.83 L133.00,88.67 L132.83,89.17 L132.33,89.67 L131.50,91.33 L131.17,91.67 L131.00,92.00 L131.00,92.33 L130.17,93.33 L129.83,94.00 L129.83,94.33 L129.17,95.50 L129.17,95.83 L129.00,96.00 L129.00,96.33 L128.83,96.50 L128.83,96.83 L128.67,97.00 L128.67,97.33 L128.50,97.50 L128.50,97.83 L128.33,98.00 L128.33,98.33 L128.00,99.00 L127.83,100.50 L127.67,100.67 L127.67,101.00 L127.33,101.67 L127.33,102.17 L127.17,102.33 L127.17,103.00 L127.00,103.17 L127.00,104.33 L126.83,104.50 L126.83,107.33 L126.67,107.50 L126.67,109.83 L126.83,110.00 L126.83,112.67 L127.00,112.83 L127.00,114.17 L127.17,114.33 L127.17,115.00 L127.33,115.17 L127.33,115.50 L127.50,115.67 L127.50,116.00 L127.83,116.67 L127.83,117.17 L128.00,117.33 L128.00,118.00 L128.33,118.50 L128.33,119.00 L129.17,120.67 L129.17,121.00 L130.17,123.00 L130.67,123.50 L131.17,124.67 L131.83,125.50 L132.00,126.00 L132.67,126.67 L133.00,127.33 L134.50,128.83 L134.67,128.83 L135.33,129.33 L135.67,129.33 L135.50,128.83 L135.17,128.50 L134.67,127.33 L134.17,126.83 L133.83,126.17 L133.17,125.50 L132.33,123.67 L132.00,123.33 L131.83,122.50 L131.17,121.33 L131.17,121.00 L131.00,120.83 L130.83,120.00 L130.00,118.50 L130.00,118.17 L129.83,118.00 L129.83,117.50 L129.67,117.33 L129.67,116.67 L129.33,116.17 L129.33,115.67 L129.17,115.50 L129.17,114.83 L129.00,114.67 L129.00,113.67 L128.83,113.50 L128.83,112.50 L128.67,112.33 L128.67,110.83 L128.50,110.67 L128.50,106.50 L128.67,106.33 L128.67,104.83 L128.83,104.67 L128.83,103.67 L129.00,103.50 L129.00,102.50 L129.17,102.33 L129.17,101.50 L129.33,101.33 L129.33,101.00 L129.67,100.33 L129.67,99.67 L129.83,99.50 L129.83,99.00 L130.00,98.83 L130.00,98.50 L130.33,97.83 L130.67,97.50 L130.67,97.17 L130.83,97.00 L130.83,96.50 L131.67,94.83 L131.67,94.50 L132.00,94.00 L132.00,93.67 L132.50,93.00 L132.50,92.67 L132.83,92.33 L133.17,91.50 L133.67,91.00 L133.67,90.83 L134.00,90.50 L134.33,89.83 L134.83,89.33 L135.00,88.83 L136.67,87.00 L136.67,86.83 L137.67,85.83 L137.67,85.67 L140.33,83.00 L141.00,82.67 L141.33,82.17 L142.00,81.83 L142.83,81.00 L143.33,80.83 L143.83,80.33 L144.83,79.83 L145.17,79.17 L145.50,78.83 L145.67,78.83 L146.00,78.50 Z M174.17,78.17 L174.00,78.50 L174.17,78.50 L175.00,79.33 L175.17,79.67 L176.00,80.00 L176.83,80.83 L177.17,80.83 L178.17,81.67 L178.33,81.67 L181.17,84.33 L181.33,84.33 L181.50,84.67 L183.50,86.67 L183.50,86.83 L184.50,87.83 L184.50,88.00 L186.00,89.83 L186.00,90.00 L186.67,90.83 L186.83,91.33 L187.17,91.67 L188.17,93.67 L188.17,94.00 L188.83,94.83 L188.83,95.17 L189.00,95.33 L189.17,96.17 L189.50,96.50 L189.83,97.17 L189.83,97.50 L190.00,97.67 L190.00,98.17 L190.17,98.33 L190.17,98.83 L190.33,99.00 L190.33,99.33 L190.50,99.50 L190.50,100.00 L190.67,100.17 L190.67,100.67 L190.83,100.83 L190.83,101.50 L191.00,101.67 L191.00,102.50 L191.17,102.67 L191.17,104.33 L191.33,104.50 L191.33,105.67 L191.50,105.83 L191.50,110.33 L191.33,110.50 L191.33,111.83 L191.17,112.00 L191.17,113.33 L191.00,113.50 L191.00,114.67 L190.83,114.83 L190.83,115.33 L190.67,115.50 L190.67,116.33 L190.50,116.50 L190.50,117.00 L190.33,117.17 L190.33,117.50 L190.17,117.67 L190.17,118.17 L189.83,118.83 L189.83,119.33 L189.00,120.83 L189.00,121.33 L188.67,122.00 L188.17,122.50 L188.00,123.33 L187.67,123.67 L187.67,124.00 L187.17,124.67 L186.67,125.83 L186.17,126.33 L185.83,127.00 L185.00,127.83 L184.83,128.17 L184.83,128.50 L184.67,128.67 L184.67,129.17 L184.83,129.17 L185.00,129.00 L185.33,129.00 L185.67,128.83 L185.83,128.50 L186.83,127.50 L187.00,127.00 L187.67,126.33 L187.83,125.83 L188.67,125.00 L188.83,124.50 L189.67,123.50 L190.33,122.17 L190.33,121.83 L190.83,121.00 L190.83,120.67 L191.17,120.17 L191.17,119.83 L191.67,119.00 L191.83,117.83 L192.00,117.67 L192.17,116.83 L192.67,116.00 L192.67,115.50 L192.83,115.33 L192.83,114.33 L193.00,114.17 L193.00,113.17 L193.17,113.00 L193.17,112.33 L193.33,112.17 L193.33,110.33 L193.50,110.17 L193.50,106.33 L193.33,106.17 L193.33,104.50 L193.17,104.33 L193.17,103.50 L193.00,103.33 L193.00,102.50 L192.83,102.33 L192.83,101.17 L192.67,101.00 L192.67,100.50 L192.33,100.00 L192.33,99.67 L192.00,99.17 L192.00,98.67 L191.83,98.50 L191.83,97.83 L191.00,96.17 L191.00,95.67 L190.83,95.50 L190.67,94.67 L189.83,93.17 L189.83,92.67 L188.83,91.33 L188.67,90.83 L188.17,90.33 L188.00,89.83 L187.67,89.50 L187.33,88.83 L186.83,88.33 L186.83,88.17 L185.83,87.00 L185.83,86.83 L184.33,85.33 L184.33,85.17 L183.83,84.67 L183.67,84.67 L182.67,83.67 L182.50,83.67 L180.67,81.83 L180.50,81.83 L180.00,81.33 L179.83,81.33 L179.00,80.67 L178.50,80.50 L178.00,80.00 L177.50,79.83 L176.83,79.17 L176.17,78.83 L175.83,78.83 L175.00,78.33 Z M157.83,70.17 L157.33,70.17 L157.17,70.33 L157.17,71.00 L157.50,71.50 L157.50,71.83 L157.67,72.00 L157.67,72.33 L157.83,72.50 L157.83,73.33 L158.00,73.50 L158.00,76.83 L157.83,77.00 L157.83,78.00 L157.67,78.17 L157.67,78.50 L157.33,79.00 L157.33,79.33 L157.17,79.50 L157.17,79.83 L157.00,80.00 L157.00,80.50 L156.17,81.50 L155.83,82.50 L155.50,82.83 L155.50,83.00 L155.17,83.33 L155.17,83.50 L154.83,83.83 L154.83,84.00 L154.33,84.50 L154.33,84.67 L154.00,85.00 L154.00,85.17 L151.17,88.00 L151.17,88.17 L150.33,89.00 L150.17,89.00 L150.17,89.17 L148.67,90.67 L148.67,90.83 L148.17,91.33 L148.17,91.50 L147.83,91.83 L147.67,92.33 L147.17,92.83 L147.00,93.33 L146.67,93.67 L146.67,93.83 L146.00,94.67 L146.00,95.17 L145.67,95.67 L145.67,96.00 L145.50,96.17 L145.50,96.50 L145.33,96.67 L145.33,97.33 L145.17,97.50 L145.17,98.33 L145.00,98.50 L145.00,102.17 L145.17,102.33 L145.17,103.17 L145.33,103.33 L145.33,104.00 L145.50,104.17 L145.50,104.50 L145.83,105.00 L145.83,105.33 L146.00,105.50 L146.00,106.00 L146.17,106.17 L146.17,106.33 L146.50,106.67 L146.50,106.83 L146.83,107.17 L147.17,108.00 L147.67,108.50 L148.00,109.33 L148.67,110.00 L148.67,110.17 L150.67,112.17 L150.83,112.17 L151.67,113.00 L152.17,113.17 L152.67,113.67 L152.83,113.67 L153.00,113.83 L153.33,113.83 L154.50,114.83 L154.67,114.83 L155.17,115.17 L155.67,115.17 L155.83,115.00 L155.83,114.50 L155.67,114.33 L155.67,114.00 L155.00,113.33 L155.00,113.17 L154.83,113.00 L154.83,112.67 L154.67,112.50 L154.67,112.33 L153.83,110.83 L153.83,110.50 L152.83,108.83 L152.83,108.33 L152.67,108.17 L152.67,107.67 L152.33,107.17 L152.33,106.83 L152.17,106.67 L152.17,106.33 L152.00,106.17 L152.00,104.50 L151.83,104.33 L151.83,102.50 L152.00,102.33 L152.00,100.83 L152.17,100.67 L152.17,100.50 L152.33,100.33 L152.33,100.00 L152.67,99.50 L152.67,99.17 L152.83,99.00 L152.83,98.50 L153.00,98.33 L153.17,97.83 L153.50,97.50 L153.50,97.33 L153.83,96.83 L153.83,96.50 L154.17,96.17 L154.17,96.00 L154.33,95.83 L154.33,95.67 L154.67,95.33 L154.83,94.83 L155.67,93.83 L155.67,93.67 L157.00,92.33 L157.00,92.17 L158.17,91.00 L158.17,90.83 L158.83,90.17 L158.83,90.00 L159.83,89.00 L160.00,88.50 L160.33,88.17 L160.33,88.00 L161.00,87.17 L161.00,86.83 L161.83,85.33 L161.83,84.83 L162.00,84.67 L162.17,83.83 L162.50,83.33 L162.50,83.00 L162.67,82.83 L162.67,82.00 L162.83,81.83 L162.83,78.00 L162.67,77.83 L162.67,77.17 L162.50,77.00 L162.50,76.67 L162.00,75.83 L161.83,75.00 L161.67,74.83 L161.17,73.67 L160.83,73.33 L160.83,73.17 L160.50,72.83 L160.50,72.67 L158.83,71.00 L158.67,71.00 Z M73.50,119.17 L74.00,120.00 L75.17,119.50 L77.17,113.83 L81.00,106.17 L84.17,100.83 L90.33,92.50 L100.33,82.33 L109.67,75.33 L113.33,73.00 L121.50,68.83 L128.50,66.00 L138.17,63.67 L139.33,63.00 L149.83,61.67 L161.17,61.50 L169.50,62.17 L171.67,62.83 L174.33,63.00 L175.50,63.67 L178.17,64.00 L185.17,66.00 L188.50,67.67 L192.17,68.83 L198.50,72.00 L208.33,78.33 L215.17,84.00 L225.67,95.33 L231.83,104.50 L235.83,112.50 L238.33,119.00 L239.17,120.00 L240.00,119.67 L238.67,114.83 L234.83,106.67 L229.17,97.50 L222.83,89.50 L215.17,81.83 L203.33,73.00 L196.50,69.17 L189.50,66.00 L178.00,62.33 L173.00,61.67 L171.00,61.00 L167.33,60.83 L164.17,60.00 L149.50,60.00 L146.50,60.83 L142.67,61.00 L140.67,61.67 L135.67,62.33 L123.83,66.17 L117.17,69.17 L110.17,73.17 L103.50,77.83 L97.33,83.00 L91.17,89.17 L86.67,94.67 L81.17,102.67 L78.17,108.17 Z M149.00,36.50 L136.67,38.00 L127.67,40.17 L116.50,44.00 L109.50,47.17 L97.50,54.00 L89.67,59.67 L79.50,68.83 L68.00,82.67 L61.17,93.67 L55.17,106.67 L52.17,115.67 L48.17,136.83 L48.17,156.33 L52.00,177.00 L55.00,186.17 L61.17,199.50 L67.00,209.17 L73.83,218.17 L86.67,231.00 L103.33,242.83 L117.50,249.67 L126.83,252.83 L145.33,256.50 L169.00,256.50 L187.33,252.83 L198.50,248.83 L209.50,243.50 L225.33,232.83 L231.00,227.83 L241.83,216.33 L247.67,208.33 L254.67,196.33 L261.50,179.17 L264.67,166.17 L265.67,158.00 L265.67,135.17 L264.67,127.00 L261.67,114.67 L254.50,96.67 L247.83,85.17 L241.50,76.50 L228.50,63.00 L219.50,56.00 L210.17,50.00 L198.00,44.17 L189.83,41.17 L172.50,37.17 L165.17,36.50 Z M156.17,38.33 L176.83,40.00 L191.33,43.83 L199.00,46.83 L211.17,53.00 L225.33,63.00 L232.17,69.33 L238.83,76.50 L245.00,84.67 L251.67,95.67 L255.00,102.50 L258.83,112.67 L261.83,123.67 L263.83,137.00 L264.00,154.00 L262.83,163.67 L261.00,173.17 L258.00,183.17 L254.83,191.17 L248.00,204.00 L240.67,214.33 L232.83,223.17 L225.50,230.00 L216.17,237.00 L206.17,243.00 L198.00,246.83 L190.00,249.83 L179.00,252.83 L157.17,255.00 L136.00,253.00 L124.67,250.00 L116.17,246.83 L107.50,242.67 L97.67,236.83 L89.33,230.50 L82.00,223.83 L74.00,215.00 L67.67,206.33 L61.17,195.00 L58.00,188.00 L54.83,179.33 L51.83,167.33 L50.33,155.67 L50.00,146.67 L50.33,137.50 L51.83,125.83 L54.83,113.83 L61.00,98.50 L67.17,87.67 L73.50,78.83 L80.67,70.67 L89.50,62.50 L98.50,55.83 L108.67,49.83 L122.83,43.83 L133.17,40.83 L146.33,38.83 Z"/>
</svg>