<svg xmlns="http://www.w3.org/2000/svg" viewBox="0 0 1080 1080" width="1080" height="1080">
<path fill="#DDBB79" fill-rule="evenodd" d="M217.50,753.50 L226.67,783.17 L239.50,806.67 L250.50,821.83 L270.50,844.33 L295.67,868.67 L326.50,892.00 L357.67,909.17 L395.83,924.33 L440.17,935.67 L497.33,944.33 L499.50,961.00 L499.50,1011.67 L518.83,1013.83 L543.83,1012.17 L545.17,996.83 L544.50,960.83 L546.17,944.33 L579.67,940.00 L637.33,927.33 L678.33,913.17 L717.17,893.50 L743.33,875.33 L757.17,863.17 L798.33,820.83 L812.33,798.33 L823.17,767.50 L822.00,765.00 L818.33,764.17 L807.50,767.50 L769.17,804.50 L744.00,823.83 L718.50,839.50 L672.50,860.50 L626.17,874.50 L573.33,884.33 L543.33,887.67 L541.17,877.50 L541.00,844.50 L500.50,843.83 L498.83,855.17 L498.33,886.33 L496.50,887.67 L466.00,884.33 L417.17,874.33 L374.00,860.33 L342.83,846.50 L310.83,828.00 L279.83,805.83 L253.33,781.33 L230.00,754.67 L223.67,752.50 Z M710.17,408.50 L708.33,408.17 L705.50,414.67 L701.00,436.00 L699.33,449.17 L695.17,465.17 L689.33,479.17 L679.50,496.00 L668.50,511.17 L658.50,522.33 L618.50,561.50 L597.33,583.50 L587.50,595.00 L579.50,605.83 L565.67,628.33 L552.67,655.50 L544.50,679.67 L540.17,696.83 L537.50,714.33 L536.00,738.83 L537.50,757.00 L540.17,771.67 L544.50,786.67 L549.33,791.83 L552.67,792.33 L556.33,789.83 L563.67,771.67 L572.33,755.83 L582.17,741.83 L595.83,725.50 L614.00,707.50 L664.17,665.50 L697.83,631.67 L707.33,619.33 L716.00,605.50 L725.50,586.83 L732.67,565.33 L735.50,553.67 L738.33,535.83 L738.50,526.17 L739.67,518.67 L739.67,499.50 L738.33,476.17 L734.17,447.50 L728.50,429.67 L721.50,418.00 L714.50,411.33 Z M615.83,244.83 L612.83,244.50 L611.33,245.67 L611.00,280.67 L608.50,316.83 L601.50,340.17 L593.00,357.83 L577.50,384.17 L555.50,414.17 L534.33,439.33 L505.67,469.67 L491.00,488.67 L481.50,503.50 L473.17,519.67 L467.50,533.67 L463.33,547.83 L459.17,569.67 L458.33,586.00 L459.00,607.50 L461.83,624.67 L466.17,642.00 L473.17,662.17 L488.67,696.33 L493.67,701.33 L497.33,700.83 L500.50,695.67 L506.33,657.67 L514.83,628.17 L523.33,608.67 L535.83,585.50 L552.67,561.67 L563.83,548.00 L614.33,493.17 L632.17,471.00 L651.33,439.17 L658.67,421.33 L664.00,403.33 L668.17,380.67 L669.83,360.17 L669.83,341.67 L668.33,323.50 L665.50,306.00 L657.17,287.67 L645.83,268.83 L630.33,252.17 Z M477.17,71.50 L475.67,72.17 L481.17,105.83 L486.83,152.33 L481.17,189.67 L467.17,231.83 L444.50,272.50 L426.50,297.33 L403.67,324.17 L351.50,377.67 L330.33,404.50 L313.67,434.67 L306.67,452.17 L298.17,485.50 L295.33,506.00 L295.33,543.00 L301.00,577.33 L312.33,611.00 L330.00,644.17 L356.83,679.00 L387.83,709.00 L424.50,734.00 L462.17,752.17 L460.00,739.83 L455.67,728.83 L422.33,668.17 L412.67,637.33 L405.50,597.50 L404.67,574.67 L407.00,536.50 L411.17,518.17 L423.83,484.67 L442.17,451.67 L466.50,418.50 L517.33,356.50 L528.17,341.17 L543.83,314.00 L556.33,283.17 L561.83,261.17 L563.50,221.67 L563.17,196.00 L559.33,168.17 L553.50,150.83 L546.33,136.50 L527.17,108.83 L510.33,89.50 L495.17,77.33 L485.33,72.83 Z"/>
</svg>